<?xml version="1.0" encoding="UTF-8"?>
<!-- Generated by @neplex/vectorizer (Using visioncortex VTracer) -->
<svg version="1.1" xmlns="http://www.w3.org/2000/svg" width="400" height="400">
<path d="M0 0 C6.61701 5.27168 12.87445 10.85539 19 16.6875 C19.98227 17.60789 19.98227 17.60789 20.98438 18.54688 C35.50824 32.53776 46.77428 49.90182 56 67.6875 C56.62648 68.88633 57.25297 70.08516 57.89844 71.32031 C71.57512 98.9831 76.71133 128.45537 76.625 159.1875 C76.63789 163.77656 76.65078 168.36562 76.66406 173.09375 C74.46847 218.03887 56.60927 260.32142 26.15234 293.34766 C24.03283 295.65181 21.98565 298.00745 19.9375 300.375 C16.24945 304.51052 12.29142 308.18661 8 311.6875 C6.96875 312.53312 5.9375 313.37875 4.875 314.25 C-32.27437 344.10217 -75.1061 359.11048 -122.6875 359.125 C-129.00455 359.154 -129.00455 359.154 -135.44922 359.18359 C-178.6259 357.47695 -220.33289 341.0325 -253 312.6875 C-253.81727 311.98109 -254.63453 311.27469 -255.47656 310.54688 C-295.46498 275.25551 -319.87022 227.03044 -324 173.6875 C-325.14622 135.15678 -319.47443 98.86865 -301 64.6875 C-300.31164 63.37266 -299.62328 62.05781 -298.91406 60.70312 C-291.84411 47.58415 -283.16043 35.7452 -273.00391 24.84375 C-271.14217 22.84048 -269.38269 20.78177 -267.625 18.6875 C-200.9907 -57.20577 -77.15047 -59.30785 0 0 Z " fill="#75E8F1" transform="translate(324,41.3125)"/>
<path d="M0 0 C0 2.64 0 5.28 0 8 C2.41313 7.7525 2.41313 7.7525 4.875 7.5 C13.24279 6.78763 21.60897 6.91609 30 7 C29.69063 7.76313 29.38125 8.52625 29.0625 9.3125 C28.32106 11.1879 27.63772 13.08685 27 15 C28.42312 15.39187 29.84625 15.78375 31.3125 16.1875 C36.29225 17.66797 40.8785 19.66459 45.55469 21.91406 C48.19542 23.17075 48.19542 23.17075 52 24 C52.66 22.68 53.32 21.36 54 20 C61.50792 13.7434 66.97222 11.20833 77 12 C87.21903 14.42845 94.95187 21.32286 100.5 30.0625 C105.43934 39.20168 105.95384 48.75395 105 59 C102.15912 66.87772 98.16376 72.15213 90.625 75.9375 C89.0907 76.64129 87.55137 77.33469 86 78 C86.64914 84.12892 88.33957 89.69235 90.1875 95.5625 C92.6633 103.60885 95.12321 111.65551 97.4375 119.75 C98.17807 122.31008 98.17807 122.31008 98.93359 124.92188 C100.4344 132.06858 101.51937 139.644 97.9375 146.3125 C97.55465 147.07176 97.1718 147.83102 96.77734 148.61328 C87.1291 161.56949 67.86804 167.2223 53 172 C52.04352 172.34418 51.08703 172.68836 50.10156 173.04297 C5.67842 188.25877 -48.28046 183.36399 -90.53125 163.91406 C-102.69803 157.94168 -113.34045 152.42936 -118 139 C-120.19213 128.0557 -115.29104 117.25943 -112 107 C-110.87883 103.25505 -109.77429 99.50507 -108.6875 95.75 C-108.19637 94.07422 -107.70523 92.39844 -107.19922 90.67188 C-106.10847 86.42258 -105.42698 82.3602 -105 78 C-105.65227 77.72027 -106.30453 77.44055 -106.97656 77.15234 C-114.47861 73.71114 -118.90261 69.91513 -122.875 62.5 C-125.86325 50.54699 -124.52609 39.67558 -118.30469 29.125 C-113.11322 21.39035 -107.07095 16.0109 -98.375 12.5625 C-90.37048 11.22841 -84.05993 11.98553 -77 16 C-74.98438 17.85938 -74.98438 17.85938 -73.1875 19.8125 C-72.13563 20.86437 -71.08375 21.91625 -70 23 C-63.91512 21.78302 -58.96522 19.38381 -53.3125 16.8125 C-43.00796 12.23205 -32.78668 8.26086 -22 5 C-20.44668 4.51531 -18.89336 4.03063 -17.29297 3.53125 C-5.72812 0 -5.72812 0 0 0 Z " fill="#FD7805" transform="translate(210,48)"/>
<path d="M0 0 C2.36543 0.00387 4.73086 0.00773 7.16797 0.01172 C17.97164 0.50077 28.33262 1.83262 36.25 9.75 C42.92741 19.03323 41.9267 30.72201 40.3125 41.71875 C39.64542 44.35674 38.83826 46.79361 37.8125 49.3125 C37.47219 50.16973 37.13187 51.02695 36.78125 51.91016 C33.11449 60.1232 27.99106 66.28672 19.5625 69.75 C7.87235 73.90112 -8.36126 75.01119 -19.86328 69.76953 C-27.43017 65.02592 -32.8319 59.70149 -36.1875 51.3125 C-36.57937 50.44625 -36.97125 49.58 -37.375 48.6875 C-39.69083 41.91814 -39.42127 34.87374 -39.5 27.8125 C-39.53738 25.61594 -39.57477 23.41938 -39.61328 21.15625 C-39.05766 13.53052 -37.17778 11.15803 -31.75 6.125 C-21.99693 0.11283 -11.19437 -0.07957 0 0 Z " fill="#76E7EF" transform="translate(200.1875,124.6875)"/>
<path d="M0 0 C4.63096 -0.03287 4.63096 -0.03287 9.35547 -0.06641 C18.68786 0.6276 24.65022 1.94846 30.875 9.0625 C34.13045 14.94331 34.17587 19.84022 33.8125 26.5625 C32.375 30.5 32.375 30.5 30.8125 33.5625 C30.3175 34.5525 30.3175 34.5525 29.8125 35.5625 C30.78634 37.24459 31.78945 38.90988 32.8125 40.5625 C34.79318 48.48522 34.00679 55.07245 30.8125 62.5625 C25.94193 68.65071 20.41921 71.29472 12.8125 72.5625 C8.1478 72.7335 3.4801 72.82881 -1.1875 72.875 C-3.6625 72.91238 -6.1375 72.94977 -8.6875 72.98828 C-17.401 72.41751 -17.401 72.41751 -21.1875 68.5625 C-27.24943 57.95413 -25.67593 48.11152 -25.625 36 C-25.62371 31.39934 -25.62242 26.79867 -25.62109 22.05859 C-25.1875 10.5625 -25.1875 10.5625 -22.1875 4.5625 C-14.94112 -1.23461 -9.17798 -0.00382 0 0 Z " fill="#FC7806" transform="translate(102.1875,249.4375)"/>
<path d="M0 0 C3.46113 -0.00773 3.46113 -0.00773 6.99219 -0.01562 C15.61354 0.35778 22.74802 2.86357 28.93359 9.0625 C34.27625 15.21232 34.46746 18.81426 34.41016 26.82031 C33.95788 32.26001 31.75198 34.79891 27.8125 38.3125 C27.25563 38.95187 26.69875 39.59125 26.125 40.25 C27.6289 47.76948 31.12892 54.38171 34.28906 61.34375 C36.125 66.25 36.125 66.25 35.125 71.25 C32.58805 72.51847 30.70891 72.45354 27.875 72.5 C26.94172 72.52578 26.00844 72.55156 25.04688 72.57812 C21.28087 72.1552 19.24484 71.4515 16.125 69.25 C13.85938 65.08984 13.85938 65.08984 11.875 60.1875 C9.71703 54.2546 9.71703 54.2546 6.125 49.25 C2.79266 49.16872 -0.54276 49.16456 -3.875 49.25 C-3.91238 50.65895 -3.94977 52.06789 -3.98828 53.51953 C-4.05402 55.34871 -4.11977 57.17789 -4.1875 59.0625 C-4.24551 60.88395 -4.30352 62.70539 -4.36328 64.58203 C-4.875 69.25 -4.875 69.25 -7.875 72.25 C-10.65234 72.64844 -10.65234 72.64844 -13.8125 72.625 C-14.85277 72.63273 -15.89305 72.64047 -16.96484 72.64844 C-19.875 72.25 -19.875 72.25 -23.875 69.25 C-24.22134 60.33919 -24.30146 51.41739 -24.25 42.5 C-24.23711 37.59641 -24.22422 32.69281 -24.21094 27.64062 C-23.71233 9.25012 -23.71233 9.25012 -16.875 2.25 C-11.19979 -0.58761 -6.32134 -0.01409 0 0 Z " fill="#FD7704" transform="translate(224.875,249.75)"/>
<path d="M0 0 C2.32676 0.00773 4.65352 0.01547 7.05078 0.02344 C16.78069 0.90537 23.82243 3.62263 30.6875 10.625 C34.534 15.65504 35.32001 19.7361 35.07422 25.90625 C34.28149 31.4794 32.05818 35.37893 27.9375 39.125 C27.195 39.62 26.4525 40.115 25.6875 40.625 C27.44023 47.63592 30.81914 54.09526 33.75391 60.68359 C35.6875 65.625 35.6875 65.625 35.6875 70.625 C32.93412 73.37838 31.21535 72.95651 27.375 73 C25.67924 73.04254 25.67924 73.04254 23.94922 73.08594 C19.8523 72.50697 18.49106 71.67113 15.6875 68.625 C13.48438 64.33203 13.48438 64.33203 11.4375 59.4375 C9.61388 54.21882 9.61388 54.21882 6.6875 49.625 C4.83858 49.39136 2.98262 49.21196 1.125 49.0625 C0.11309 48.97871 -0.89883 48.89492 -1.94141 48.80859 C-3.1151 48.71771 -3.1151 48.71771 -4.3125 48.625 C-4.26609 50.10613 -4.21969 51.58727 -4.17188 53.11328 C-4.11773 55.99627 -4.11773 55.99627 -4.0625 58.9375 C-4.01609 60.85176 -3.96969 62.76602 -3.92188 64.73828 C-4.05078 66.3509 -4.17969 67.96352 -4.3125 69.625 C-8.53092 72.78881 -9.39737 73.03701 -14.375 73 C-15.93928 73.0116 -15.93928 73.0116 -17.53516 73.02344 C-20.3125 72.625 -20.3125 72.625 -23.3125 69.625 C-23.61198 60.19142 -23.70153 50.75082 -23.6875 41.3125 C-23.69523 36.11887 -23.70297 30.92523 -23.71094 25.57422 C-23.23286 10.03675 -23.23286 10.03675 -17.45703 3.28906 C-11.55175 -0.50679 -6.96001 -0.09992 0 0 Z " fill="#FD7805" transform="translate(288.3125,249.375)"/>
<path d="M0 0 C1.04027 0.01934 2.08055 0.03867 3.15234 0.05859 C4.1952 0.05988 5.23805 0.06117 6.3125 0.0625 C9.08984 0.49609 9.08984 0.49609 12.08984 3.49609 C12.44604 11.15731 12.62556 18.82712 12.71484 26.49609 C12.17227 39.61665 12.17227 39.61665 14.08984 52.49609 C16.56895 52.52294 19.04814 52.54242 21.52734 52.55859 C22.90793 52.5702 24.28852 52.5818 25.71094 52.59375 C28.92707 52.88766 28.92707 52.88766 30.08984 51.49609 C30.33941 39.08252 30.47541 26.66919 30.61328 14.25391 C31.08984 3.49609 31.08984 3.49609 34.08984 0.49609 C37.12109 0.0625 37.12109 0.0625 40.58984 0.05859 C41.73453 0.03926 42.87922 0.01992 44.05859 0 C47.08984 0.49609 47.08984 0.49609 50.08984 4.49609 C50.38764 13.59625 50.47894 22.70358 50.46484 31.80859 C50.47645 39.28967 50.47645 39.28967 50.48828 46.92188 C49.95895 63.62699 49.95895 63.62699 44.77734 68.80859 C37.34082 73.47804 29.70542 72.82968 21.21484 72.87109 C18.57742 72.89945 15.94 72.92781 13.22266 72.95703 C6.74316 72.53831 3.37603 72.06314 -1.91016 68.49609 C-10.23501 58.25011 -7.16108 43.88875 -7.22266 31.49609 C-7.26004 26.56672 -7.29742 21.63734 -7.33594 16.55859 C-6.79232 1.15789 -6.79232 1.15789 0 0 Z " fill="#FE7704" transform="translate(144.91015625,249.50390625)"/>
<path d="M0 0 C13.36693 0.00193 13.36693 0.00193 27.00391 0.00391 C40.36697 -0.02896 40.36697 -0.02896 54 -0.0625 C75.56641 0.56641 75.56641 0.56641 80.56641 5.56641 C81.23047 10.21875 81.23047 10.21875 81.19141 15.50391 C81.21074 18.11619 81.21074 18.11619 81.23047 20.78125 C80.49957 26.04799 79.38527 27.97252 75.56641 31.56641 C71.19858 33.75032 65.04569 32.83121 60.31641 32.87891 C57.89812 32.91629 55.47984 32.95367 52.98828 32.99219 C45.6531 32.50585 43.10796 31.31975 38.31641 26.12891 C34.50183 20.54327 34.36398 16.34762 34.56641 9.56641 C29.61641 9.56641 24.66641 9.56641 19.56641 9.56641 C19.64891 11.05141 19.73141 12.53641 19.81641 14.06641 C19.79344 19.47868 18.59455 22.98537 15.56641 27.56641 C9.18533 33.77648 3.03917 33.20511 -5.55859 33.12891 C-8.03617 33.1302 -10.51375 33.13148 -13.06641 33.13281 C-19.43359 32.56641 -19.43359 32.56641 -24.43359 28.56641 C-25.92127 24.10337 -25.6849 19.82178 -25.74609 15.12891 C-25.78348 13.25332 -25.82086 11.37773 -25.85938 9.44531 C-24.62906 -4.65247 -13.36238 0.35312 0 0 Z " fill="#75E8F0" transform="translate(173.43359375,86.43359375)"/>
<path d="M0 0 C2.87332 -0.02514 2.87332 -0.02514 5.80469 -0.05078 C10.75655 0.28734 13.84284 0.88962 18.125 3.3125 C19.3125 5.6875 19.3125 5.6875 19.125 8.3125 C16.21425 13.73707 11.5713 15.10241 6.125 17.3125 C4.81753 18.41174 4.81753 18.41174 4.8125 21.125 C4.86921 24.27952 4.86921 24.27952 6.5 26.375 C10.41661 29.26583 14.7225 31.26248 19.125 33.3125 C18.795 34.6325 18.465 35.9525 18.125 37.3125 C12.18063 36.90254 8.93949 35.73614 4.125 32.3125 C1.73891 31.06849 1.73891 31.06849 -0.875 31.3125 C-1.96812 32.09625 -3.06125 32.88 -4.1875 33.6875 C-8.29629 36.6124 -10.9092 37.05114 -15.875 37.3125 C-16.205 35.9925 -16.535 34.6725 -16.875 33.3125 C-15.885 32.72469 -15.885 32.72469 -14.875 32.125 C-13.39 31.22781 -13.39 31.22781 -11.875 30.3125 C-10.4725 29.46688 -9.07 28.62125 -7.625 27.75 C-3.8959 25.77613 -3.8959 25.77613 -2.875 23.3125 C-2.83501 21.3129 -2.83153 19.31203 -2.875 17.3125 C-3.62266 17.09336 -4.37031 16.87422 -5.14062 16.64844 C-9.90446 15.11453 -13.17687 14.04166 -16.6875 10.375 C-17.875 7.3125 -17.875 7.3125 -17.4375 4.5625 C-13.47845 -1.13853 -6.17334 0.01243 0 0 Z " fill="#F97B0C" transform="translate(199.875,137.6875)"/>
<path d="M0 0 C5.68562 2.89645 8.74912 6.75704 11.8125 12.25 C13.31569 16.99691 13.02577 20.14467 12 25 C9.94955 28.75917 8.56103 30.62598 5 33 C4.01 33 3.02 33 2 33 C1.27297 31.45893 1.27297 31.45893 0.53125 29.88672 C-3.63118 21.2817 -8.03989 13.48184 -14 6 C-10.60442 -0.79116 -7.19397 -0.57552 0 0 Z " fill="#78E6EB" transform="translate(286,77)"/>
<path d="M0 0 C3 1 3 1 5 2 C4.86572 8.17669 2.53112 11.34406 -1.01172 16.08984 C-4.62904 21.38435 -7.25847 27.21696 -10 33 C-15.44824 31.63794 -16.9029 29.64564 -20 25 C-21.10415 19.45451 -20.34411 14.98931 -18.5 9.6875 C-13.76467 2.70288 -8.84683 -1.16024 0 0 Z " fill="#78E6EC" transform="translate(123,77)"/>
<path d="M0 0 C3.89891 0.10384 5.87076 0.30549 9.375 2.125 C11.125 4.4375 11.125 4.4375 11.125 9.4375 C6.64769 12.79548 5.39011 12.82314 0 12.75 C-1.24008 12.74613 -2.48016 12.74227 -3.75781 12.73828 C-6.875 12.4375 -6.875 12.4375 -8.875 10.4375 C-9.1875 7 -9.1875 7 -8.875 3.4375 C-5.40206 -0.03544 -4.69658 0.00586 0 0 Z " fill="#7AE4E7" transform="translate(228.875,266.5625)"/>
<path d="M0 0 C3.6875 2 3.6875 2 6 4 C5.8125 6.875 5.8125 6.875 5 10 C1.26647 12.04198 -1.98488 12.24493 -6.1875 12.1875 C-7.23293 12.18105 -8.27836 12.17461 -9.35547 12.16797 C-12 12 -12 12 -14 11 C-14.1875 6.625 -14.1875 6.625 -14 2 C-9.54691 -0.96873 -5.22425 -0.64001 0 0 Z " fill="#7AE4E9" transform="translate(298,267)"/>
<path d="M0 0 C1.24395 -0.02578 2.48789 -0.05156 3.76953 -0.07812 C7.1875 0.25 7.1875 0.25 11.1875 3.25 C11.5625 6.3125 11.5625 6.3125 11.1875 9.25 C9.1875 11.25 9.1875 11.25 5.27344 11.44531 C2.94152 11.41051 2.94152 11.41051 0.5625 11.375 C-0.99727 11.35695 -2.55703 11.33891 -4.16406 11.32031 C-5.97004 11.28551 -5.97004 11.28551 -7.8125 11.25 C-7.91016 3.53516 -7.91016 3.53516 -7.8125 1.25 C-5.88867 -0.67383 -2.55588 0.03159 0 0 Z " fill="#7CE3E5" transform="translate(104.8125,292.75)"/>
<path d="M0 0 C2.62494 -0.02691 5.24997 -0.04635 7.875 -0.0625 C9.3368 -0.0741 10.79859 -0.0857 12.30469 -0.09766 C16 0 16 0 18 1 C18.125 3.875 18.125 3.875 18 7 C16 9 16 9 12.33984 9.23047 C10.88707 9.21629 9.4343 9.20211 7.9375 9.1875 C6.48215 9.18105 5.0268 9.17461 3.52734 9.16797 C0 9 0 9 -1 8 C-1.23529 2.47059 -1.23529 2.47059 0 0 Z " fill="#77E6ED" transform="translate(97,267)"/>
</svg>
