<?xml version="1.0" encoding="UTF-8"?>
<!-- Generated by @neplex/vectorizer (Using visioncortex VTracer) -->
<svg version="1.1" xmlns="http://www.w3.org/2000/svg" width="250" height="250">
<path d="M0 0 C3.26391 -0.03738 6.52781 -0.07477 9.89062 -0.11328 C42.07991 1.27683 70.24539 15.84183 92.75 38.3125 C118.19328 66.06118 126.49882 97.94042 126.15625 135.02344 C124.91783 163.34043 113.36648 189.8564 93.75 210.3125 C92.80125 211.48812 91.8525 212.66375 90.875 213.875 C72.55474 234.02728 46.26311 245.89365 19.75 250.3125 C13.6683 250.48782 7.58406 250.57977 1.5 250.625 C-1.76391 250.66238 -5.02781 250.69977 -8.39062 250.73828 C-40.57991 249.34817 -68.74539 234.78317 -91.25 212.3125 C-116.69328 184.56382 -124.99882 152.68458 -124.65625 115.60156 C-123.48604 88.84419 -113.01674 61.9809 -94.3125 42.46484 C-92.43685 40.50749 -90.76062 38.48491 -89.0625 36.375 C-66.80796 10.99971 -32.59354 0.24228 0 0 Z " fill="#00BFFF" transform="translate(124.25,-0.3125)"/>
<path d="M0 0 C4.40277 3.30208 4.8 4.36827 6.25 9.4375 C6.58516 10.57059 6.92031 11.70367 7.26562 12.87109 C8 16 8 16 8 20 C9.39219 19.87625 9.39219 19.87625 10.8125 19.75 C22.36744 20.43985 31.34849 26.64667 39 35 C39 35.66 39 36.32 39 37 C39.94102 36.71125 40.88203 36.4225 41.85156 36.125 C43.0968 35.75375 44.34203 35.3825 45.625 35 C46.85477 34.62875 48.08453 34.2575 49.35156 33.875 C52.78449 33.05169 55.49515 32.67315 59 33 C61.9375 35.0625 61.9375 35.0625 64 38 C64.125 41.625 64.125 41.625 63 45 C58.6535 48.80319 51.71857 51 46 51 C46.33 52.32 46.66 53.64 47 55 C47.7684 65.91133 45.10507 74.95545 39 84 C39.20039 88.95744 41.98294 92.07723 44.875 95.9375 C52.12213 105.64612 54.09791 111.85992 53 124 C51.07542 132.93294 45.69453 139.87675 38.15234 144.89453 C29.65014 149.39322 21.49647 150.351 12 149 C7.39926 147.45129 3.47827 145.47827 0 142 C-4.64249 141.66997 -4.64249 141.66997 -7.24609 142.96875 C-14.81815 145.80424 -25.04282 145.22213 -32.66797 142.86719 C-42.85026 137.93736 -49.8679 131.0558 -55 121 C-55.64426 118.88681 -56.24949 116.76127 -56.8125 114.625 C-58.07583 110.35477 -58.07583 110.35477 -61.21875 107.37891 C-62.94828 106.58447 -64.69807 105.83275 -66.46484 105.125 C-73.43382 102.03245 -77.084 95.80401 -80 89 C-82.6706 81.92679 -83.42174 74.52545 -81.125 67.21484 C-76.84951 58.11536 -70.74855 51.8117 -62 47 C-52.71897 43.90632 -41.35473 45.92117 -32 48 C-31.72156 46.54594 -31.72156 46.54594 -31.4375 45.0625 C-28.09237 35.60887 -20.22472 27.99938 -11.625 23.0625 C-9 22 -9 22 -7 22 C-7.47526 20.35303 -7.95532 18.70745 -8.4375 17.0625 C-8.70434 16.14598 -8.97117 15.22945 -9.24609 14.28516 C-9.79026 12.05975 -9.79026 12.05975 -11 11 C-11.36039 7.17989 -11.54049 4.84316 -9.4375 1.5625 C-6.08148 -0.5888 -3.91578 -0.48947 0 0 Z " fill="#FAFDFF" transform="translate(129,48)"/>
<path d="M0 0 C0.99 0.66 1.98 1.32 3 2 C-5.93983 11.71721 -15.46293 18.84973 -28.89844 20.31641 C-33.30614 20.49957 -36.15342 20.46649 -40.0625 18.3125 C-43.04121 14.75727 -43.8537 12.14949 -44.4375 7.5625 C-43.8792 3.01634 -42.19453 1.19453 -39 -2 C-28.84541 -7.07729 -10.45862 -1.84315 0 0 Z " fill="#06C0FF" transform="translate(111,117)"/>
<path d="M0 0 C6.46384 3.23192 9.75521 9.27748 14 15 C15.02223 16.31484 16.04445 17.62969 17.09766 18.98438 C18.59619 20.94117 18.59619 20.94117 20.125 22.9375 C21.0557 24.14277 21.98641 25.34805 22.94531 26.58984 C25.13305 30.22082 25.62168 31.85937 25 36 C22.70551 40.17925 20.87321 42.09509 17 45 C11.57933 45.69694 9.03776 45.78793 4.625 42.4375 C-3.18873 32.20524 -3.1421 19.8786 -1.55078 7.50781 C-1.09049 4.99417 -0.55435 2.49458 0 0 Z " fill="#07C0FF" transform="translate(137,132)"/>
<path d="M0 0 C5.19109 3.75671 7.844 7.3449 9.25 13.71875 C9.58942 18.57051 9.79782 23.0753 8.25 27.71875 C4.0438 25.61565 2.46287 23.89113 -0.4375 20.28125 C-1.22512 19.31316 -2.01273 18.34508 -2.82422 17.34766 C-4.75 14.71875 -4.75 14.71875 -5.75 11.71875 C-7.19375 11.57438 -8.6375 11.43 -10.125 11.28125 C-11.48238 11.14203 -11.48238 11.14203 -12.86719 11 C-14.7665 10.8147 -16.66769 10.64757 -18.57031 10.5 C-25.5375 9.93125 -25.5375 9.93125 -27.75 7.71875 C-26.31771 6.40056 -24.87898 5.08938 -23.4375 3.78125 C-22.63699 3.05035 -21.83648 2.31945 -21.01172 1.56641 C-15.50575 -2.93156 -6.27903 -2.92546 0 0 Z " fill="#08C0FF" transform="translate(145.75,89.28125)"/>
<path d="M0 0 C0.66 0 1.32 0 2 0 C2.06059 1.12277 2.12117 2.24555 2.18359 3.40234 C2.60698 10.96469 3.04356 18.48509 4 26 C0.23984 27.88008 -3.93134 27.51231 -8 27 C-14.71398 23.88627 -17.70311 20.38773 -21 14 C-21 13.01 -21 12.02 -21 11 C-19.53562 10.44313 -18.07125 9.88625 -16.5625 9.3125 C-12.87763 7.85009 -9.44271 6.21486 -6 4.25 C-2 2 -2 2 0 2 C0 1.34 0 0.68 0 0 Z " fill="#0AC1FF" transform="translate(113,145)"/>
</svg>
