<?xml version="1.0" encoding="UTF-8"?>
<!-- Generated by @neplex/vectorizer (Using visioncortex VTracer) -->
<svg version="1.1" xmlns="http://www.w3.org/2000/svg" width="256" height="256">
<path d="M0 0 C16.6385 7.29359 25.28795 26.12608 31.66797 42.20312 C32.67516 44.89891 33.6677 47.60025 34.64062 50.30859 C35.5218 52.70143 36.46667 55.07212 37.48438 57.41016 C46.69958 79.23688 56.82809 111.70763 49.70312 135.29297 C43.42293 148.96248 29.85626 154.81875 17 161 C17.825 161.59813 18.65 162.19625 19.5 162.8125 C20.325 163.53438 21.15 164.25625 22 165 C22 165.99 22 166.98 22 168 C23.18078 168.31711 24.36156 168.63422 25.57812 168.96094 C37.92262 172.69732 37.92262 172.69732 41.05469 176.48438 C42.77625 180.73172 43.11159 183.55363 42 188 C34.94278 188.94096 28.12135 189.08185 21 189 C18.69 193.62 16.38 198.24 14 203 C2.12 203.33 -9.76 203.66 -22 204 C-28 192 -28 192 -28 189 C-30.36479 189.0174 -30.36479 189.0174 -32.77734 189.03516 C-35.82662 189.04869 -35.82662 189.04869 -38.9375 189.0625 C-40.96777 189.0741 -42.99805 189.0857 -45.08984 189.09766 C-50 189 -50 189 -51 188 C-51.62629 181.86235 -50.79461 177.90138 -47 173 C-42.89227 171.42437 -38.83748 170.30371 -34.55469 169.30078 C-30.8393 168.40495 -30.8393 168.40495 -29.75781 165.48047 C-29.50773 164.66191 -29.25766 163.84336 -29 163 C-27.02 162.01 -27.02 162.01 -25 161 C-26.11117 160.45473 -27.22234 159.90945 -28.36719 159.34766 C-40.20449 153.34694 -52.06189 146.7201 -57.75 134.125 C-65.68853 107.23925 -51.67673 69.4325 -40 45 C-39.34 43.515 -38.68 42.03 -38 40.5 C-37.34 39.015 -36.68 37.53 -36 36 C-35.66742 35.18273 -35.33484 34.36547 -34.99219 33.52344 C-28.9802 19.27123 -17.9848 -1.82454 0 0 Z " fill="#61390A" transform="translate(132,27)"/>
<path d="M0 0 C16.6385 7.29359 25.28795 26.12608 31.66797 42.20312 C32.67516 44.89891 33.6677 47.60025 34.64062 50.30859 C35.5218 52.70143 36.46667 55.07212 37.48438 57.41016 C46.69958 79.23688 56.82809 111.70763 49.70312 135.29297 C43.42293 148.96248 29.85626 154.81875 17 161 C17.825 161.59813 18.65 162.19625 19.5 162.8125 C20.325 163.53438 21.15 164.25625 22 165 C22 165.99 22 166.98 22 168 C23.18078 168.31711 24.36156 168.63422 25.57812 168.96094 C37.92262 172.69732 37.92262 172.69732 41.05469 176.48438 C42.77625 180.73172 43.11159 183.55363 42 188 C35.605 188.82516 29.45144 189.26513 23 189 C22.34 188.34 21.68 187.68 21 187 C27.27 187 33.54 187 40 187 C38.61662 179.56056 38.61662 179.56056 36 176 C33.33918 174.79141 33.33918 174.79141 30.25 173.875 C29.22391 173.54242 28.19781 173.20984 27.14062 172.86719 C24.10124 172.02795 21.11755 171.45736 18 171 C18.495 168.03 18.495 168.03 19 165 C16.36 164.34 13.72 163.68 11 163 C11 166.3 11 169.6 11 173 C10.67 173 10.34 173 10 173 C9.86439 171.25216 9.76773 169.50126 9.6875 167.75 C9.62949 166.77547 9.57148 165.80094 9.51172 164.79688 C10 162 10 162 12.01172 159.87109 C15.59067 157.63016 19.24962 155.98995 23.125 154.3125 C33.74082 149.40097 42.6955 144.33325 47 133 C48.12331 118.5562 47.87208 104.00603 44 90 C43.56687 88.31133 43.13375 86.62266 42.6875 84.88281 C41.4892 80.2462 40.25836 75.62061 39 71 C38.67 71 38.34 71 38 71 C37.98582 71.72445 37.97164 72.44891 37.95703 73.19531 C37.71689 78.06313 37.4425 81.27118 34.875 85.5 C28.99314 90.61466 23.89606 91.32793 16.35547 91.20312 C14 91 14 91 12 90 C12 90.99 12 91.98 12 93 C11.01 93 10.02 93 9 93 C9 92.34 9 91.68 9 91 C6.42839 90.80469 3.85677 90.60938 1.28516 90.41406 C0.154 90.2091 0.154 90.2091 -1 90 C-1.33 89.34 -1.66 88.68 -2 88 C-9.02471 87.37279 -12.20715 89.20141 -18 93 C-19.65 93 -21.3 93 -23 93 C-23.33 93.33 -23.66 93.66 -24 94 C-30.0426 94.51426 -35.49072 93.46615 -41 91 C-44.93226 87.61826 -45.88354 85.97536 -46.5 80.8125 C-46 77 -46 77 -43 74 C-44.32 73.67 -45.64 73.34 -47 73 C-56.54726 105.88126 -56.54726 105.88126 -52 139 C-44.32106 148.21473 -34.13623 153.07903 -23.47656 158.16797 C-20 160 -20 160 -17 163 C-16.92578 166.79297 -16.92578 166.79297 -17.3125 171.1875 C-17.43238 172.64543 -17.55227 174.10336 -17.67578 175.60547 C-17.78277 176.72566 -17.88977 177.84586 -18 179 C-18.33 179 -18.66 179 -19 179 C-19 173.72 -19 168.44 -19 163 C-21.31 163 -23.62 163 -26 163 C-25.67 162.34 -25.34 161.68 -25 161 C-26.11117 160.45473 -27.22234 159.90945 -28.36719 159.34766 C-40.20449 153.34694 -52.06189 146.7201 -57.75 134.125 C-65.68853 107.23925 -51.67673 69.4325 -40 45 C-39.34 43.515 -38.68 42.03 -38 40.5 C-37.34 39.015 -36.68 37.53 -36 36 C-35.66742 35.18273 -35.33484 34.36547 -34.99219 33.52344 C-28.9802 19.27123 -17.9848 -1.82454 0 0 Z " fill="#623909" transform="translate(132,27)"/>
<path d="M0 0 C14.27783 4.77415 22.08342 16.26513 29 29 C31.04051 34.15797 31.40334 38.43397 31 44 C27.21952 47.78048 25.25591 47.76466 20 48 C18 47.33333 16 46.66667 14 46 C5.51439 45.24811 -0.50603 47.02954 -8.47656 49.875 C-14.49447 51.79646 -18.81628 51.73965 -24.875 49.6875 C-28.64667 47.6508 -30.6259 46.1223 -32 42 C-32.59622 30.67175 -30.11872 19.65832 -22.75 10.8125 C-16.25883 3.8026 -9.92319 -1.30091 0 0 Z " fill="#E1B47F" transform="translate(131,116)"/>
<path d="M0 0 C16.6385 7.29359 25.28795 26.12608 31.66797 42.20312 C32.67516 44.89891 33.6677 47.60025 34.64062 50.30859 C35.5218 52.70143 36.46667 55.07212 37.48438 57.41016 C46.69958 79.23688 56.82809 111.70763 49.70312 135.29297 C43.42293 148.96248 29.85626 154.81875 17 161 C17.825 161.59813 18.65 162.19625 19.5 162.8125 C20.325 163.53438 21.15 164.25625 22 165 C22 165.99 22 166.98 22 168 C23.18078 168.31711 24.36156 168.63422 25.57812 168.96094 C37.92262 172.69732 37.92262 172.69732 41.05469 176.48438 C42.77625 180.73172 43.11159 183.55363 42 188 C35.605 188.82516 29.45144 189.26513 23 189 C22.34 188.34 21.68 187.68 21 187 C27.27 187 33.54 187 40 187 C38.61662 179.56056 38.61662 179.56056 36 176 C33.33918 174.79141 33.33918 174.79141 30.25 173.875 C29.22391 173.54242 28.19781 173.20984 27.14062 172.86719 C24.10124 172.02795 21.11755 171.45736 18 171 C18.495 168.03 18.495 168.03 19 165 C16.36 164.34 13.72 163.68 11 163 C11 166.3 11 169.6 11 173 C10.67 173 10.34 173 10 173 C9.86439 171.25216 9.76773 169.50126 9.6875 167.75 C9.62949 166.77547 9.57148 165.80094 9.51172 164.79688 C10 162 10 162 12.01172 159.87109 C15.59067 157.63016 19.24962 155.98995 23.125 154.3125 C33.74082 149.40097 42.6955 144.33325 47 133 C48.1264 118.51651 47.8121 104.04534 44 90 C43.60941 88.30746 43.21883 86.61492 42.81641 84.87109 C37.05329 60.85537 26.95718 22.36087 5.88672 6.68359 C1.10231 3.89323 -2.49139 3.59496 -8 4 C-26.13931 11.6376 -33.68607 37.41702 -40.65625 53.92188 C-50.00516 77.49306 -60.12673 108.95985 -53.9375 134.5625 C-48.45674 147.1152 -35.17723 152.58206 -23.47656 158.16797 C-20 160 -20 160 -17 163 C-16.92578 166.79297 -16.92578 166.79297 -17.3125 171.1875 C-17.43238 172.64543 -17.55227 174.10336 -17.67578 175.60547 C-17.78277 176.72566 -17.88977 177.84586 -18 179 C-18.33 179 -18.66 179 -19 179 C-19 173.72 -19 168.44 -19 163 C-21.31 163 -23.62 163 -26 163 C-25.67 162.34 -25.34 161.68 -25 161 C-26.11117 160.45473 -27.22234 159.90945 -28.36719 159.34766 C-40.20449 153.34694 -52.06189 146.7201 -57.75 134.125 C-65.68853 107.23925 -51.67673 69.4325 -40 45 C-39.34 43.515 -38.68 42.03 -38 40.5 C-37.34 39.015 -36.68 37.53 -36 36 C-35.66742 35.18273 -35.33484 34.36547 -34.99219 33.52344 C-28.9802 19.27123 -17.9848 -1.82454 0 0 Z " fill="#0B0502" transform="translate(132,27)"/>
<path d="M0 0 C3.3 0 6.6 0 10 0 C10 5.61 10 11.22 10 17 C18.92206 19.37922 27.39673 19.97852 36.4375 17.8125 C41 17 41 17 44.125 18.375 C44.74375 18.91125 45.3625 19.4475 46 20 C45.30529 25.38402 43.39734 28.60599 41 34 C30.11 34 19.22 34 8 34 C4 24 4 24 3 20 C-4.92 20 -12.84 20 -21 20 C-20 14 -20 14 -18 10 C-13.92853 8.53023 -9.81677 7.51555 -5.625 6.44141 C-1.84638 5.37828 -1.84638 5.37828 -0.5 2.33984 C-0.335 1.5677 -0.17 0.79555 0 0 Z " fill="#D9A710" transform="translate(103,190)"/>
<path d="M0 0 C0.66 0.66 1.32 1.32 2 2 C1.92614 6.5053 1.61919 9.18048 -1.125 12.8125 C-7.35678 17.55407 -13.22999 18.99884 -21 18 C-29.33758 16.10796 -33.90116 11.66552 -39 5 C-36.45897 -0.08206 -34.66068 -0.50894 -29.47266 -2.23828 C-19.66584 -4.38938 -9.18729 -4.1907 0 0 Z " fill="#070503" transform="translate(148,142)"/>
<path d="M0 0 C0.66 0 1.32 0 2 0 C0.52022 3.99541 -1.39916 7.5477 -3.5 11.25 C-19.05316 40.14658 -37.17876 84.93614 -28.9375 118.5625 C-23.45674 131.1152 -10.17723 136.58206 1.52344 142.16797 C5 144 5 144 8 147 C8.07422 150.79297 8.07422 150.79297 7.6875 155.1875 C7.56762 156.64543 7.44773 158.10336 7.32422 159.60547 C7.21723 160.72566 7.11023 161.84586 7 163 C6.67 163 6.34 163 6 163 C6 157.72 6 152.44 6 147 C3.69 147 1.38 147 -1 147 C-0.67 146.34 -0.34 145.68 0 145 C-1.11117 144.45473 -2.22234 143.90945 -3.36719 143.34766 C-15.20449 137.34694 -27.06189 130.7201 -32.75 118.125 C-40.68853 91.23925 -26.67673 53.4325 -15 29 C-14.34 27.515 -13.68 26.03 -13 24.5 C-12.34 23.015 -11.68 21.53 -11 20 C-10.62102 19.11312 -10.24203 18.22625 -9.85156 17.3125 C-7.11922 11.04725 -4.06476 5.51001 0 0 Z " fill="#080302" transform="translate(107,43)"/>
<path d="M0 0 C4.67917 2.56895 8.6846 5.56652 11.25 10.3125 C12.18668 13.66892 12.26173 16.53211 12 20 C10 22 10 22 7 22.3125 C0.37358 21.79481 -5.01017 20.71125 -10.125 16.3125 C-12.49658 12.12271 -12.75315 9.74485 -12 5 C-8.61458 0.07575 -5.85745 -0.92486 0 0 Z " fill="#0B0806" transform="translate(98,99)"/>
<path d="M0 0 C3 3 3 3 3.5 7.8125 C3.37063 11.67097 2.99867 13.00222 0.9375 16.4375 C-4.95332 21.5763 -10.0771 22.33209 -17.64453 22.30078 C-20 22 -20 22 -22 20 C-22.3125 17.0625 -22.3125 17.0625 -22 14 C-21.01 13.01 -20.02 12.02 -19 11 C-18.67 11.66 -18.34 12.32 -18 13 C-17.01 13 -16.02 13 -15 13 C-15 12.01 -15 11.02 -15 10 C-15.66 9.67 -16.32 9.34 -17 9 C-13.32073 1.64146 -8.14523 -1.08603 0 0 Z " fill="#090705" transform="translate(166,96)"/>
<path d="M0 0 C-2.08235 5.20588 -5.73333 6.69945 -10.52734 8.98438 C-17.88534 12.00662 -25.20032 12.07385 -32.5625 9.25 C-36 7 -36 7 -38 3 C-36.88625 2.73188 -35.7725 2.46375 -34.625 2.1875 C-29.95105 1.05504 -29.95105 1.05504 -25.3125 -0.625 C-17.05398 -3.13569 -8.10597 -3.01617 0 0 Z " fill="#DFB37F" transform="translate(153,165)"/>
<path d="M0 0 C0.66 0.33 1.32 0.66 2 1 C3.6426 11.6769 5.43099 25.32605 0 35 C-8.09879 46.00752 -18.91642 51.19026 -31 57 C-30.175 57.59813 -29.35 58.19625 -28.5 58.8125 C-27.675 59.53438 -26.85 60.25625 -26 61 C-26 61.99 -26 62.98 -26 64 C-24.22883 64.47566 -24.22883 64.47566 -22.42188 64.96094 C-10.07738 68.69732 -10.07738 68.69732 -6.94531 72.48438 C-5.22375 76.73172 -4.88841 79.55363 -6 84 C-12.395 84.82516 -18.54856 85.26513 -25 85 C-25.66 84.34 -26.32 83.68 -27 83 C-20.73 83 -14.46 83 -8 83 C-9.38338 75.56056 -9.38338 75.56056 -12 72 C-14.66082 70.79141 -14.66082 70.79141 -17.75 69.875 C-18.77609 69.54242 -19.80219 69.20984 -20.85938 68.86719 C-23.89876 68.02795 -26.88245 67.45736 -30 67 C-29.67 65.02 -29.34 63.04 -29 61 C-31.64 60.34 -34.28 59.68 -37 59 C-37 62.3 -37 65.6 -37 69 C-37.33 69 -37.66 69 -38 69 C-38.13561 67.25216 -38.23227 65.50126 -38.3125 63.75 C-38.37051 62.77547 -38.42852 61.80094 -38.48828 60.79688 C-38 58 -38 58 -35.98828 55.87109 C-32.40933 53.63016 -28.75038 51.98995 -24.875 50.3125 C-14.27617 45.40883 -5.26838 40.33163 -1 29 C-0.57339 24.01196 -0.33938 19.00545 -0.25 14 C-0.19328 11.38063 -0.13656 8.76125 -0.07812 6.0625 C-0.05234 4.06187 -0.02656 2.06125 0 0 Z " fill="#0C0403" transform="translate(180,131)"/>
<path d="M0 0 C2.31 0.66 4.62 1.32 7 2 C7 3.65 7 5.3 7 7 C8.18078 7.29133 9.36156 7.58266 10.57812 7.88281 C12.11984 8.29273 13.66156 8.70266 15.25 9.125 C17.54711 9.71668 17.54711 9.71668 19.89062 10.32031 C24.48784 12.1994 25.83344 13.60864 28 18 C28 18.66 28 19.32 28 20 C24.45901 20.10821 20.91706 20.18568 17.375 20.25 C14.4166 20.31961 14.4166 20.31961 11.39844 20.39062 C3.53501 19.82164 3.53501 19.82164 0 16 C-0.58594 12.10938 -0.58594 12.10938 -0.375 7.75 C-0.32086 6.30109 -0.26672 4.85219 -0.21094 3.35938 C-0.14133 2.25078 -0.07172 1.14219 0 0 Z " fill="#F7BD05" transform="translate(144,190)"/>
<path d="M0 0 C1.32 4.62 2.64 9.24 4 14 C20.335 14.495 20.335 14.495 37 15 C37 16.32 37 17.64 37 19 C26.11 19 15.22 19 4 19 C4 18.34 4 17.68 4 17 C3.34 17 2.68 17 2 17 C1.32913 15.37673 0.66343 13.75132 0 12.125 C-0.37125 11.22008 -0.7425 10.31516 -1.125 9.38281 C-2 7 -2 7 -2 5 C-9.26 5 -16.52 5 -24 5 C-24 3.68 -24 2.36 -24 1 C-20.18751 0.83307 -16.37501 0.66646 -12.5625 0.5 C-10.43941 0.40719 -8.31633 0.31438 -6.12891 0.21875 C-1 0 -1 0 0 0 Z " fill="#304D4A" transform="translate(107,209)"/>
<path d="M0 0 C1.2375 0.99 1.2375 0.99 2.5 2 C1.5 6 1.5 6 -0.32422 8.23438 C-5.25085 10.97341 -9.74454 10.37442 -15.3125 10.25 C-18.44686 10.19586 -18.44686 10.19586 -21.64453 10.14062 C-24.04799 10.07102 -24.04799 10.07102 -26.5 10 C-24.625 4.25 -24.625 4.25 -23.5 2 C-15.84453 -1.35616 -7.69808 -4.3989 0 0 Z " fill="#F0B708" transform="translate(109.5,200)"/>
<path d="M0 0 C0.99 0.66 1.98 1.32 3 2 C2.34225 6.34117 0.75965 9.99479 -1 14 C-3.64644 13.69269 -6.29214 13.37902 -8.9375 13.0625 C-10.4109 12.88848 -11.8843 12.71445 -13.40234 12.53516 C-17 12 -17 12 -18 11 C-18.04093 8.66703 -18.04242 6.33295 -18 4 C-19.32 4 -20.64 4 -22 4 C-22 3.34 -22 2.68 -22 2 C-20.53627 1.80084 -20.53627 1.80084 -19.04297 1.59766 C-17.13451 1.33275 -17.13451 1.33275 -15.1875 1.0625 C-13.29064 0.80146 -13.29064 0.80146 -11.35547 0.53516 C-2.93657 -0.80756 -2.93657 -0.80756 0 0 Z " fill="#ECB714" transform="translate(146,208)"/>
<path d="M0 0 C2 2 2 2 2 6 C9.26 6 16.52 6 24 6 C28 15 28 15 28 18 C28.66 18 29.32 18 30 18 C30 18.66 30 19.32 30 20 C40.89 20 51.78 20 63 20 C63 18.35 63 16.7 63 15 C63.99 15 64.98 15 66 15 C66.66 14.67 67.32 14.34 68 14 C66.125 19.75 66.125 19.75 65 22 C53.12 22.33 41.24 22.66 29 23 C23 11 23 11 23 8 C20.63521 8.0174 20.63521 8.0174 18.22266 8.03516 C15.17338 8.04869 15.17338 8.04869 12.0625 8.0625 C10.03223 8.0741 8.00195 8.0857 5.91016 8.09766 C1 8 1 8 0 7 C-0.04093 4.66703 -0.04242 2.33295 0 0 Z " fill="#060C0E" transform="translate(81,208)"/>
<path d="M0 0 C3.3 0 6.6 0 10 0 C10.10785 2.60327 10.18552 5.2078 10.25 7.8125 C10.29641 9.2627 10.34281 10.71289 10.39062 12.20703 C10.26172 13.45871 10.13281 14.71039 10 16 C8.68 16.99 7.36 17.98 6 19 C5.34 18.67 4.68 18.34 4 18 C5.32 17.01 6.64 16.02 8 15 C8.33 14.01 8.66 13.02 9 12 C8.19563 11.69063 7.39125 11.38125 6.5625 11.0625 C4 10 4 10 3 9 C-3.48959 8.53646 -7.99801 9.85003 -14 12 C-14.99 12 -15.98 12 -17 12 C-17.28875 12.94875 -17.5775 13.8975 -17.875 14.875 C-19 18 -19 18 -21 20 C-20.46599 16.08393 -19.80331 13.60661 -18 10 C-13.92853 8.53023 -9.81677 7.51555 -5.625 6.44141 C-1.84638 5.37828 -1.84638 5.37828 -0.5 2.33984 C-0.335 1.5677 -0.17 0.79555 0 0 Z " fill="#4D370A" transform="translate(103,190)"/>
<path d="M0 0 C1.0749 4.2996 0.64983 6.66779 0 11 C-0.24311 15.0113 -0.36217 18.04131 1.0625 21.8125 C4.68852 25.90639 8.69665 26.83708 14 27.5 C18.44905 27.37852 22.20375 25.98913 26.375 24.5 C34.84018 21.5028 42.44506 20.30056 51 24 C51 24.33 51 24.66 51 25 C49.81664 24.9652 48.63328 24.93039 47.41406 24.89453 C37.86806 24.73102 29.68075 24.65963 21 29 C19.0004 29.03999 16.99953 29.04347 15 29 C18.864 33.1952 21.82161 35.71969 27.61328 36.23047 C33.14673 36.14238 38.51466 35.82798 44 35 C40.59022 38.40978 36.90187 38.92608 32.1875 39.3125 C25.28181 38.79715 18.92275 37.08155 14 32 C14 31.01 14 30.02 14 29 C11.95812 28.90719 11.95812 28.90719 9.875 28.8125 C4.60006 27.93334 2.67241 26.76422 -1 23 C-2.71528 19.56945 -2.17245 15.84557 -2.1875 12.0625 C-2.20168 10.44473 -2.21586 8.82695 -2.23047 7.16016 C-2 3 -2 3 0 0 Z " fill="#472E14" transform="translate(100,139)"/>
<path d="M0 0 C0.33 0 0.66 0 1 0 C1.35062 1.50563 1.70125 3.01125 2.0625 4.5625 C4.78452 13.53885 12.14048 18.49635 20 23 C24.15069 25.10957 28.32168 27.16204 32.52344 29.16797 C36 31 36 31 39 34 C39.07422 37.79297 39.07422 37.79297 38.6875 42.1875 C38.56762 43.64543 38.44773 45.10336 38.32422 46.60547 C38.21723 47.72566 38.11023 48.84586 38 50 C37.67 50 37.34 50 37 50 C37 44.72 37 39.44 37 34 C34.69 34 32.38 34 30 34 C30.495 33.01 30.495 33.01 31 32 C29.88883 31.45473 28.77766 30.90945 27.63281 30.34766 C16.35827 24.63222 3.98213 18.05029 -1.375 5.875 C-1.58125 4.92625 -1.7875 3.9775 -2 3 C-1.34 2.01 -0.68 1.02 0 0 Z " fill="#0D0501" transform="translate(76,156)"/>
<path d="M0 0 C7.26 0 14.52 0 22 0 C22 1.32 22 2.64 22 4 C15.73 4 9.46 4 3 4 C2.34 5.65 1.68 7.3 1 9 C-0.62613 11.36176 -2.28676 13.70065 -4 16 C-4.66 14.68 -5.32 13.36 -6 12 C-4.42454 7.74735 -2.17235 3.99713 0 0 Z " fill="#203E43" transform="translate(150,210)"/>
<path d="M0 0 C0.33 1.32 0.66 2.64 1 4 C2.2375 3.90719 2.2375 3.90719 3.5 3.8125 C7.79893 4.0428 11.03353 5.36305 15 7 C15.85723 7.26297 16.71445 7.52594 17.59766 7.79688 C20.69768 9.3494 21.1849 10.66648 22.375 13.875 C22.71273 14.73867 23.05047 15.60234 23.39844 16.49219 C24 19 24 19 23 23 C16.605 23.82516 10.45144 24.26513 4 24 C3.34 23.34 2.68 22.68 2 22 C8.27 22 14.54 22 21 22 C19.61662 14.56056 19.61662 14.56056 17 11 C14.33918 9.79141 14.33918 9.79141 11.25 8.875 C10.22391 8.54242 9.19781 8.20984 8.14062 7.86719 C5.10124 7.02795 2.11755 6.45736 -1 6 C-0.67 4.02 -0.34 2.04 0 0 Z " fill="#2D2007" transform="translate(151,192)"/>
<path d="M0 0 C10.89 0 21.78 0 33 0 C33 0.99 33 1.98 33 3 C22.11 3 11.22 3 0 3 C0 2.01 0 1.02 0 0 Z " fill="#376368" transform="translate(111,225)"/>
<path d="M0 0 C1.06863 0.39832 2.13727 0.79664 3.23828 1.20703 C4.04652 1.53059 4.85477 1.85414 5.6875 2.1875 C5.6875 2.8475 5.6875 3.5075 5.6875 4.1875 C2.3875 4.5175 -0.9125 4.8475 -4.3125 5.1875 C-4.6425 7.4975 -4.9725 9.8075 -5.3125 12.1875 C-5.9725 11.1975 -6.6325 10.2075 -7.3125 9.1875 C-7.9725 9.8475 -8.6325 10.5075 -9.3125 11.1875 C-11.04984 7.38707 -11.3125 5.59035 -11.3125 1.1875 C-7.31214 -2.47146 -4.8341 -1.85927 0 0 Z " fill="#F1BB11" transform="translate(118.3125,207.8125)"/>
<path d="M0 0 C2.31 0.33 4.62 0.66 7 1 C6.01 2.485 6.01 2.485 5 4 C4.01 4 3.02 4 2 4 C3.32 4 4.64 4 6 4 C6.99 2.68 7.98 1.36 9 0 C9 1.98 9 3.96 9 6 C10.65 6 12.3 6 14 6 C13.67 6.99 13.34 7.98 13 9 C5.08 9.495 5.08 9.495 -3 10 C-3 8.02 -3 6.04 -3 4 C-2.34 3.67 -1.68 3.34 -1 3 C-0.67 2.01 -0.34 1.02 0 0 Z " fill="#D09C02" transform="translate(113,213)"/>
<path d="M0 0 C4.62 0 9.24 0 14 0 C14.33 2.64 14.66 5.28 15 8 C13.88625 7.81438 12.7725 7.62875 11.625 7.4375 C8.17431 6.68319 8.17431 6.68319 6 8 C5.67 7.34 5.34 6.68 5 6 C4.01 6 3.02 6 2 6 C1.67 6.66 1.34 7.32 1 8 C1 7.01 1 6.02 1 5 C2.32 4.34 3.64 3.68 5 3 C2.525 2.01 2.525 2.01 0 1 C0 0.67 0 0.34 0 0 Z " fill="#E1B01D" transform="translate(114,212)"/>
<path d="M0 0 C0 3.63 0 7.26 0 11 C-5 9 -5 9 -9 6 C-9 4.68 -9 3.36 -9 2 C-2.25 0 -2.25 0 0 0 Z " fill="#EEBA17" transform="translate(113,190)"/>
<path d="M0 0 C2 2 2 2 2 6 C9.26 6 16.52 6 24 6 C24.33 7.98 24.66 9.96 25 12 C24.34 11.67 23.68 11.34 23 11 C23 10.01 23 9.02 23 8 C20.63521 8.0174 20.63521 8.0174 18.22266 8.03516 C15.17338 8.04869 15.17338 8.04869 12.0625 8.0625 C10.03223 8.0741 8.00195 8.0857 5.91016 8.09766 C1 8 1 8 0 7 C-0.04093 4.66703 -0.04242 2.33295 0 0 Z " fill="#000303" transform="translate(81,208)"/>
<path d="M0 0 C0.99 0 1.98 0 3 0 C2.5875 1.485 2.175 2.97 1.75 4.5 C-0.29048 11.96874 -2.14225 19.48412 -4 27 C-4.33 27 -4.66 27 -5 27 C-5.68313 17.16295 -3.2479 9.24492 0 0 Z " fill="#0E0703" transform="translate(85,89)"/>
<path d="M0 0 C2.31 0.66 4.62 1.32 7 2 C6.67 4.64 6.34 7.28 6 10 C4.02 10 2.04 10 0 10 C0 6.7 0 3.4 0 0 Z " fill="#F4BB08" transform="translate(144,190)"/>
<path d="M0 0 C6.00037 1.11871 9.02063 2.37532 13 7 C13.92812 7.88688 14.85625 8.77375 15.8125 9.6875 C18 12 18 12 18 14 C18.99 14 19.98 14 21 14 C22.62754 17.67966 24.02186 21.08745 25 25 C22.11526 22.44811 20.42958 20.07647 18.375 16.75 C14.30601 10.47568 8.57852 6.12024 2.19141 2.33594 C1.10666 1.67465 1.10666 1.67465 0 1 C0 0.67 0 0.34 0 0 Z " fill="#381E09" transform="translate(133,116)"/>
<path d="M0 0 C2.76713 0.0066 4.99368 2.23314 5.00028 4.00028 C4.99368 6.76741 2.76713 8.99396 0 9.00055 C-2.21371 8.99522 -3.99494 7.21398 -4.00022 4.00028 C-3.99494 1.78657 -2.21371 0.00533 0 0.00006 Z " fill="#EDEDED" transform="translate(161,103.99972405)"/>
<path d="M0 0 C0.99 0.495 0.99 0.495 2 1 C3.1384 9.42417 3.67428 16.81001 1 25 C0.67 25 0.34 25 0 25 C0 16.75 0 8.5 0 0 Z " fill="#0F0A06" transform="translate(180,131)"/>
<path d="M0 0 C0.33 0 0.66 0 1 0 C1.42369 9.03881 -0.05998 15.05909 -6.1875 22 C-7.44729 23.34377 -8.71444 24.68086 -10 26 C-10.66 25.67 -11.32 25.34 -12 25 C-11.54109 24.47793 -11.08219 23.95586 -10.60938 23.41797 C-4.68094 16.30634 -1.66514 9.07664 0 0 Z " fill="#060202" transform="translate(182,149)"/>
<path d="M0 0 C7.87577 1.90928 12.70918 10.75881 17 17 C16.67 17.66 16.34 18.32 16 19 C11.8125 15.07422 8.36084 10.74062 4.86719 6.20703 C3.01277 3.8085 3.01277 3.8085 0 2 C0 1.34 0 0.68 0 0 Z " fill="#080402" transform="translate(136,30)"/>
<path d="M0 0 C1.0749 4.2996 0.64983 6.66779 0 11 C-0.24311 15.0113 -0.36217 18.04131 1.0625 21.8125 C3.64396 24.72705 6.37712 25.70123 10 27 C10 27.66 10 28.32 10 29 C5.84546 28.18538 3.42415 27.39298 0.28906 24.48828 C-2.65685 19.99903 -2.57274 17.13921 -2.4375 11.8125 C-2.41559 10.23082 -2.39367 8.64914 -2.37109 7.01953 C-2 3 -2 3 0 0 Z " fill="#301806" transform="translate(100,139)"/>
<path d="M0 0 C0.66 0 1.32 0 2 0 C5.01244 6.56283 7.60626 13.18802 10 20 C9.01 20.33 8.02 20.66 7 21 C5.82718 18.06495 4.66192 15.12688 3.5 12.1875 C2.85031 10.55168 2.20063 8.91586 1.53125 7.23047 C0 3 0 3 0 0 Z " fill="#0B0501" transform="translate(163,73)"/>
<path d="M0 0 C0.33 0 0.66 0 1 0 C1 7.26 1 14.52 1 22 C0.34 22 -0.32 22 -1 22 C-1.92772 18.28914 -2.16555 15.36041 -2.1875 11.5625 C-2.20168 10.45004 -2.21586 9.33758 -2.23047 8.19141 C-2.00248 5.03433 -1.34441 2.84292 0 0 Z " fill="#010100" transform="translate(75,136)"/>
<path d="M0 0 C0.66 1.32 1.32 2.64 2 4 C-5.26 4 -12.52 4 -20 4 C-20.33 3.34 -20.66 2.68 -21 2 C-14.07 2 -7.14 2 0 2 C0 1.34 0 0.68 0 0 Z " fill="#D7A511" transform="translate(170,206)"/>
<path d="M0 0 C2 2 2 2 3 6 C2.67 7.32 2.34 8.64 2 10 C-4.395 10.82516 -10.54856 11.26513 -17 11 C-17.66 10.34 -18.32 9.68 -19 9 C-12.73 9 -6.46 9 0 9 C0 6.03 0 3.06 0 0 Z " fill="#000102" transform="translate(172,205)"/>
<path d="M0 0 C3.702 1.7276 6.07175 3.07175 9 6 C9.07422 9.79297 9.07422 9.79297 8.6875 14.1875 C8.56762 15.64543 8.44773 17.10336 8.32422 18.60547 C8.21723 19.72566 8.11023 20.84586 8 22 C7.67 22 7.34 22 7 22 C7 16.72 7 11.44 7 6 C4.69 6 2.38 6 0 6 C0.33 5.34 0.66 4.68 1 4 C0.67 2.68 0.34 1.36 0 0 Z " fill="#200F02" transform="translate(106,184)"/>
<path d="M0 0 C0.66 0.33 1.32 0.66 2 1 C1.01 2.485 1.01 2.485 0 4 C1.98 4.66 3.96 5.32 6 6 C6.33 7.65 6.66 9.3 7 11 C6.34 11 5.68 11 5 11 C5 9.68 5 8.36 5 7 C0.545 6.01 0.545 6.01 -4 5 C-4 8.3 -4 11.6 -4 15 C-4.33 15 -4.66 15 -5 15 C-5.28783 11.29013 -5.45252 7.70001 -5 4 C-2.5 1.3125 -2.5 1.3125 0 0 Z " fill="#1C0F04" transform="translate(147,185)"/>
<path d="M0 0 C0.66 0.66 1.32 1.32 2 2 C7.53695 2.30923 13.08087 2.49804 18.625 2.625 C21.66977 2.69977 24.71453 2.77453 27.85156 2.85156 C30.21055 2.90055 32.56953 2.94953 35 3 C35 3.33 35 3.66 35 4 C17.675 4.495 17.675 4.495 0 5 C-0.33 3.68 -0.66 2.36 -1 1 C-0.67 0.67 -0.34 0.34 0 0 Z " fill="#153534" transform="translate(109,221)"/>
<path d="M0 0 C2.21371 0.00528 3.99494 1.78651 4.00022 3.00022 C3.99494 5.21393 2.21371 6.99516 0 7.00044 C-1.66028 6.99643 -2.99621 5.6605 -3.00017 3.00022 C-2.99621 1.33994 -1.66028 0.00401 0 0.00006 Z " fill="#EAEAEA" transform="translate(94,102.99977924)"/>
<path d="M0 0 C0.33 0.66 0.66 1.32 1 2 C2.32 2.33 3.64 2.66 5 3 C4.01 3.99 3.02 4.98 2 6 C1.27308 9.10839 1.27308 9.10839 1 12 C0.01 11.34 -0.98 10.68 -2 10 C-1.125 2.25 -1.125 2.25 0 0 Z " fill="#543410" transform="translate(85,98)"/>
<path d="M0 0 C1.77586 3.55172 2.48628 5.91767 3.125 9.75 C3.29258 10.73484 3.46016 11.71969 3.63281 12.73438 C3.81457 13.85586 3.81457 13.85586 4 15 C2.515 15.99 2.515 15.99 1 17 C0.00074 11.25426 -0.07961 5.81151 0 0 Z " fill="#080502" transform="translate(178,115)"/>
<path d="M0 0 C0.66 0 1.32 0 2 0 C2 1.65 2 3.3 2 5 C2.66 5 3.32 5 4 5 C4 3.35 4 1.7 4 0 C4.66 0 5.32 0 6 0 C6 1.98 6 3.96 6 6 C4.34385 6.38219 2.67543 6.71395 1 7 C0 6 0 6 -0.0625 2.9375 C-0.04188 1.96812 -0.02125 0.99875 0 0 Z " fill="#634809" transform="translate(128,213)"/>
<path d="M0 0 C1.45406 0.03094 1.45406 0.03094 2.9375 0.0625 C2.9375 0.3925 2.9375 0.7225 2.9375 1.0625 C1.2875 1.0625 -0.3625 1.0625 -2.0625 1.0625 C-2.0625 2.7125 -2.0625 4.3625 -2.0625 6.0625 C-1.0725 6.0625 -0.0825 6.0625 0.9375 6.0625 C0.6075 4.7425 0.2775 3.4225 -0.0625 2.0625 C0.9275 2.3925 1.9175 2.7225 2.9375 3.0625 C2.6075 4.3825 2.2775 5.7025 1.9375 7.0625 C0.2875 7.0625 -1.3625 7.0625 -3.0625 7.0625 C-3.3925 6.7325 -3.7225 6.4025 -4.0625 6.0625 C-4.0625 0.08291 -4.0625 0.08291 0 0 Z " fill="#624002" transform="translate(139.0625,212.9375)"/>
<path d="M0 0 C2.475 0.99 2.475 0.99 5 2 C4.01 3.32 3.02 4.64 2 6 C1.34 6 0.68 6 0 6 C-0.33 5.34 -0.66 4.68 -1 4 C-3.65617 3.59136 -6.32469 3.25479 -9 3 C-9 2.67 -9 2.34 -9 2 C-7.70063 1.85563 -6.40125 1.71125 -5.0625 1.5625 C-1.24986 1.45101 -1.24986 1.45101 0 0 Z " fill="#533415" transform="translate(109,119)"/>
<path d="M0 0 C0.66 0 1.32 0 2 0 C1.28465 4.57827 -0.32167 8.69471 -2 13 C-4 9 -4 9 -3.32031 6.64062 C-2.21354 4.42708 -1.10677 2.21354 0 0 Z " fill="#384534" transform="translate(148,213)"/>
<path d="M0 0 C0.66 0 1.32 0 2 0 C2.66 1.98 3.32 3.96 4 6 C4.66 6 5.32 6 6 6 C6 9.3 6 12.6 6 16 C4.28509 12.57018 3.05869 9.37998 1.875 5.75 C1.5218 4.67234 1.16859 3.59469 0.80469 2.48438 C0.53914 1.66453 0.27359 0.84469 0 0 Z " fill="#3B230C" transform="translate(158,142)"/>
<path d="M0 0 C0.99 0 1.98 0 3 0 C4.04977 3.14931 4.10132 5.38814 4.0625 8.6875 C4.05348 9.68137 4.04445 10.67523 4.03516 11.69922 C4.02355 12.45848 4.01195 13.21773 4 14 C3.67 14 3.34 14 3 14 C2.01 9.38 1.02 4.76 0 0 Z " fill="#140803" transform="translate(174,108)"/>
<path d="M0 0 C3.0801 3.0801 3.71412 6.90858 5 11 C4.01 11.33 3.02 11.66 2 12 C0.00215 7.87943 -0.17836 4.54806 0 0 Z " fill="#070302" transform="translate(168,82)"/>
<path d="M0 0 C0.99 0 1.98 0 3 0 C2.67 3.96 2.34 7.92 2 12 C-0.39633 7.20735 -1.24712 5.12704 0 0 Z " fill="#160A05" transform="translate(75,128)"/>
<path d="M0 0 C0.33 1.32 0.66 2.64 1 4 C2.98 4 4.96 4 7 4 C7.33 4.99 7.66 5.98 8 7 C5.03 6.67 2.06 6.34 -1 6 C-0.67 4.02 -0.34 2.04 0 0 Z " fill="#332004" transform="translate(151,192)"/>
<path d="M0 0 C6.75 0.875 6.75 0.875 9 2 C8.67 2.99 8.34 3.98 8 5 C5.36 4.34 2.72 3.68 0 3 C0 2.01 0 1.02 0 0 Z " fill="#120C06" transform="translate(127,27)"/>
<path d="M0 0 C2.97 0.495 2.97 0.495 6 1 C5.01 2.485 5.01 2.485 4 4 C3.01 4 2.02 4 1 4 C0.67 4.99 0.34 5.98 0 7 C0 4.69 0 2.38 0 0 Z " fill="#5A3D09" transform="translate(114,213)"/>
<path d="M0 0 C7.38462 1.35385 7.38462 1.35385 10.5 4.625 C10.995 5.40875 11.49 6.1925 12 7 C8.38862 7 7.25268 6.0747 4.3125 4.0625 C3.50426 3.51723 2.69602 2.97195 1.86328 2.41016 C1.2484 1.9448 0.63352 1.47945 0 1 C0 0.67 0 0.34 0 0 Z " fill="#3F2611" transform="translate(133,116)"/>
<path d="M0 0 C0.66 0.33 1.32 0.66 2 1 C1.34 4.63 0.68 8.26 0 12 C-0.33 12 -0.66 12 -1 12 C-1.02687 10.18758 -1.04634 8.37505 -1.0625 6.5625 C-1.0741 5.55316 -1.0857 4.54383 -1.09766 3.50391 C-1 1 -1 1 0 0 Z " fill="#100601" transform="translate(81,104)"/>
<path d="M0 0 C2.56546 2.56546 2.54046 4.47687 3 8 C3.66 8 4.32 8 5 8 C5 8.99 5 9.98 5 11 C4.01 10.67 3.02 10.34 2 10 C0.25 6.0625 0.25 6.0625 -1 2 C-0.67 1.34 -0.34 0.68 0 0 Z " fill="#030C0D" transform="translate(106,218)"/>
<path d="M0 0 C0.99 0 1.98 0 3 0 C3 0.66 3 1.32 3 2 C2.34 2 1.68 2 1 2 C0.71125 2.94875 0.4225 3.8975 0.125 4.875 C-1 8 -1 8 -3 10 C-2.46599 6.08393 -1.80331 3.60661 0 0 Z " fill="#1D1205" transform="translate(85,200)"/>
<path d="M0 0 C0.33 0 0.66 0 1 0 C0.67 2.64 0.34 5.28 0 8 C-1.98 8 -3.96 8 -6 8 C-6 7.34 -6 6.68 -6 6 C-4.68 6 -3.36 6 -2 6 C-2 5.34 -2 4.68 -2 4 C-1.34 4 -0.68 4 0 4 C0 2.68 0 1.36 0 0 Z " fill="#C49820" transform="translate(150,192)"/>
<path d="M0 0 C1.32 0.33 2.64 0.66 4 1 C6 5 6 5 6 10 C3.51275 6.68367 1.7689 3.70627 0 0 Z " fill="#110702" transform="translate(150,48)"/>
<path d="M0 0 C0.33 0.66 0.66 1.32 1 2 C-0.32 2.33 -1.64 2.66 -3 3 C-3 3.66 -3 4.32 -3 5 C-5.31 4.67 -7.62 4.34 -10 4 C-10 3.67 -10 3.34 -10 3 C-5.05 1.515 -5.05 1.515 0 0 Z " fill="#381E09" transform="translate(161,161)"/>
<path d="M0 0 C-3.28464 2.18976 -6.20696 2.99807 -10 4 C-10 3.01 -10 2.02 -10 1 C-6.41221 0.10305 -3.65381 -0.08304 0 0 Z " fill="#311F05" transform="translate(98,198)"/>
<path d="M0 0 C5 0 5 0 7.3125 2 C8.14781 2.99 8.14781 2.99 9 4 C5.30582 4 3.22164 2.71821 0 1 C0 0.67 0 0.34 0 0 Z " fill="#060403" transform="translate(98,182)"/>
<path d="M0 0 C0.33 0 0.66 0 1 0 C1.33 3.3 1.66 6.6 2 10 C0 9 0 9 -1.25 6.125 C-1.4975 5.09375 -1.745 4.0625 -2 3 C-1.34 2.01 -0.68 1.02 0 0 Z " fill="#110704" transform="translate(76,156)"/>
<path d="M0 0 C0.33 0 0.66 0 1 0 C1 3.63 1 7.26 1 11 C0.34 11 -0.32 11 -1 11 C-2.13758 6.44968 -1.42838 4.36916 0 0 Z " fill="#040302" transform="translate(75,147)"/>
<path d="M0 0 C0.33 0 0.66 0 1 0 C1.1875 4.3125 1.1875 4.3125 1 9 C0.01 9.99 -0.98 10.98 -2 12 C-1.44687 7.97007 -0.84419 3.97977 0 0 Z " fill="#030101" transform="translate(182,149)"/>
<path d="M0 0 C1.04974 4.19895 0.72795 6.79406 0 11 C-2 9 -2 9 -2.25 6.0625 C-2 3 -2 3 0 0 Z " fill="#3F2811" transform="translate(100,139)"/>
<path d="M0 0 C2 2 2 2 3 6 C2.34 7.32 1.68 8.64 1 10 C-0.60139 6.79723 -0.0568 3.52144 0 0 Z " fill="#100F0F" transform="translate(172,205)"/>
<path d="M0 0 C0.99 0.66 1.98 1.32 3 2 C1.625 4.5 1.625 4.5 0 7 C-0.66 7 -1.32 7 -2 7 C-1.34 4.69 -0.68 2.38 0 0 Z " fill="#0E0503" transform="translate(179,160)"/>
<path d="M0 0 C0.33 0 0.66 0 1 0 C1.125 3.375 1.125 3.375 1 7 C0.34 7.66 -0.32 8.32 -1 9 C-2.0735 4.70601 -1.79683 3.80505 0 0 Z " fill="#090402" transform="translate(83,96)"/>
<path d="M0 0 C0.9075 0.22687 1.815 0.45375 2.75 0.6875 C-0.89418 3.11695 -2.96241 2.8493 -7.25 2.6875 C-3.25 -0.3125 -3.25 -0.3125 0 0 Z " fill="#080304" transform="translate(127.25,27.3125)"/>
</svg>
