<?xml version="1.0" encoding="UTF-8"?>
<!-- Generated by @neplex/vectorizer (Using visioncortex VTracer) -->
<svg version="1.1" xmlns="http://www.w3.org/2000/svg" width="250" height="250">
<path d="M0 0 C82.5 0 165 0 250 0 C250 82.5 250 165 250 250 C167.5 250 85 250 0 250 C0 167.5 0 85 0 0 Z " fill="#FDFDFC" transform="translate(0,0)"/>
<path d="M0 0 C82.5 0 165 0 250 0 C250 82.5 250 165 250 250 C167.5 250 85 250 0 250 C0 167.5 0 85 0 0 Z M55 42 C54.14664 42.68707 53.29328 43.37414 52.41406 44.08203 C30.33455 62.8531 19.39592 88.78335 16 117 C13.72466 146.69545 23.78054 174.08269 42.5 196.875 C59.76917 216.66609 85.35798 232.16362 112 234 C143.28971 235.22052 171.87011 228.9786 196 208 C197.76344 206.60781 197.76344 206.60781 199.5625 205.1875 C217.77422 188.30027 230.40157 163.73408 233 139 C234.01925 106.38399 229.14476 79.05854 207 54 C206.05125 52.80375 205.1025 51.6075 204.125 50.375 C185.37856 30.12885 158.72503 18.28309 131.375 16.58984 C102.28794 16.20269 77.69851 23.58481 55 42 Z " fill="#CD3A3A" transform="translate(0,0)"/>
<path d="M0 0 C8.14603 4.61096 19.33124 3.85769 28.33203 2.37891 C32.53757 1.20665 35.77851 -0.42861 39.4375 -2.8125 C46.52225 -6.9652 55.41598 -6.12671 63.21484 -4.53125 C71.65343 -1.65173 78.34899 4.53704 82.8125 12.125 C83.3075 13.3625 83.8025 14.6 84.3125 15.875 C84.6657 16.6407 85.01891 17.40641 85.38281 18.19531 C88.26329 26.49788 86.63732 35.61165 83.48047 43.57031 C82.3125 45.875 82.3125 45.875 79.3125 49.875 C79.01422 53.86734 78.86969 57.87194 78.8125 61.875 C78.53709 80.97 73.88231 94.64444 60.3125 107.875 C47.70403 119.59266 31.91303 123.13788 15.125 122.6875 C7.54549 122.55833 2.30616 122.52075 -3.6875 127.36719 C-10.48132 132.48909 -19.65296 131.50516 -27.6875 130.875 C-37.71595 128.56478 -45.61826 122.0133 -51.6875 113.875 C-56.90893 104.03269 -58.63346 93.40577 -55.81641 82.50391 C-53.8496 77.44181 -51.84795 73.83147 -47.875 70.125 C-44.37246 66.41461 -44.03994 63.29243 -43.8125 58.25 C-44.10563 50.70541 -46.46964 45.86492 -50.11328 39.39062 C-53.15029 32.60822 -52.86842 25.32466 -50.98047 18.21094 C-46.84827 7.97716 -39.74724 1.00935 -30.0625 -4 C-19.14677 -6.8069 -9.74385 -5.6151 0 0 Z " fill="#FCFDFB" transform="translate(107.6875,69.125)"/>
<path d="M0 0 C0.33 0 0.66 0 1 0 C1 38.94 1 77.88 1 118 C-81.5 118 -164 118 -249 118 C-249 80.38 -249 42.76 -249 4 C-248.67 4 -248.34 4 -248 4 C-247.81824 5.17176 -247.63648 6.34352 -247.44922 7.55078 C-246.06421 16.20885 -244.52003 24.59989 -242 33 C-240.87723 32.87496 -239.75445 32.74992 -238.59766 32.62109 C-233.62165 32.41965 -229.78414 32.56433 -225 34 C-221.75989 37.94566 -219.99639 41.82082 -217.96484 46.49609 C-215.21534 52.79863 -211.3734 57.74451 -207 63 C-206.21883 63.94488 -205.43766 64.88977 -204.63281 65.86328 C-188.89845 84.03571 -166.47955 95.60746 -143 100 C-142.12215 100.18434 -141.2443 100.36867 -140.33984 100.55859 C-112.14574 104.28483 -83.05075 97.53028 -59.99219 80.82031 C-57.60805 78.93435 -55.29856 76.98854 -53 75 C-51.48406 73.85531 -51.48406 73.85531 -49.9375 72.6875 C-38.43089 62.16018 -29.98273 48.28136 -24 34 C-18.06 34 -12.12 34 -6 34 C-3.34572 22.67506 -1.19795 11.56966 0 0 Z " fill="#773A77" transform="translate(249,132)"/>
<path d="M0 0 C8.14603 4.61096 19.33124 3.85769 28.33203 2.37891 C32.53757 1.20665 35.77851 -0.42861 39.4375 -2.8125 C46.52225 -6.9652 55.41598 -6.12671 63.21484 -4.53125 C71.65343 -1.65173 78.34899 4.53704 82.8125 12.125 C83.3075 13.3625 83.8025 14.6 84.3125 15.875 C84.6657 16.6407 85.01891 17.40641 85.38281 18.19531 C88.26329 26.49788 86.63732 35.61165 83.48047 43.57031 C82.3125 45.875 82.3125 45.875 79.3125 49.875 C79.01422 53.86734 78.86969 57.87194 78.8125 61.875 C78.53709 80.97 73.88231 94.64444 60.3125 107.875 C47.70403 119.59266 31.91303 123.13788 15.125 122.6875 C7.54549 122.55833 2.30616 122.52075 -3.6875 127.36719 C-10.48132 132.48909 -19.65296 131.50516 -27.6875 130.875 C-37.71595 128.56478 -45.61826 122.0133 -51.6875 113.875 C-56.90893 104.03269 -58.63346 93.40577 -55.81641 82.50391 C-53.8496 77.44181 -51.84795 73.83147 -47.875 70.125 C-44.37246 66.41461 -44.03994 63.29243 -43.8125 58.25 C-44.10563 50.70541 -46.46964 45.86492 -50.11328 39.39062 C-53.15029 32.60822 -52.86842 25.32466 -50.98047 18.21094 C-46.84827 7.97716 -39.74724 1.00935 -30.0625 -4 C-19.14677 -6.8069 -9.74385 -5.6151 0 0 Z M-40.5 18.4375 C-42.94155 25.50515 -42.59485 32.50941 -39.9375 39.4375 C-37.95029 42.81244 -37.95029 42.81244 -35.59375 44.69922 C-33.10519 47.53964 -33.09962 49.39633 -32.9375 53.125 C-32.88078 54.20266 -32.82406 55.28031 -32.76562 56.39062 C-32.72695 57.62039 -32.72695 57.62039 -32.6875 58.875 C-32.00043 58.71516 -31.31336 58.55531 -30.60547 58.39062 C-19.36577 56.40449 -8.65291 57.57913 1.0625 63.625 C5.65517 66.88221 9.76306 70.77611 12.3125 75.875 C15.12504 76.23165 17.91405 76.31913 20.74609 76.43359 C22.01646 76.65209 22.01646 76.65209 23.3125 76.875 C24.3025 78.36 24.3025 78.36 25.3125 79.875 C23.3125 83.875 23.3125 83.875 20.22656 85.21875 C19.26492 85.76531 18.30328 86.31187 17.3125 86.875 C16.51435 89.91115 16.51435 89.91115 16.6875 93.375 C16.52916 99.48043 15.4878 104.14723 13.15234 109.76562 C12.1892 111.80629 12.1892 111.80629 12.3125 113.875 C27.29273 114.81126 42.13425 110.37462 53.5625 100.625 C63.12196 91.53003 68.14958 81.26802 68.49219 67.82422 C68.28851 62.96985 68.08015 58.11568 67.86719 53.26172 C68.35407 46.27885 69.32308 44.50804 74.3125 39.875 C77.39741 33.70519 77.09845 27.65383 76.3125 20.875 C73.50085 13.53577 67.23923 8.33837 60.3125 4.875 C49.96441 3.66887 42.62664 5.41227 33.45703 10.24609 C25.22466 14.51057 15.30135 13.82085 6.3125 12.875 C1.77907 11.10425 -2.34631 8.95663 -6.64062 6.67578 C-21.4331 0.09342 -31.89774 6.27568 -40.5 18.4375 Z " fill="#F5F7FA" transform="translate(107.6875,69.125)"/>
<path d="M0 0 C8.14603 4.61096 19.33124 3.85769 28.33203 2.37891 C32.53757 1.20665 35.77851 -0.42861 39.4375 -2.8125 C46.52225 -6.9652 55.41598 -6.12671 63.21484 -4.53125 C71.65343 -1.65173 78.34899 4.53704 82.8125 12.125 C83.3075 13.3625 83.8025 14.6 84.3125 15.875 C84.6657 16.6407 85.01891 17.40641 85.38281 18.19531 C88.26329 26.49788 86.63732 35.61165 83.48047 43.57031 C82.3125 45.875 82.3125 45.875 79.3125 49.875 C79.01422 53.86734 78.86969 57.87194 78.8125 61.875 C78.61413 75.62861 76.26379 86.13505 69.3125 97.875 C65.3525 97.545 61.3925 97.215 57.3125 96.875 C59.46094 93.55469 59.46094 93.55469 61.60938 90.23438 C67.91923 77.78832 67.46556 66.90023 66.86719 53.26172 C67.35407 46.27885 68.32308 44.50804 73.3125 39.875 C76.39902 33.70197 76.0918 27.65702 75.3125 20.875 C73.93639 17.16003 72.10127 14.66377 69.3125 11.875 C68.69375 11.25625 68.075 10.6375 67.4375 10 C61.88502 5.45706 56.34108 4.94794 49.31641 5.20312 C43.47847 6.18276 38.66495 8.50071 33.45703 11.24609 C25.22466 15.51057 15.30135 14.82085 6.3125 13.875 C1.77907 12.10425 -2.34631 9.95663 -6.64062 7.67578 C-13.62602 4.56742 -21.03624 4.12194 -28.25781 6.84375 C-32.22411 9.12693 -35.18825 12.07984 -37.6875 15.875 C-38.55375 17.1125 -38.55375 17.1125 -39.4375 18.375 C-41.9635 25.44779 -41.60548 32.48171 -38.9375 39.4375 C-36.95546 42.83428 -36.95546 42.83428 -34.5 44.6875 C-31.41333 48.41279 -31.84943 53.17908 -31.6875 57.875 C-29.7075 57.38 -29.7075 57.38 -27.6875 56.875 C-14.94716 56.04062 -4.68495 57.59298 5.3125 65.875 C7.89365 68.43234 10.06122 71.00102 12.3125 73.875 C12.3125 74.535 12.3125 75.195 12.3125 75.875 C13.07176 75.82859 13.83102 75.78219 14.61328 75.73438 C15.60715 75.69828 16.60102 75.66219 17.625 75.625 C18.61113 75.57859 19.59727 75.53219 20.61328 75.48438 C23.3125 75.875 23.3125 75.875 26.3125 79.875 C24.50837 83.13961 23.47855 84.7643 20.3125 86.875 C19.3225 86.875 18.3325 86.875 17.3125 86.875 C17.3125 90.175 17.3125 93.475 17.3125 96.875 C14.3425 96.875 11.3725 96.875 8.3125 96.875 C8.23773 96.12477 8.16297 95.37453 8.08594 94.60156 C6.98515 86.03271 4.86075 78.79674 -1.87109 72.99219 C-9.33968 67.77803 -16.57257 65.52901 -25.6875 66.875 C-33.73166 69.71989 -39.97251 73.35203 -43.82812 81.19531 C-46.08493 86.39233 -47.26591 91.18356 -47.6875 96.875 C-50.6575 96.875 -53.6275 96.875 -56.6875 96.875 C-57.26442 88.10589 -56.09331 81.56335 -51.6875 73.875 C-50.45408 72.58807 -49.18371 71.33529 -47.875 70.125 C-44.37246 66.41461 -44.03994 63.29243 -43.8125 58.25 C-44.10563 50.70541 -46.46964 45.86492 -50.11328 39.39062 C-53.15029 32.60822 -52.86842 25.32466 -50.98047 18.21094 C-46.84827 7.97716 -39.74724 1.00935 -30.0625 -4 C-19.14677 -6.8069 -9.74385 -5.6151 0 0 Z " fill="#C47946" transform="translate(107.6875,69.125)"/>
<path d="M0 0 C37.62 0 75.24 0 114 0 C114 37.95 114 75.9 114 115 C113.67 115 113.34 115 113 115 C112.85305 113.83727 112.70609 112.67453 112.55469 111.47656 C107.87709 78.08818 92.24808 48.43221 66 27 C46.09738 12.05636 24.44414 4.4799 0 1 C0 0.67 0 0.34 0 0 Z " fill="#010000" transform="translate(136,0)"/>
<path d="M0 0 C0.33 0 0.66 0 1 0 C1 38.94 1 77.88 1 118 C-35.3 118 -71.6 118 -109 118 C-109 117.67 -109 117.34 -109 117 C-108.16082 116.86465 -107.32164 116.7293 -106.45703 116.58984 C-79.33717 111.73559 -56.94208 100.76902 -37 82 C-36.34645 81.4225 -35.69289 80.845 -35.01953 80.25 C-18.1965 64.71037 -8.50747 42.82072 -3 21 C-2.5875 19.41188 -2.175 17.82375 -1.75 16.1875 C-0.78695 10.81047 -0.35026 5.44744 0 0 Z " fill="#010002" transform="translate(249,132)"/>
<path d="M0 0 C37.62 0 75.24 0 114 0 C114 0.33 114 0.66 114 1 C112.83727 1.14695 111.67453 1.29391 110.47656 1.44531 C81.16444 5.55184 57.225 17.55879 36 38 C34.78312 39.11375 33.56625 40.2275 32.3125 41.375 C14.41428 60.96174 4.74286 86.06263 1 112 C0.67 112 0.34 112 0 112 C0 75.04 0 38.08 0 0 Z " fill="#020000" transform="translate(0,0)"/>
<path d="M0 0 C0.33 0 0.66 0 1 0 C1.15855 1.10215 1.31711 2.2043 1.48047 3.33984 C5.69812 30.76625 15.99463 55.39177 35 76 C35.99 76.66 36.98 77.32 38 78 C38 78.66 38 79.32 38 80 C39.32 80.66 40.64 81.32 42 82 C43.34278 83.17459 44.6528 84.38715 45.9375 85.625 C63.13299 101.11492 86.43012 109.50326 109 113 C109 113.33 109 113.66 109 114 C73.03 114 37.06 114 0 114 C0 76.38 0 38.76 0 0 Z " fill="#010002" transform="translate(0,136)"/>
<path d="M0 0 C21.04919 -1.96392 21.04919 -1.96392 27.50391 2.33203 C30.13085 5.7517 32.06582 9.14709 34 13 C35.16982 14.92973 35.16982 14.92973 36.36328 16.89844 C54.4626 47.0541 59.28558 80.78448 50.9375 114.875 C49.18699 121.62602 49.18699 121.62602 48 124 C42.39 124 36.78 124 31 124 C31.97656 120.19141 32.95312 116.38281 33.92969 112.57422 C41.43698 80.49014 37.02987 50.89802 20 23 C17.1771 19.16218 14.15147 15.56964 11 12 C10.11312 10.88625 9.22625 9.7725 8.3125 8.625 C5.77274 5.74202 2.97506 3.42156 0 1 C0 0.67 0 0.34 0 0 Z " fill="#D5763B" transform="translate(195,42)"/>
<path d="M0 0 C2.97 0 5.94 0 9 0 C9.20754 0.70125 9.41508 1.4025 9.62891 2.125 C12.51127 11.00123 16.05817 16.73924 24.25 21.4375 C31.75367 24.56403 37.93299 24.80711 45.75 22.75 C53.14232 19.7061 57.99894 16.19696 61.48438 8.88672 C61.90203 7.83098 62.31969 6.77523 62.75 5.6875 C63.17797 4.61887 63.60594 3.55023 64.04688 2.44922 C64.51867 1.23686 64.51867 1.23686 65 0 C67.97 0 70.94 0 74 0 C73.52447 6.53855 71.8182 11.18177 69 17 C90.8042 14.70934 90.8042 14.70934 108.875 3.1875 C112.33308 -0.09981 114.76231 -0.4486 119.5 -0.4375 C121.33575 -0.32617 123.17093 -0.19205 125 0 C121.84723 9.26328 113.46344 14.93911 105.19531 19.49609 C94.26425 24.64091 84.22735 26.10589 72.25 25.6875 C61.82061 25.60384 61.82061 25.60384 53 30.49219 C46.20618 35.61409 37.03454 34.63016 29 34 C18.97155 31.68978 11.06924 25.1383 5 17 C1.91208 11.53448 0.45605 6.27075 0 0 Z " fill="#504EBF" transform="translate(51,166)"/>
<path d="M0 0 C5.61 0 11.22 0 17 0 C16.55012 1.42441 16.10023 2.84883 15.63672 4.31641 C7.99299 30.85967 8.27741 55.83223 17 82 C11.39 82 5.78 82 0 82 C-9.78855 58.69392 -9.34167 31.0729 -3 7 C-2.01 4.69 -1.02 2.38 0 0 Z " fill="#D0D53D" transform="translate(7,84)"/>
<path d="M0 0 C2.97 0 5.94 0 9 0 C9 0.99 9 1.98 9 3 C10.27617 2.51467 10.27617 2.51467 11.57812 2.01953 C21.44588 -0.92052 32.33718 0.47068 41.36719 5.25391 C46.95589 8.70686 50.95804 12.84005 55 18 C55 18.66 55 19.32 55 20 C55.75926 19.95359 56.51852 19.90719 57.30078 19.85938 C58.29465 19.82328 59.28852 19.78719 60.3125 19.75 C61.7917 19.68039 61.7917 19.68039 63.30078 19.60938 C66 20 66 20 69 24 C67.19587 27.26461 66.16605 28.8893 63 31 C62.01 31 61.02 31 60 31 C60 34.3 60 37.6 60 41 C57.03 41 54.06 41 51 41 C50.88785 39.87465 50.88785 39.87465 50.77344 38.72656 C49.67265 30.15771 47.54825 22.92174 40.81641 17.11719 C33.34782 11.90303 26.11493 9.65401 17 11 C8.95584 13.84489 2.71499 17.47703 -1.14062 25.32031 C-3.39743 30.51733 -4.57841 35.30856 -5 41 C-7.97 41 -10.94 41 -14 41 C-14.6309 31.41028 -13.34302 23.10223 -6.92188 15.55859 C-5.50793 14.09633 -4.09139 12.63656 -2.67188 11.17969 C0.09073 7.57797 0 4.45111 0 0 Z " fill="#499D4B" transform="translate(65,125)"/>
<path d="M0 0 C3.63 0 7.26 0 11 0 C15.20355 7.37014 15.22833 15.04453 13.20312 23.21484 C11.59123 27.83353 9.97156 31.03792 7 35 C6.70172 38.99234 6.55719 42.99694 6.5 47 C6.30163 60.75361 3.95129 71.26005 -3 83 C-6.96 82.67 -10.92 82.34 -15 82 C-13.56771 79.78646 -12.13542 77.57292 -10.70312 75.35938 C-4.39327 62.91332 -4.84694 52.02523 -5.44531 38.38672 C-4.95843 31.40385 -3.98942 29.63304 1 25 C3.1624 20.67521 3.29823 18.39256 3.3125 13.625 C3.32926 12.33852 3.34602 11.05203 3.36328 9.72656 C2.98133 5.80851 1.97713 3.36998 0 0 Z " fill="#D1D641" transform="translate(180,84)"/>
<path d="M0 0 C2.2159 0.0116 4.4318 0.0232 6.71484 0.03516 C8.93332 0.04418 11.1518 0.0532 13.4375 0.0625 C15.1584 0.0741 16.8793 0.0857 18.65234 0.09766 C17.92402 0.82211 17.1957 1.54656 16.44531 2.29297 C4.56704 14.22108 -4.5726 27.16136 -12.34766 42.09766 C-17.95766 42.09766 -23.56766 42.09766 -29.34766 42.09766 C-25.25842 29.47437 -15.26188 0.2787 0 0 Z " fill="#D6773B" transform="translate(36.34765625,41.90234375)"/>
<path d="M0 0 C5.94 0 11.88 0 18 0 C14.67859 9.15904 11.01006 17.64057 6 26 C5.21496 27.44375 4.42992 28.8875 3.62109 30.375 C0.71536 35.07047 -1.70503 38.50869 -6 42 C-13.19422 43.33666 -19.77466 42.9742 -27 42 C-27 39 -27 39 -25.0625 36.9375 C-24.05187 35.96812 -23.04125 34.99875 -22 34 C-12.15668 23.98826 -5.49138 12.87042 0 0 Z " fill="#504FD7" transform="translate(225,166)"/>
<path d="M0 0 C5.61 0 11.22 0 17 0 C17.54527 1.08797 18.09055 2.17594 18.65234 3.29688 C25.38214 16.41134 32.98283 27.16462 43.12891 37.82031 C45 40 45 40 45 42 C26.7197 43.65274 26.7197 43.65274 20.95312 40.14844 C18.54474 37.23904 16.79773 34.32341 15 31 C13.72963 28.97359 13.72963 28.97359 12.43359 26.90625 C0 6.78084 0 6.78084 0 0 Z " fill="#514FD4" transform="translate(7,166)"/>
<path d="M0 0 C2.64 0 5.28 0 8 0 C9.46827 3.42595 10.25386 6.26931 11 10 C12.32 6.7 13.64 3.4 15 0 C17.64 0 20.28 0 23 0 C24.19287 3.87684 25 6.91622 25 11 C25.66 11 26.32 11 27 11 C27.12375 9.74187 27.2475 8.48375 27.375 7.1875 C28 3 28 3 30 0 C33.625 -0.1875 33.625 -0.1875 37 0 C38.49236 5.96944 36.37967 10.34437 34.625 16.1875 C33.97789 18.3673 33.33078 20.54711 32.66406 22.79297 C31 28 31 28 30 29 C27.33365 29.04102 24.66633 29.04232 22 29 C20.53173 25.57405 19.74614 22.73069 19 19 C18.01 22.3 17.02 25.6 16 29 C13.03 29 10.06 29 7 29 C4.95518 23.08078 3.07705 17.11507 1.25 11.125 C0.80141 9.6632 0.35281 8.20141 -0.10938 6.69531 C-1 3 -1 3 0 0 Z " fill="#4D9C4F" transform="translate(69,150)"/>
<path d="M0 0 C0.33 0 0.66 0 1 0 C1.36355 16.31933 1.49899 36.00202 -6 51 C-11.61 51 -17.22 51 -23 51 C-22.13375 47.81344 -22.13375 47.81344 -21.25 44.5625 C-18.38154 33.18084 -16.73603 21.59817 -15 10 C-10.05 10 -5.1 10 0 10 C0 6.7 0 3.4 0 0 Z " fill="#489F45" transform="translate(249,115)"/>
<path d="M0 0 C7.17852 3.93898 11.04438 8.93602 14.28516 16.25391 C13.62516 17.57391 12.96516 18.89391 12.28516 20.25391 C11.62516 18.27391 10.96516 16.29391 10.28516 14.25391 C9.29516 15.24391 8.30516 16.23391 7.28516 17.25391 C7.28516 15.93391 7.28516 14.61391 7.28516 13.25391 C4.31516 13.25391 1.34516 13.25391 -1.71484 13.25391 C-2.70484 16.55391 -3.69484 19.85391 -4.71484 23.25391 C-5.37484 23.25391 -6.03484 23.25391 -6.71484 23.25391 C-7.90772 19.37707 -8.71484 16.33769 -8.71484 12.25391 C-11.35484 12.58391 -13.99484 12.91391 -16.71484 13.25391 C-17.70484 16.88391 -18.69484 20.51391 -19.71484 24.25391 C-22.80831 21.16044 -22.87632 17.44652 -23.71484 13.25391 C-26.35484 13.25391 -28.99484 13.25391 -31.71484 13.25391 C-31.38484 15.56391 -31.05484 17.87391 -30.71484 20.25391 C-31.37484 20.25391 -32.03484 20.25391 -32.71484 20.25391 C-33.70484 18.27391 -34.69484 16.29391 -35.71484 14.25391 C-38.34013 19.61863 -39.25771 24.31123 -39.71484 30.25391 C-40.04484 30.25391 -40.37484 30.25391 -40.71484 30.25391 C-41.25906 20.73014 -39.59777 13.55898 -33.65234 5.94141 C-24.47474 -3.70584 -11.86739 -5.39769 0 0 Z " fill="#F5FCF4" transform="translate(100.71484375,137.74609375)"/>
<path d="M0 0 C5.61 0 11.22 0 17 0 C22.00075 14.0021 23.31742 26.11651 23 41 C18.05 41 13.1 41 8 41 C8 43.64 8 46.28 8 49 C7.67 49 7.34 49 7 49 C6.94393 46.77057 6.94393 46.77057 6.88672 44.49609 C6.40918 29.97328 5.46456 16.53129 0 3 C0 2.01 0 1.02 0 0 Z " fill="#D0D545" transform="translate(226,84)"/>
<path d="M0 0 C5.28 0 10.56 0 16 0 C16.2475 2.26875 16.495 4.5375 16.75 6.875 C18.19497 18.4864 20.78789 29.75761 24 41 C18.39 41 12.78 41 7 41 C1.50836 27.92466 -0.17594 14.07529 0 0 Z " fill="#47A148" transform="translate(0,125)"/>
<path d="M0 0 C3.63 0 7.26 0 11 0 C10.505 0.88688 10.01 1.77375 9.5 2.6875 C6.90021 10.16189 6.91484 17.17084 9.75 24.5625 C11.73608 27.94453 11.73608 27.94453 14.125 29.82422 C16.63314 32.73471 16.41437 34.4695 16.25 38.25 C16.21391 39.32766 16.17781 40.40531 16.14062 41.51562 C16.07102 42.74539 16.07102 42.74539 16 44 C15.67 43.01 15.34 42.02 15 41 C12.03 41 9.06 41 6 41 C6 43.97 6 46.94 6 50 C5.67 50 5.34 50 5 50 C5.00902 49.07961 5.01805 48.15922 5.02734 47.21094 C4.85418 39.81768 4.11662 34.48296 0.4375 28 C-3.58273 20.73553 -4.30756 14.18646 -3 6 C-1.46094 2.5625 -1.46094 2.5625 0 0 Z " fill="#D1D543" transform="translate(59,84)"/>
<path d="M0 0 C3.3 0 6.6 0 10 0 C10.46464 16.45161 9.3952 27.82144 1 42 C-2.96 41.67 -6.92 41.34 -11 41 C-10.0925 39.5975 -9.185 38.195 -8.25 36.75 C-1.21748 24.82963 -0.28745 13.7403 0 0 Z " fill="#4A9F4B" transform="translate(176,125)"/>
<path d="M0 0 C3.62011 2.33296 5.89022 4.96795 7.8125 8.8125 C8.28775 16.17884 8.28775 16.17884 4.8125 20.8125 C0.02982 20.29303 -2.93524 18.19169 -6.8125 15.4375 C-7.93914 14.64602 -9.06578 13.85453 -10.22656 13.03906 C-13.1875 10.8125 -13.1875 10.8125 -16.1875 7.8125 C-16.375 4.625 -16.375 4.625 -16.1875 1.8125 C-10.52008 -1.50501 -6.23925 -2.32443 0 0 Z " fill="#D1D63D" transform="translate(166.1875,85.1875)"/>
<path d="M0 0 C1.32 0.99 2.64 1.98 4 3 C3.38136 8.08855 1.20732 10.05312 -2.74609 13.28516 C-11.2264 19.73724 -11.2264 19.73724 -16.375 20.5 C-17.24125 20.335 -18.1075 20.17 -19 20 C-21.51475 16.22787 -21.44796 14.47964 -21 10 C-19.1838 5.71377 -17.51307 3.41046 -13.875 0.5 C-8.57199 -1.55278 -5.58067 -1.08714 0 0 Z " fill="#D1D541" transform="translate(96,85)"/>
<path d="M0 0 C0.66 0 1.32 0 2 0 C2 1.32 2 2.64 2 4 C5.96 4 9.92 4 14 4 C14 4.66 14 5.32 14 6 C15.09312 5.835 16.18625 5.67 17.3125 5.5 C21 5 21 5 24 5 C24 4.34 24 3.68 24 3 C25.98 3 27.96 3 30 3 C30 2.34 30 1.68 30 1 C33.465 0.505 33.465 0.505 37 0 C32.87635 8.2473 32.87635 8.2473 27.60156 10.36328 C6.0266 15.5133 6.0266 15.5133 -1 12 C-2.65 12 -4.3 12 -6 12 C-6.33 11.01 -6.66 10.02 -7 9 C-8.32 8.34 -9.64 7.68 -11 7 C-10.2575 6.56688 -9.515 6.13375 -8.75 5.6875 C-5.71993 3.8868 -5.71993 3.8868 -2 1 C-1.67 1.33 -1.34 1.66 -1 2 C-0.67 1.34 -0.34 0.68 0 0 Z " fill="#514FD4" transform="translate(118,178)"/>
<path d="M0 0 C9.9 0 19.8 0 30 0 C27 12 27 12 26 13 C23.33365 13.04102 20.66633 13.04232 18 13 C16.53173 9.57405 15.74614 6.73069 15 3 C14.01 6.3 13.02 9.6 12 13 C9.03 13 6.06 13 3 13 C0 4.5 0 4.5 0 0 Z " fill="#4953A9" transform="translate(73,166)"/>
<path d="M0 0 C0.99 0.33 1.98 0.66 3 1 C3 1.99 3 2.98 3 4 C2.34 4 1.68 4 1 4 C1 4.99 1 5.98 1 7 C-1.97 7.66 -4.94 8.32 -8 9 C-8 9.99 -8 10.98 -8 12 C-11.28519 13.09506 -13.73663 13.09961 -17.1875 13.0625 C-18.81752 13.04896 -18.81752 13.04896 -20.48047 13.03516 C-21.31191 13.02355 -22.14336 13.01195 -23 13 C-23 12.67 -23 12.34 -23 12 C-23.81984 11.89043 -24.63969 11.78086 -25.48438 11.66797 C-26.56203 11.50941 -27.63969 11.35086 -28.75 11.1875 C-30.35102 10.96127 -30.35102 10.96127 -31.98438 10.73047 C-36.76149 9.57332 -39.68367 6.43477 -43 3 C-42.67 2.34 -42.34 1.68 -42 1 C-38.47448 1.4317 -35.24529 1.9166 -31.875 3.0625 C-22.55096 5.31832 -12.24622 4.3776 -3 2 C-2.01 1.34 -1.02 0.68 0 0 Z " fill="#D5773C" transform="translate(145,70)"/>
<path d="M0 0 C5.85924 0.01335 11.52165 0.0569 17.30469 1.13281 C17.30469 1.79281 17.30469 2.45281 17.30469 3.13281 C18.10906 3.25656 18.91344 3.38031 19.74219 3.50781 C20.58781 3.71406 21.43344 3.92031 22.30469 4.13281 C22.63469 4.79281 22.96469 5.45281 23.30469 6.13281 C24.62469 6.79281 25.94469 7.45281 27.30469 8.13281 C35.06438 13.17157 35.06438 13.17157 36.30469 18.13281 C26.91516 19.35532 26.91516 19.35532 23.05078 16.42188 C20.7848 13.8011 18.85533 11.2341 17.30469 8.13281 C12.79718 6.74117 8.16639 7.03463 3.49219 7.07031 C1.95949 7.07934 0.4268 7.08836 -1.15234 7.09766 C-2.90611 7.11506 -2.90611 7.11506 -4.69531 7.13281 C-3.65984 0.18034 -3.65984 0.18034 0 0 Z " fill="#DA773B" transform="translate(154.6953125,65.8671875)"/>
<path d="M0 0 C2.97 0 5.94 0 9 0 C9.25395 0.72445 9.50789 1.44891 9.76953 2.19531 C12.68331 11.28541 12.68331 11.28541 18 19 C18 19.99 18 20.98 18 22 C19.98 22.33 21.96 22.66 24 23 C23.67 24.98 23.34 26.96 23 29 C18.5497 28.50377 16.50566 27.01139 13.3125 23.9375 C10.60134 20.93269 10.60134 20.93269 7 20 C0.29613 7.69932 0.29613 7.69932 0 0 Z " fill="#5250D5" transform="translate(51,166)"/>
<path d="M0 0 C3.125 2.25 3.125 2.25 5 5 C4.8125 7.8125 4.8125 7.8125 4 10 C-2.79102 12.08954 -8.97871 12.21064 -16 12 C-16.23193 7.63598 -16.27032 6.37702 -13.625 2.6875 C-9.099 -1.94627 -6.30746 -1.17739 0 0 Z " fill="#499F4A" transform="translate(152,134)"/>
<path d="M0 0 C1.70156 0.83531 1.70156 0.83531 3.4375 1.6875 C3.9325 3.1725 3.9325 3.1725 4.4375 4.6875 C3.1175 5.0175 1.7975 5.3475 0.4375 5.6875 C-0.31918 6.03555 -1.07586 6.38359 -1.85547 6.74219 C-5.30521 7.94686 -8.23079 7.88062 -11.875 7.8125 C-13.12926 7.79445 -14.38352 7.77641 -15.67578 7.75781 C-16.6284 7.73461 -17.58102 7.71141 -18.5625 7.6875 C-18.5625 6.6975 -18.5625 5.7075 -18.5625 4.6875 C-22.3355 5.70723 -23.36456 6.34623 -25.375 9.8125 C-25.76687 10.76125 -26.15875 11.71 -26.5625 12.6875 C-29.0375 11.6975 -29.0375 11.6975 -31.5625 10.6875 C-31.2325 9.0375 -30.9025 7.3875 -30.5625 5.6875 C-29.10844 5.34719 -29.10844 5.34719 -27.625 5 C-24.25324 3.91066 -22.17142 2.89748 -19.25 1.0625 C-12.73095 -2.68484 -7.19216 -2.06898 0 0 Z " fill="#D47841" transform="translate(100.5625,65.3125)"/>
<path d="M0 0 C4.5916 2.93524 8.47832 6.65486 12.32812 10.48828 C11.99813 11.14828 11.66813 11.80828 11.32812 12.48828 C10.235 11.49828 9.14187 10.50828 8.01562 9.48828 C4.73255 6.17274 4.73255 6.17274 1.32812 6.48828 C0.83312 5.00328 0.83312 5.00328 0.32812 3.48828 C-0.99187 3.15828 -2.31187 2.82828 -3.67188 2.48828 C-3.67188 1.82828 -3.67188 1.16828 -3.67188 0.48828 C-10.27187 0.48828 -16.87187 0.48828 -23.67188 0.48828 C-24.33187 2.46828 -24.99187 4.44828 -25.67188 6.48828 C-25.01188 6.15828 -24.35188 5.82828 -23.67188 5.48828 C-21.25759 5.3641 -18.83932 5.31263 -16.42188 5.30078 C-15.11734 5.2866 -13.81281 5.27242 -12.46875 5.25781 C-8.75098 5.48348 -6.03935 5.90915 -2.67188 7.48828 C-2.01188 8.80828 -1.35188 10.12828 -0.67188 11.48828 C-5.42188 9.61328 -5.42188 9.61328 -7.67188 8.48828 C-19.33 7.12945 -27.53292 9.85073 -37.67188 15.48828 C-38.00188 14.49828 -38.33187 13.50828 -38.67188 12.48828 C-35.23667 10.19814 -33.68654 10.30985 -29.67188 10.48828 C-29.67188 9.49828 -29.67188 8.50828 -29.67188 7.48828 C-29.01188 7.48828 -28.35188 7.48828 -27.67188 7.48828 C-28.00188 6.49828 -28.33187 5.50828 -28.67188 4.48828 C-30.32188 4.81828 -31.97188 5.14828 -33.67188 5.48828 C-32.36723 1.57436 -30.2305 0.39179 -26.66406 -1.48828 C-18.30878 -4.34609 -8.00613 -3.74436 0 0 Z " fill="#C87B49" transform="translate(175.671875,66.51171875)"/>
<path d="M0 0 C3 4 3 4 2.8125 6.375 C2.24758 8.20011 1.64005 10.01236 1 11.8125 C-0.16545 15.52737 -0.60013 19.13457 -1 23 C-3.97 23 -6.94 23 -10 23 C-10.3913 10.78261 -10.3913 10.78261 -8 6 C-6.68 5.01 -5.36 4.02 -4 3 C-3.34 3.33 -2.68 3.66 -2 4 C-1.34 2.68 -0.68 1.36 0 0 Z " fill="#4C9C50" transform="translate(61,143)"/>
<path d="M0 0 C3.63 0 7.26 0 11 0 C15.20355 7.37014 15.22833 15.04453 13.20312 23.21484 C11.59123 27.83353 9.97156 31.03792 7 35 C6.27955 38.15118 6.27955 38.15118 6 41 C2.7 41 -0.6 41 -4 41 C-4.33 41.66 -4.66 42.32 -5 43 C-5.60119 36.84338 -5.88416 33.21091 -2.125 28.0625 C-1.09375 27.05187 -0.0625 26.04125 1 25 C3.1624 20.67521 3.29823 18.39256 3.3125 13.625 C3.32926 12.33852 3.34602 11.05203 3.36328 9.72656 C2.98133 5.80851 1.97713 3.36998 0 0 Z M6 2 C5.96262 2.87141 5.92523 3.74281 5.88672 4.64062 C5.44941 12.56369 4.9742 20.55848 2 28 C0.36345 29.37013 -1.29804 30.71203 -3 32 C-3.41747 36.16769 -3.41747 36.16769 -3 40 C-0.36 40 2.28 40 5 40 C5.66 36.37 6.32 32.74 7 29 C7.66 29 8.32 29 9 29 C12.11188 21.69263 13.4609 15.95056 13 8 C12.34 8 11.68 8 11 8 C11 6.02 11 4.04 11 2 C9.35 2 7.7 2 6 2 Z " fill="#CED05D" transform="translate(180,84)"/>
<path d="M0 0 C1.13438 0.9075 2.26875 1.815 3.4375 2.75 C11.74116 8.9014 18.82091 10.65553 29 11 C29 11.33 29 11.66 29 12 C28.10797 12.04898 27.21594 12.09797 26.29688 12.14844 C25.12641 12.2232 23.95594 12.29797 22.75 12.375 C21.00977 12.47941 21.00977 12.47941 19.23438 12.58594 C15.74676 12.8516 15.74676 12.8516 12 15 C12.33 15.66 12.66 16.32 13 17 C15.87479 17.05424 18.74988 17.0929 21.625 17.125 C23.22602 17.1482 24.82703 17.17141 26.47656 17.19531 C31.26119 16.98872 34.75647 16.12176 39 14 C39.66 14.66 40.32 15.32 41 16 C31.71176 20.64412 22.23575 21.69469 12.03125 19.30469 C4.95506 16.70572 -0.69392 12.30608 -6 7 C-5.67 6.34 -5.34 5.68 -5 5 C-4.40832 5.5543 -3.81664 6.10859 -3.20703 6.67969 C-2.02174 7.76637 -2.02174 7.76637 -0.8125 8.875 C-0.0352 9.5943 0.74211 10.31359 1.54297 11.05469 C3.9769 12.98171 6.07537 14.013 9 15 C9 13.35 9 11.7 9 10 C8.23687 9.77312 7.47375 9.54625 6.6875 9.3125 C3.40616 7.70998 2.57963 6.23824 1 3 C0.67 2.01 0.34 1.02 0 0 Z " fill="#504EB5" transform="translate(65,180)"/>
<path d="M0 0 C2.64 0 5.28 0 8 0 C9.58001 4.83878 10.20767 8.91207 10 14 C5.71 14 1.42 14 -3 14 C-2.14286 4.42857 -2.14286 4.42857 0 0 Z " fill="#489F4A" transform="translate(84,150)"/>
<path d="M0 0 C3.3 0 6.6 0 10 0 C9.34 1.32 8.68 2.64 8 4 C8.99 4.33 9.98 4.66 11 5 C6.7786 9.2214 0.44503 8.16473 -5.1875 8.1875 C-7.59096 8.20877 -7.59096 8.20877 -10.04297 8.23047 C-14 8 -14 8 -16 6 C-15.67 5.01 -15.34 4.02 -15 3 C-10.05 2.34 -5.1 1.68 0 1 C0 0.67 0 0.34 0 0 Z " fill="#5050D5" transform="translate(92,190)"/>
<path d="M0 0 C2.97 0 5.94 0 9 0 C8.55719 6.19931 7.00514 10.57136 4 16 C3.67 15.34 3.34 14.68 3 14 C3.33 13.34 3.66 12.68 4 12 C3.34 12 2.68 12 2 12 C1.67 12.99 1.34 13.98 1 15 C-2.5625 16.1875 -2.5625 16.1875 -6 17 C-4.12303 11.2797 -2.14811 5.62601 0 0 Z " fill="#5052C0" transform="translate(116,166)"/>
<path d="M0 0 C-5.31224 3.10562 -9.95792 5.5859 -16 7 C-16.33 8.32 -16.66 9.64 -17 11 C-14.525 11.99 -14.525 11.99 -12 13 C-14 17 -14 17 -16 19 C-18.60156 19.19531 -18.60156 19.19531 -21.625 19.125 C-23.12934 19.09793 -23.12934 19.09793 -24.66406 19.07031 C-25.43492 19.04711 -26.20578 19.02391 -27 19 C-24.28001 11.27522 -18.97232 5.66907 -11.6875 2 C-4.67747 -1.16937 -4.67747 -1.16937 0 0 Z " fill="#D77940" transform="translate(86,65)"/>
<path d="M0 0 C0.99 0.33 1.98 0.66 3 1 C1.76302 3.18099 0.52604 5.36198 -0.71094 7.54297 C-4.59232 14.94111 -5.10132 21.70394 -4 30 C-2.48674 33.56806 -2.48674 33.56806 -0.5 36.9375 C3.72237 44.52914 4.66824 51.44442 3 60 C1.02743 63.52878 -0.89638 65.2646 -4 68 C-4.99 69.32 -5.98 70.64 -7 72 C-6.51541 66.83104 -3.96007 63.15819 -1 59 C-0.01 59 0.98 59 2 59 C1.88567 56.74943 1.75814 54.49953 1.625 52.25 C1.55539 50.99703 1.48578 49.74406 1.41406 48.45312 C1.17048 44.77839 1.17048 44.77839 -1 41 C-1.66 41 -2.32 41 -3 41 C-3.33 39.35 -3.66 37.7 -4 36 C-4.66 36 -5.32 36 -6 36 C-6.08141 32.3337 -6.13937 28.66688 -6.1875 25 C-6.2223 22.95812 -6.25711 20.91625 -6.29297 18.8125 C-6.02219 13.4403 -5.21829 9.84415 -3 5 C-2.34 5 -1.68 5 -1 5 C-0.67 3.35 -0.34 1.7 0 0 Z " fill="#FAFAC6" transform="translate(61,75)"/>
<path d="M0 0 C2.31 0 4.62 0 7 0 C7 1.65 7 3.3 7 5 C6.67 5.33 6.34 5.66 6 6 C5.60251 8.34724 5.25631 10.70329 4.9375 13.0625 C4.7609 14.35285 4.5843 15.6432 4.40234 16.97266 C4.26957 17.97168 4.1368 18.9707 4 20 C2.68 20.33 1.36 20.66 0 21 C-1.99924 19.00076 -1.40666 15.08681 -1.5625 12.4375 C-1.64629 11.05434 -1.73008 9.67117 -1.81641 8.24609 C-1.87699 7.17488 -1.93758 6.10367 -2 5 C-1.67 5 -1.34 5 -1 5 C-0.67 3.35 -0.34 1.7 0 0 Z " fill="#D1D63F" transform="translate(59,86)"/>
<path d="M0 0 C2.97 0 5.94 0 9 0 C9 0.99 9 1.98 9 3 C6.36 2.67 3.72 2.34 1 2 C0.95875 3.5675 0.9175 5.135 0.875 6.75 C0.8402 8.07258 0.8402 8.07258 0.80469 9.42188 C0.86359 12.3578 0.86359 12.3578 3 16 C1.95206 20.19175 1.08236 21.21593 -2 24 C-2.33 22.68 -2.66 21.36 -3 20 C-3.33 19.67 -3.66 19.34 -4 19 C-4.66 20.32 -5.32 21.64 -6 23 C-6.99 23 -7.98 23 -9 23 C-9.66 23.33 -10.32 23.66 -11 24 C-10.05147 19.37591 -8.15344 16.96673 -4.9375 13.6875 C-0.66056 9.13986 0 6.16913 0 0 Z " fill="#4B9B4B" transform="translate(65,125)"/>
<path d="M0 0 C0 0.99 0 1.98 0 3 C-1.05187 3.26812 -2.10375 3.53625 -3.1875 3.8125 C-8.70828 6.98016 -10.31919 10.97774 -12 17 C-12.6167 22.83382 -12.26845 28.28158 -11 34 C-10.34 34 -9.68 34 -9 34 C-8.34 35.32 -7.68 36.64 -7 38 C-7.33 38.99 -7.66 39.98 -8 41 C-14.65979 33.61632 -16.55295 29.13606 -16.375 19.29297 C-15.60103 12.4965 -12.34589 7.95423 -7.3125 3.5 C-2.675 0 -2.675 0 0 0 Z " fill="#FBFAD7" transform="translate(82,75)"/>
<path d="M0 0 C0.33 0.66 0.66 1.32 1 2 C-0.68475 5.36949 -1.81917 6.87944 -5 9 C-5.99 9 -6.98 9 -8 9 C-8 12.3 -8 15.6 -8 19 C-10.64 19 -13.28 19 -16 19 C-16 18.34 -16 17.68 -16 17 C-14.02 16.67 -12.04 16.34 -10 16 C-9.67 12.7 -9.34 9.4 -9 6 C-9.99 6 -10.98 6 -12 6 C-12 4.68 -12 3.36 -12 2 C-7.60418 -2.39582 -5.58226 -2.79113 0 0 Z " fill="#4B9E4B" transform="translate(133,147)"/>
<path d="M0 0 C5.61 0 11.22 0 17 0 C16.54625 1.44375 16.0925 2.8875 15.625 4.375 C14.06827 9.5395 12.98456 14.69855 12 20 C11.34 19.34 10.68 18.68 10 18 C10.24219 14.30469 10.24219 14.30469 10.875 9.875 C11.07867 8.40805 11.28234 6.94109 11.49219 5.42969 C11.65977 4.29789 11.82734 3.16609 12 2 C8.7 1.67 5.4 1.34 2 1 C1.71125 2.29937 1.4225 3.59875 1.125 4.9375 C0.94195 5.75605 0.75891 6.57461 0.57031 7.41797 C0.03124 9.85858 -0.48509 12.30418 -1 14.75 C-1.77593 18.0477 -2.61297 20.92873 -4 24 C-4.66 24 -5.32 24 -6 24 C-5.57347 21.31074 -5.13328 18.62364 -4.6875 15.9375 C-4.44387 14.4409 -4.20023 12.9443 -3.94922 11.40234 C-3 7 -3 7 0 0 Z " fill="#D6D056" transform="translate(7,84)"/>
<path d="M0 0 C3.63 0 7.26 0 11 0 C12.22019 4.88075 11.1242 6.58166 9 11 C6.36 11 3.72 11 1 11 C-0.79132 6.46901 -1.00365 5.01823 0 0 Z " fill="#4F50C5" transform="translate(90,168)"/>
<path d="M0 0 C6.27 0 12.54 0 19 0 C19 0.33 19 0.66 19 1 C17.83727 1.14695 16.67453 1.29391 15.47656 1.44531 C-6.48973 4.52272 -25.26781 12.29238 -44 24 C-44 23.01 -44 22.02 -44 21 C-41 19 -41 19 -38 19 C-38 18.34 -38 17.68 -38 17 C-37.01 17 -36.02 17 -35 17 C-35 16.34 -35 15.68 -35 15 C-33.68 15 -32.36 15 -31 15 C-31 14.34 -31 13.68 -31 13 C-29.37673 12.32913 -27.75132 11.66343 -26.125 11 C-25.22008 10.62875 -24.31516 10.2575 -23.38281 9.875 C-21 9 -21 9 -19 9 C-19 8.34 -19 7.68 -19 7 C-16.77156 6.35167 -14.54222 5.70644 -12.3125 5.0625 C-11.07113 4.70285 -9.82977 4.3432 -8.55078 3.97266 C-5.7036 3.19274 -2.90198 2.52713 0 2 C0 1.34 0 0.68 0 0 Z " fill="#2A0202" transform="translate(95,0)"/>
<path d="M0 0 C0.33 0 0.66 0 1 0 C1.02578 0.84562 1.05156 1.69125 1.07812 2.5625 C1.43138 9.62756 2.11075 14.88831 6 21 C6.69996 21.60199 7.39992 22.20398 8.12109 22.82422 C10.6342 25.7344 10.41449 27.46677 10.25 31.25 C10.21391 32.32766 10.17781 33.40531 10.14062 34.51562 C10.07102 35.74539 10.07102 35.74539 10 37 C9.505 35.515 9.505 35.515 9 34 C6.03 34 3.06 34 0 34 C0 36.97 0 39.94 0 43 C-0.33 43 -0.66 43 -1 43 C-1.33 36.73 -1.66 30.46 -2 24 C-0.22294 26.66559 0.87548 29.02806 2 32 C3.98 32 5.96 32 8 32 C7.40372 29.31672 6.73358 26.64904 6 24 C5.34 23.67 4.68 23.34 4 23 C4 22.01 4 21.02 4 20 C3.34 20 2.68 20 2 20 C-1.9974 14.17046 -1.50517 7.79058 -1 1 C-0.67 0.67 -0.34 0.34 0 0 Z " fill="#BED266" transform="translate(65,91)"/>
<path d="M0 0 C3.625 -0.1875 3.625 -0.1875 7 0 C8.10192 4.40768 7.58707 5.89229 6 10 C5.34 10 4.68 10 4 10 C4 10.99 4 11.98 4 13 C1.69 13 -0.62 13 -3 13 C-2.25 3.375 -2.25 3.375 0 0 Z " fill="#4F9B4F" transform="translate(99,150)"/>
<path d="M0 0 C3.62011 2.33296 5.89022 4.96795 7.8125 8.8125 C8.28775 16.17884 8.28775 16.17884 4.8125 20.8125 C0.02982 20.29303 -2.93524 18.19169 -6.8125 15.4375 C-7.93914 14.64602 -9.06578 13.85453 -10.22656 13.03906 C-13.1875 10.8125 -13.1875 10.8125 -16.1875 7.8125 C-16.375 4.625 -16.375 4.625 -16.1875 1.8125 C-10.52008 -1.50501 -6.23925 -2.32443 0 0 Z M-15.1875 3.8125 C-13.75616 9.53787 -11.01121 10.54722 -6.1875 13.8125 C-5.5275 13.8125 -4.8675 13.8125 -4.1875 13.8125 C-4.1875 14.4725 -4.1875 15.1325 -4.1875 15.8125 C-0.38707 17.54984 1.40965 17.8125 5.8125 17.8125 C6.54045 13.60656 6.86224 11.01145 5.8125 6.8125 C5.1525 6.8125 4.4925 6.8125 3.8125 6.8125 C3.1525 5.4925 2.4925 4.1725 1.8125 2.8125 C-4.04421 -0.53419 -9.8037 -0.10299 -15.1875 3.8125 Z " fill="#CDD265" transform="translate(166.1875,85.1875)"/>
<path d="M0 0 C1.65 0.66 3.3 1.32 5 2 C5 2.33 5 2.66 5 3 C3.7625 3.22688 2.525 3.45375 1.25 3.6875 C-3.35701 5.11025 -4.66064 5.88272 -7 10 C-7.33 11.98 -7.66 13.96 -8 16 C-1.73 15.34 4.54 14.68 11 14 C10.34 14.99 9.68 15.98 9 17 C4.86719 17.29297 4.86719 17.29297 -0.125 17.1875 C-1.77758 17.16043 -3.43016 17.13336 -5.13281 17.10547 C-6.40898 17.07066 -7.68516 17.03586 -9 17 C-9.33 17.66 -9.66 18.32 -10 19 C-10.99 18.01 -11.98 17.02 -13 16 C-15.7323 15.42224 -15.7323 15.42224 -18.6875 15.3125 C-19.68137 15.24676 -20.67523 15.18102 -21.69922 15.11328 C-22.83811 15.05721 -22.83811 15.05721 -24 15 C-24 14.34 -24 13.68 -24 13 C-22.4325 12.95875 -20.865 12.9175 -19.25 12.875 C-18.36828 12.8518 -17.48656 12.82859 -16.57812 12.80469 C-14 13 -14 13 -10 15 C-10.33 13.02 -10.66 11.04 -11 9 C-10.01 8.34 -9.02 7.68 -8 7 C-8 5.68 -8 4.36 -8 3 C-6.86562 2.69063 -5.73125 2.38125 -4.5625 2.0625 C-1.21225 1.37075 -1.21225 1.37075 0 0 Z " fill="#DEF6DE" transform="translate(144,130)"/>
<path d="M0 0 C5.61 0 11.22 0 17 0 C17.92232 1.77117 17.92232 1.77117 18.86328 3.57812 C20.07564 5.8907 20.07564 5.8907 21.3125 8.25 C22.11301 9.78141 22.91352 11.31281 23.73828 12.89062 C25.93275 17.10464 25.93275 17.10464 29 21 C28.67 21.66 28.34 22.32 28 23 C22.45916 20.22958 22.02039 17.05097 19.75 11.375 C19.04359 9.62961 18.33719 7.88422 17.60938 6.08594 C17.07828 4.73758 16.54719 3.38922 16 2 C13.03 1.67 10.06 1.34 7 1 C6.67 2.32 6.34 3.64 6 5 C5.34 4.67 4.68 4.34 4 4 C4.51562 5.42312 5.03125 6.84625 5.5625 8.3125 C7 13 7 13 6 16 C4.99562 13.71025 3.99662 11.41814 3 9.125 C2.44313 7.84883 1.88625 6.57266 1.3125 5.25781 C0 2 0 2 0 0 Z " fill="#4953A1" transform="translate(7,166)"/>
<path d="M0 0 C1.89752 0.09613 3.79456 0.21197 5.6875 0.375 C4.30208 4.6141 2.36038 7.08158 -0.8125 10.1875 C-1.60656 10.9777 -2.40062 11.76789 -3.21875 12.58203 C-5.3125 14.375 -5.3125 14.375 -7.3125 14.375 C-7.3125 12.725 -7.3125 11.075 -7.3125 9.375 C-6.3225 9.705 -5.3325 10.035 -4.3125 10.375 C-4.6425 8.395 -4.9725 6.415 -5.3125 4.375 C-7.2925 5.035 -9.2725 5.695 -11.3125 6.375 C-8.1976 1.03517 -5.96734 -0.04227 0 0 Z " fill="#5152CF" transform="translate(170.3125,165.625)"/>
<path d="M0 0 C0.33 0 0.66 0 1 0 C1.6041 7.70232 -0.591 13.77301 -3 21 C-8.61 21 -14.22 21 -20 21 C-19.01 17.04 -18.02 13.08 -17 9 C-15 12 -15 12 -15 16 C-11.37 16.33 -7.74 16.66 -4 17 C-1.90552 11.46458 -0.97217 5.81235 0 0 Z " fill="#519951" transform="translate(246,145)"/>
<path d="M0 0 C1.32 0.99 2.64 1.98 4 3 C3.67 4.65 3.34 6.3 3 8 C2.67 8 2.34 8 2 8 C2 6.35 2 4.7 2 3 C-3.57846 1.64765 -8.14593 0.98551 -13.3125 3.8125 C-16.14569 5.89881 -16.14569 5.89881 -18 9 C-18.07997 11.99893 -18.08692 15.00126 -18 18 C-15.02934 17.65772 -15.02934 17.65772 -12 17 C-11.67 16.34 -11.34 15.68 -11 15 C-8.68594 14.26924 -6.35171 13.59862 -4 13 C-7.71759 16.92412 -10.51805 19.7518 -16.125 20.3125 C-17.07375 20.20937 -18.0225 20.10625 -19 20 C-21.51475 16.22787 -21.44796 14.47964 -21 10 C-19.1838 5.71377 -17.51307 3.41046 -13.875 0.5 C-8.57199 -1.55278 -5.58067 -1.08714 0 0 Z " fill="#CDD16B" transform="translate(96,85)"/>
<path d="M0 0 C3.69193 3.65143 7.28044 7.3812 10.8125 11.1875 C11.78832 12.23293 12.76414 13.27836 13.76953 14.35547 C16 17 16 17 16 19 C9.07 19 2.14 19 -5 19 C-5.33 18.34 -5.66 17.68 -6 17 C-3.46094 17.03255 -0.92188 17.0651 1.61719 17.09766 C4.01686 17.16249 4.01686 17.16249 6 16 C6 15.34 6 14.68 6 14 C6.66 14 7.32 14 8 14 C7.38125 13.2575 6.7625 12.515 6.125 11.75 C4 9 4 9 2 5 C1.34 4.67 0.68 4.34 0 4 C0 2.68 0 1.36 0 0 Z " fill="#544CCB" transform="translate(36,189)"/>
<path d="M0 0 C4.03031 3.81819 6.71457 6.64243 7.40625 12.35547 C7.62612 21.34274 6.85061 26.09627 1 33 C0.34 33.66 -0.32 34.32 -1 35 C-1.4629 37.66243 -1.4629 37.66243 -1.625 40.625 C-1.69977 41.62789 -1.77453 42.63078 -1.85156 43.66406 C-1.90055 44.43492 -1.94953 45.20578 -2 46 C-4 44 -4 44 -4.25 39.625 C-4 35 -4 35 -2 31 C-1.34 31 -0.68 31 0 31 C0 30.01 0 29.02 0 28 C0.64969 27.44055 1.29937 26.88109 1.96875 26.30469 C4.89735 22.98185 4.53249 20.48678 4.5 16.125 C4.51031 14.7457 4.52062 13.36641 4.53125 11.94531 C3.94306 7.57712 2.61508 5.47639 0 2 C0 1.34 0 0.68 0 0 Z " fill="#FBFACD" transform="translate(177,81)"/>
<path d="M0 0 C6.95371 2.4438 11.91988 7.29336 17.07031 12.42188 C16.74031 13.08187 16.41031 13.74187 16.07031 14.42188 C14.97719 13.43188 13.88406 12.44187 12.75781 11.42188 C9.47474 8.10633 9.47474 8.10633 6.07031 8.42188 C5.74031 7.43188 5.41031 6.44187 5.07031 5.42188 C3.75031 5.09188 2.43031 4.76188 1.07031 4.42188 C1.07031 3.76188 1.07031 3.10188 1.07031 2.42188 C-2.15881 2.39484 -5.38799 2.37546 -8.61719 2.35938 C-10.41543 2.34777 -12.21367 2.33617 -14.06641 2.32422 C-18.98439 2.27994 -18.98439 2.27994 -23.92969 3.42188 C-17.74216 -2.76566 -8.2255 -1.62317 0 0 Z " fill="#C27A4B" transform="translate(170.9296875,64.578125)"/>
<path d="M0 0 C2.97 0 5.94 0 9 0 C9.6726 1.76859 10.33788 3.53996 11 5.3125 C11.37125 6.29863 11.7425 7.28477 12.125 8.30078 C13 11 13 11 13 14 C12.27813 12.86562 11.55625 11.73125 10.8125 10.5625 C7.8388 6.79581 7.42071 6.52751 3 6 C3.30035 6.69867 3.6007 7.39734 3.91016 8.11719 C4.48057 9.4823 4.48057 9.4823 5.0625 10.875 C5.44535 11.77992 5.8282 12.68484 6.22266 13.61719 C7 16 7 16 6 18 C2.65732 11.98071 0.38959 7.01255 0 0 Z " fill="#4E51B4" transform="translate(51,166)"/>
<path d="M0 0 C0.33 0 0.66 0 1 0 C0.9768 1.23234 0.95359 2.46469 0.92969 3.73438 C0.83963 11.994 0.79945 19.92455 2.4375 28.03516 C3.10856 31.57218 3.47787 35.10978 3.875 38.6875 C4.65429 44.86484 6.30931 49.43306 9 55 C8.67 55.99 8.34 56.98 8 58 C-2.66984 41.99523 -2.56846 18.2278 0 0 Z " fill="#DEF5CF" transform="translate(17,109)"/>
<path d="M0 0 C5.94 0 11.88 0 18 0 C14.68311 9.14659 10.80352 17.54192 6 26 C5.67 26 5.34 26 5 26 C5 24.35 5 22.7 5 21 C5.99 20.01 6.98 19.02 8 18 C9.02237 15.34183 10.02331 12.67529 11 10 C11.66 9.34 12.32 8.68 13 8 C13.64768 5.42939 13.64768 5.42939 14 3 C14.66 3 15.32 3 16 3 C16 2.34 16 1.68 16 1 C11.38 1 6.76 1 2 1 C1.34 2.65 0.68 4.3 0 6 C-1.59637 9.04277 -3.30437 12.01033 -5 15 C-5.33 14.34 -5.66 13.68 -6 13 C-4.22385 8.55678 -2.0732 4.31563 0 0 Z " fill="#4E52AC" transform="translate(225,166)"/>
<path d="M0 0 C3.92601 1.963 6.0965 3.77388 9 7 C9 7.66 9 8.32 9 9 C5.26996 9.35275 1.71745 9.53256 -2 9 C-5.1875 6 -5.1875 6 -7 3 C-5.68 3 -4.36 3 -3 3 C-3 2.34 -3 1.68 -3 1 C-2.01 0.67 -1.02 0.34 0 0 Z " fill="#D1793E" transform="translate(182,75)"/>
<path d="M0 0 C4.875 1.875 4.875 1.875 6 3 C6.375 5.875 6.375 5.875 6 9 C3.61107 10.88599 2.08148 12 -1 12 C-1 11.34 -1 10.68 -1 10 C-2.65 9.67 -4.3 9.34 -6 9 C-6 8.01 -6 7.02 -6 6 C-4.35 5.67 -2.7 5.34 -1 5 C-0.67 3.35 -0.34 1.7 0 0 Z " fill="#514EDA" transform="translate(210,195)"/>
<path d="M0 0 C3.32056 0.00792 5.99242 2.67977 6.00033 5.00033 C5.99242 8.32089 3.32056 10.99275 0 11.00066 C-2.76713 10.99401 -4.99368 8.76747 -5.00028 5.00033 C-4.99368 2.2332 -2.76713 0.00665 0 0.00006 Z " fill="#5150D4" transform="translate(80,167.99966885999999)"/>
<path d="M0 0 C1.42312 0.4892 1.42312 0.4892 2.875 0.98828 C7.71066 2.1743 12.02396 2.22872 17 2.1875 C18.71187 2.18105 20.42375 2.17461 22.1875 2.16797 C26.21977 2.02723 30.02845 1.67452 34 1 C34 1.66 34 2.32 34 3 C33.03062 3.30938 32.06125 3.61875 31.0625 3.9375 C28.15934 4.69523 28.15934 4.69523 27 6 C17.22156 6.62656 8.58426 7.08697 0 2 C0 1.34 0 0.68 0 0 Z " fill="#FCF1E0" transform="translate(107,80)"/>
<path d="M0 0 C0.66 0 1.32 0 2 0 C1.34 1.98 0.68 3.96 0 6 C-15.345 6.495 -15.345 6.495 -31 7 C-30.67 6.01 -30.34 5.02 -30 4 C-27.69 4 -25.38 4 -23 4 C-22.67 3.34 -22.34 2.68 -22 2 C-22 2.66 -22 3.32 -22 4 C-17.71 4 -13.42 4 -9 4 C-9 3.01 -9 2.02 -9 1 C-8.34 1 -7.68 1 -7 1 C-7 1.66 -7 2.32 -7 3 C-4.69 3 -2.38 3 0 3 C0 2.01 0 1.02 0 0 Z " fill="#509377" transform="translate(103,160)"/>
<path d="M0 0 C1 4 1 4 1 6 C-0.32 6 -1.64 6 -3 6 C-2.67 6.33 -2.34 6.66 -2 7 C-0.14228 6.91016 1.71248 6.75388 3.5625 6.5625 C4.57441 6.46066 5.58633 6.35883 6.62891 6.25391 C7.41137 6.17012 8.19383 6.08633 9 6 C8.67 6.99 8.34 7.98 8 9 C5.36 9 2.72 9 0 9 C0.33 11.31 0.66 13.62 1 16 C0.34 16 -0.32 16 -1 16 C-1.99 14.02 -2.98 12.04 -4 10 C-6.62529 15.36472 -7.54287 20.05732 -8 26 C-8.33 26 -8.66 26 -9 26 C-9.53599 16.62013 -7.98364 9.93298 -2.25 2.375 C-1.5075 1.59125 -0.765 0.8075 0 0 Z " fill="#E1F9E4" transform="translate(69,142)"/>
<path d="M0 0 C0 2 0 2 -1.9375 4 C-2.61812 4.66 -3.29875 5.32 -4 6 C-4.33 6.66 -4.66 7.32 -5 8 C-5.99 8.33 -6.98 8.66 -8 9 C-8 8.34 -8 7.68 -8 7 C-12.80907 9.5969 -16.81915 12.49975 -21 16 C-21.66 16 -22.32 16 -23 16 C-23 16.66 -23 17.32 -23 18 C-24.64453 19.62109 -24.64453 19.62109 -26.8125 21.4375 C-29.32889 23.5597 -31.66561 25.66561 -34 28 C-34.66 27.67 -35.32 27.34 -36 27 C-10.69634 0 -10.69634 0 0 0 Z " fill="#AE4244" transform="translate(68,14)"/>
<path d="M0 0 C3.63 0 7.26 0 11 0 C10.01 2.31 9.02 4.62 8 7 C7.67 7 7.34 7 7 7 C7 5.35 7 3.7 7 2 C4.69 2 2.38 2 0 2 C0.02063 3.09313 0.04125 4.18625 0.0625 5.3125 C0 9 0 9 -1 12 C-0.75486 14.73604 -0.43268 17.46556 -0.0625 20.1875 C0.13215 21.64543 0.3268 23.10336 0.52734 24.60547 C0.76131 26.28576 0.76131 26.28576 1 28 C-2.87128 22.8383 -3.17509 19.99831 -3.25 13.6875 C-3.27578 12.39199 -3.30156 11.09648 -3.32812 9.76172 C-2.98292 5.80416 -2.00043 3.39546 0 0 Z " fill="#D3CF5D" transform="translate(59,84)"/>
<path d="M0 0 C0.99 0.99 1.98 1.98 3 3 C2 4 2 4 -2.375 4.375 C-7.15072 4.54468 -7.15072 4.54468 -10 8 C-10.66 9.32 -11.32 10.64 -12 12 C-14.475 11.01 -14.475 11.01 -17 10 C-16.67 8.35 -16.34 6.7 -16 5 C-14.90687 4.71125 -13.81375 4.4225 -12.6875 4.125 C-8.95986 3.18107 -8.95986 3.18107 -6 1 C-3 0.1875 -3 0.1875 0 0 Z " fill="#DC7638" transform="translate(86,66)"/>
<path d="M0 0 C1.93759 2.90638 2.67428 4.92034 3.5625 8.25 C3.81129 9.16266 4.06008 10.07531 4.31641 11.01562 C5.6953 17.03548 6.1171 22.76775 6.0625 28.9375 C6.05348 30.26652 6.04445 31.59555 6.03516 32.96484 C6.02355 33.96645 6.01195 34.96805 6 36 C5.34 36 4.68 36 4 36 C3.93941 34.78441 3.87883 33.56883 3.81641 32.31641 C3.73262 30.74762 3.64883 29.17883 3.5625 27.5625 C3.48129 25.99629 3.40008 24.43008 3.31641 22.81641 C3.43184 19.21641 3.43184 19.21641 2 18 C1.85743 14.66382 1.95772 11.34024 2 8 C1.34 8 0.68 8 0 8 C0 5.36 0 2.72 0 0 Z " fill="#FAFCCB" transform="translate(227,89)"/>
<path d="M0 0 C0.33 0.99 0.66 1.98 1 3 C-0.65 3.33 -2.3 3.66 -4 4 C-4 4.99 -4 5.98 -4 7 C-2.35 7.33 -0.7 7.66 1 8 C1 8.66 1 9.32 1 10 C4.3 10 7.6 10 11 10 C11 10.33 11 10.66 11 11 C4.07 11 -2.86 11 -10 11 C-10 8 -10 8 -7.8125 5.5 C-5.30262 3.26899 -2.94033 1.59618 0 0 Z " fill="#564FC7" transform="translate(208,197)"/>
<path d="M0 0 C2 1.8125 2 1.8125 4 4 C4 4.99 4 5.98 4 7 C3.34 7 2.68 7 2 7 C1.73188 7.9075 1.46375 8.815 1.1875 9.75 C0 13 0 13 -3 17 C-4.32 17 -5.64 17 -7 17 C-6.67 15.02 -6.34 13.04 -6 11 C-5.01 11 -4.02 11 -3 11 C-2.87625 10.29875 -2.7525 9.5975 -2.625 8.875 C-1.96162 5.82344 -1.02788 2.94659 0 0 Z " fill="#D2D53D" transform="translate(185,106)"/>
<path d="M0 0 C0.66 0 1.32 0 2 0 C7.58031 6.47316 6.11424 17.43841 6.23047 25.46875 C6 28 6 28 4 31 C3.34 31 2.68 31 2 31 C2 31.99 2 32.98 2 34 C1.34 34 0.68 34 0 34 C0.7425 31.71062 0.7425 31.71062 1.5 29.375 C4.23561 19.26626 4.00278 9.67339 0 0 Z " fill="#FAF8C5" transform="translate(190,81)"/>
<path d="M0 0 C6.27 0 12.54 0 19 0 C19 0.66 19 1.32 19 2 C22.3 2.33 25.6 2.66 29 3 C29 3.66 29 4.32 29 5 C30.32 5.66 31.64 6.32 33 7 C31 8 31 8 28.59375 7.32812 C27.57281 6.97234 26.55187 6.61656 25.5 6.25 C17.15745 3.55342 8.65465 2.28217 0 1 C0 0.67 0 0.34 0 0 Z " fill="#290203" transform="translate(136,0)"/>
<path d="M0 0 C1.32 0.88688 2.64 1.77375 4 2.6875 C4.81855 3.22891 5.63711 3.77031 6.48047 4.32812 C8.07593 5.38682 9.66308 6.45826 11.23828 7.54688 C13.09807 8.79374 15.04582 9.90698 17 11 C18.32 10.67 19.64 10.34 21 10 C21.66 6.7 22.32 3.4 23 0 C23.33 0 23.66 0 24 0 C24.02687 1.97909 24.04633 3.95829 24.0625 5.9375 C24.0741 7.03965 24.0857 8.1418 24.09766 9.27734 C24 12 24 12 23 13 C17.60175 14.00645 15.12434 13.64383 10.28906 10.875 C6.7032 8.3729 3.24578 5.93182 0 3 C0 2.01 0 1.02 0 0 Z " fill="#FAFBCD" transform="translate(151,94)"/>
<path d="M0 0 C2.28938 -0.00258 4.57875 -0.00516 6.9375 -0.00781 C13 0.125 13 0.125 19 1.125 C19 1.455 19 1.785 19 2.125 C13.97945 2.32006 8.95855 2.50579 3.9375 2.6875 C1.14152 2.79191 -1.65445 2.89633 -4.53516 3.00391 C-12 3.125 -12 3.125 -19 2.125 C-19 1.795 -19 1.465 -19 1.125 C-12.54468 0.04911 -6.54344 -0.00737 0 0 Z " fill="#FBDCDC" transform="translate(125,16.875)"/>
<path d="M0 0 C0.99 0.33 1.98 0.66 3 1 C2.34 7.27 1.68 13.54 1 20 C-4.28 20 -9.56 20 -15 20 C-15 19.34 -15 18.68 -15 18 C-10.05 18 -5.1 18 0 18 C0 12.06 0 6.12 0 0 Z " fill="#C7D75B" transform="translate(15,105)"/>
<path d="M0 0 C2.56546 2.56546 2.54046 4.47687 3 8 C5.45566 8.09088 5.45566 8.09088 7.96094 8.18359 C10.07758 8.26738 12.19422 8.35117 14.375 8.4375 C16.48648 8.51871 18.59797 8.59992 20.77344 8.68359 C26 9 26 9 28 10 C28 10.99 28 11.98 28 13 C26.80375 12.67 25.6075 12.34 24.375 12 C16.35414 10.20485 8.02143 10.39571 0 12 C0 8.04 0 4.08 0 0 Z " fill="#F0FCD7" transform="translate(75,116)"/>
<path d="M0 0 C3.6266 1.62392 5.9261 3.41145 9 6 C7 7 7 7 3 6 C2.67 5.34 2.34 4.68 2 4 C-5.34069 2.93613 -12.59393 2.88547 -20 3 C-13.7441 -1.1706 -7.37769 -0.8272 0 0 Z " fill="#FDF4E1" transform="translate(168,74)"/>
<path d="M0 0 C0 0.66 0 1.32 0 2 C0.63938 2.22687 1.27875 2.45375 1.9375 2.6875 C5.39344 4.16862 8.57095 5.97421 11.83984 7.82422 C14.16311 9.08878 16.50715 10.11544 19 11 C19 11.66 19 12.32 19 13 C20.32 13.66 21.64 14.32 23 15 C18.71466 15 16.35411 13.00104 12.6875 10.8125 C5.34656 6.58529 -1.92457 3.51095 -10 1 C-10 0.67 -10 0.34 -10 0 C-2.25 -1.125 -2.25 -1.125 0 0 Z " fill="#AB4344" transform="translate(166,21)"/>
<path d="M0 0 C3.09608 3.09608 3.14637 6.78877 4 11 C4.33 12.32 4.66 13.64 5 15 C9.62 15 14.24 15 19 15 C19.33 14.34 19.66 13.68 20 13 C20.33 14.32 20.66 15.64 21 17 C15.39 17 9.78 17 4 17 C1.56531 11.17791 0.48604 6.22126 0 0 Z " fill="#539366" transform="translate(3,149)"/>
<path d="M0 0 C-8.27447 4.83738 -8.27447 4.83738 -12.625 5.8125 C-17.45731 7.51276 -20.18556 10.78629 -23 15 C-23.33 16.32 -23.66 17.64 -24 19 C-24.99 19 -25.98 19 -27 19 C-24.28001 11.27522 -18.97232 5.66907 -11.6875 2 C-4.67747 -1.16937 -4.67747 -1.16937 0 0 Z " fill="#BF7E4F" transform="translate(86,65)"/>
<path d="M0 0 C0.99 0 1.98 0 3 0 C3.33 1.65 3.66 3.3 4 5 C3.01 5.33 2.02 5.66 1 6 C0.34 7.32 -0.32 8.64 -1 10 C-3.64 10 -6.28 10 -9 10 C-6.08044 6.56141 -3.19078 3.19078 0 0 Z " fill="#CE3C34" transform="translate(43,32)"/>
<path d="M0 0 C3.63 0 7.26 0 11 0 C11 0.66 11 1.32 11 2 C9.35 2 7.7 2 6 2 C6.0116 2.95262 6.0232 3.90523 6.03516 4.88672 C6.04418 6.14098 6.0532 7.39523 6.0625 8.6875 C6.0741 9.92887 6.0857 11.17023 6.09766 12.44922 C6.01479 15.46235 5.70839 18.08275 5 21 C4.67 21 4.34 21 4 21 C3.96262 19.9868 3.92523 18.97359 3.88672 17.92969 C3.82098 16.59164 3.75523 15.25359 3.6875 13.875 C3.62949 12.55242 3.57148 11.22984 3.51172 9.86719 C2.99366 5.95205 1.96993 3.3906 0 0 Z " fill="#D2CF54" transform="translate(180,84)"/>
<path d="M0 0 C3.125 2.25 3.125 2.25 5 5 C4.8125 7.8125 4.8125 7.8125 4 10 C2.02 10.33 0.04 10.66 -2 11 C-2 10.34 -2 9.68 -2 9 C-0.68 9 0.64 9 2 9 C1.67 7.02 1.34 5.04 1 3 C-2.96 2.67 -6.92 2.34 -11 2 C-11 1.34 -11 0.68 -11 0 C-7.33199 -1.83401 -3.89695 -0.72743 0 0 Z " fill="#529252" transform="translate(152,134)"/>
<path d="M0 0 C3.3 0 6.6 0 10 0 C10.05388 3.10398 10.09274 6.20822 10.125 9.3125 C10.1482 11.04113 10.17141 12.76977 10.19531 14.55078 C10 19 10 19 8 22 C8 15.4 8 8.8 8 2 C5.36 2.33 2.72 2.66 0 3 C0 2.01 0 1.02 0 0 Z " fill="#5C9D4B" transform="translate(176,125)"/>
<path d="M0 0 C10.23 0.66 20.46 1.32 31 2 C31 2.33 31 2.66 31 3 C20.88717 5.46849 9.54843 5.16659 0 1 C0 0.67 0 0.34 0 0 Z " fill="#FDEDD7" transform="translate(107,69)"/>
<path d="M0 0 C1.65 0 3.3 0 5 0 C7.375 2.6875 7.375 2.6875 9 6 C8.75 8.875 8.75 8.875 8 11 C7.01 11.33 6.02 11.66 5 12 C5.33 10.02 5.66 8.04 6 6 C4.35 6 2.7 6 1 6 C0.67 4.02 0.34 2.04 0 0 Z " fill="#524FD8" transform="translate(54,172)"/>
<path d="M0 0 C0.66 0.33 1.32 0.66 2 1 C1.52454 3.13957 1.04862 5.27904 0.57031 7.41797 C0.03124 9.85858 -0.48509 12.30418 -1 14.75 C-1.77593 18.0477 -2.61297 20.92873 -4 24 C-4.66 24 -5.32 24 -6 24 C-5.57347 21.31074 -5.13328 18.62364 -4.6875 15.9375 C-4.44387 14.4409 -4.20023 12.9443 -3.94922 11.40234 C-3.05819 7.26987 -1.80559 3.80843 0 0 Z " fill="#C1C553" transform="translate(7,84)"/>
<path d="M0 0 C3.2001 -0.05994 3.2001 -0.05994 6.46484 -0.12109 C12.0625 0.4375 12.0625 0.4375 15.31641 2.96484 C15.89262 3.78082 16.46883 4.5968 17.0625 5.4375 C15.7425 4.9425 14.4225 4.4475 13.0625 3.9375 C5.61626 1.70043 -4.74054 0.19835 -11.79297 3.96094 C-12.50066 4.4482 -13.20836 4.93547 -13.9375 5.4375 C-14.5975 5.4375 -15.2575 5.4375 -15.9375 5.4375 C-15.9375 4.4475 -15.9375 3.4575 -15.9375 2.4375 C-10.50641 -0.27805 -6.05781 0.06215 0 0 Z " fill="#F7E2CB" transform="translate(160.9375,62.5625)"/>
<path d="M0 0 C0.33 0 0.66 0 1 0 C0.8125 3.25 0.8125 3.25 0 7 C-0.825 7.63938 -1.65 8.27875 -2.5 8.9375 C-5.45486 10.92838 -5.45486 10.92838 -5.8125 15.25 C-5.87437 16.4875 -5.93625 17.725 -6 19 C-3.36 19 -0.72 19 2 19 C2.33 18.34 2.66 17.68 3 17 C3 17.99 3 18.98 3 20 C-0.3 20 -3.6 20 -7 20 C-7.33 20.66 -7.66 21.32 -8 22 C-8.60119 15.84338 -8.88416 12.21091 -5.125 7.0625 C-4.09375 6.05187 -3.0625 5.04125 -2 4 C-1.34 2.68 -0.68 1.36 0 0 Z " fill="#C9D466" transform="translate(183,105)"/>
<path d="M0 0 C8.84829 1.38255 21.53352 3.53352 28 10 C18.51954 8.03853 8.94067 5.76449 0 2 C0 1.34 0 0.68 0 0 Z " fill="#B2413F" transform="translate(151,3)"/>
<path d="M0 0 C-3.49703 2.33135 -5.87028 2.44004 -10 3 C-10.92812 3.30938 -11.85625 3.61875 -12.8125 3.9375 C-15.66696 4.88899 -18.36372 5.50123 -21.3125 6.0625 C-25.66776 6.48286 -25.66776 6.48286 -27 8 C-28.65 8 -30.3 8 -32 8 C-25.33902 1.33902 -9.19544 -0.49705 0 0 Z " fill="#A93F3F" transform="translate(112,1)"/>
<path d="M0 0 C0.33 0 0.66 0 1 0 C1.05376 3.29149 1.09268 6.58323 1.125 9.875 C1.1482 11.70805 1.17141 13.54109 1.19531 15.42969 C1 20 1 20 -1 22 C-1.14437 23.09312 -1.28875 24.18625 -1.4375 25.3125 C-1.99849 28.99013 -2.90024 30.98731 -5 34 C-6.80914 30.38172 -4.63656 26.36386 -3.625 22.625 C-1.6424 14.96919 -0.31139 7.88864 0 0 Z " fill="#041C04" transform="translate(249,132)"/>
<path d="M0 0 C0.66 0.33 1.32 0.66 2 1 C0.54551 2.00558 -0.91372 3.0043 -2.375 4 C-3.18711 4.55687 -3.99922 5.11375 -4.83594 5.6875 C-7 7 -7 7 -9 7 C-9 7.66 -9 8.32 -9 9 C-10.98 9 -12.96 9 -15 9 C-15 9.66 -15 10.32 -15 11 C-22.75 12 -22.75 12 -25 12 C-25 11.34 -25 10.68 -25 10 C-24.10539 9.76926 -23.21078 9.53852 -22.28906 9.30078 C-10.28908 6.41814 -10.28908 6.41814 0 0 Z " fill="#5350B1" transform="translate(157,172)"/>
<path d="M0 0 C4.19115 0.5821 5.37542 1.28157 9 4 C8.67 4.66 8.34 5.32 8 6 C6.97906 5.505 6.97906 5.505 5.9375 5 C0.2416 3.06097 -4.48635 3.84833 -10 6 C-9.67 8.31 -9.34 10.62 -9 13 C-9.66 13 -10.32 13 -11 13 C-11 10.03 -11 7.06 -11 4 C-7.17011 2.1977 -4.21878 1.80378 0 2 C0 1.34 0 0.68 0 0 Z " fill="#FBFCDA" transform="translate(160,81)"/>
<path d="M0 0 C0.92812 0.20625 1.85625 0.4125 2.8125 0.625 C-4.04326 5.19551 -13.06887 6.98824 -21.1875 7.625 C-21.5175 6.965 -21.8475 6.305 -22.1875 5.625 C-20.5375 5.625 -18.8875 5.625 -17.1875 5.625 C-17.1875 4.965 -17.1875 4.305 -17.1875 3.625 C-16.42824 3.50383 -15.66898 3.38266 -14.88672 3.25781 C-13.39592 3.00645 -13.39592 3.00645 -11.875 2.75 C-10.88887 2.58758 -9.90273 2.42516 -8.88672 2.25781 C-5.14366 1.38028 -3.97917 -0.46814 0 0 Z " fill="#6D3D69" transform="translate(165.1875,241.375)"/>
<path d="M0 0 C5.28 0 10.56 0 16 0 C15.67 0.66 15.34 1.32 15 2 C12.00162 2.34764 9.00144 2.67985 6 3 C4.02 3.99 4.02 3.99 2 5 C1.18415 8.05908 1.18415 8.05908 1 11 C0.67 11 0.34 11 0 11 C0 7.37 0 3.74 0 0 Z " fill="#539A33" transform="translate(0,125)"/>
<path d="M0 0 C0.33 0 0.66 0 1 0 C1.02578 0.84562 1.05156 1.69125 1.07812 2.5625 C1.4771 10.54192 2.09861 17.09861 8 23 C7.67 23.99 7.34 24.98 7 26 C6.01 25.01 5.02 24.02 4 23 C4 22.01 4 21.02 4 20 C3.34 20 2.68 20 2 20 C-1.9974 14.17046 -1.50517 7.79058 -1 1 C-0.67 0.67 -0.34 0.34 0 0 Z " fill="#CCD15B" transform="translate(65,91)"/>
<path d="M0 0 C0 0.99 0 1.98 0 3 C3.96 3 7.92 3 12 3 C12 3.33 12 3.66 12 4 C11.22656 4.02578 10.45312 4.05156 9.65625 4.07812 C2.73184 4.4552 -2.03526 5.4441 -8 9 C-5.83333 0 -5.83333 0 0 0 Z " fill="#D0804D" transform="translate(82,70)"/>
<path d="M0 0 C1.32 0.33 2.64 0.66 4 1 C3.01 1 2.02 1 1 1 C0.67 3.97 0.34 6.94 0 10 C-1.98 10.33 -3.96 10.66 -6 11 C-6 9.35 -6 7.7 -6 6 C-5.34 6 -4.68 6 -4 6 C-3.34 4.68 -2.68 3.36 -2 2 C-1.34 2 -0.68 2 0 2 C0 1.34 0 0.68 0 0 Z " fill="#48A14A" transform="translate(123,153)"/>
<path d="M0 0 C1.1153 4.46119 0.67627 5.85345 -1 10 C-1.99 11.485 -1.99 11.485 -3 13 C-3.5974 15.04705 -4.1341 17.11233 -4.625 19.1875 C-5.01559 20.81752 -5.01559 20.81752 -5.41406 22.48047 C-5.60742 23.31191 -5.80078 24.14336 -6 25 C-6.66 25 -7.32 25 -8 25 C-7.48373 19.20492 -6.24339 14.4854 -4 9.125 C-3.46375 7.8282 -2.9275 6.53141 -2.375 5.19531 C-1.62234 3.44624 -0.85156 1.70312 0 0 Z " fill="#F7F7BF" transform="translate(27,77)"/>
<path d="M0 0 C8.4949 4.24745 15.47324 11.18316 22 18 C18.71823 18 16.89112 17.52164 14 16 C13.67 14.68 13.34 13.36 13 12 C10.80921 9.84443 10.80921 9.84443 8.125 7.875 C7.2407 7.1918 6.35641 6.50859 5.44531 5.80469 C3.6637 4.48982 1.84239 3.22826 0 2 C0 1.34 0 0.68 0 0 Z " fill="#AA4241" transform="translate(196,23)"/>
<path d="M0 0 C4.62 0 9.24 0 14 0 C14 0.66 14 1.32 14 2 C13.34 2 12.68 2 12 2 C12 3.65 12 5.3 12 7 C10.68 7.99 9.36 8.98 8 10 C7.3125 7.6875 7.3125 7.6875 7 5 C7.99 4.01 8.98 3.02 10 2 C6.03611 1.92377 2.87266 2.03184 -1 3 C-0.67 2.01 -0.34 1.02 0 0 Z " fill="#4D52CA" transform="translate(227,167)"/>
<path d="M0 0 C5.61 0 11.22 0 17 0 C13 4 13 4 9.75 4.25 C8.8425 4.1675 7.935 4.085 7 4 C7 3.34 7 2.68 7 2 C6.01 2.33 5.02 2.66 4 3 C2.68 2.67 1.36 2.34 0 2 C0 1.34 0 0.68 0 0 Z " fill="#E17340" transform="translate(199,42)"/>
<path d="M0 0 C0.33 2.31 0.66 4.62 1 7 C0.01 7.495 0.01 7.495 -1 8 C-1 7.34 -1 6.68 -1 6 C-1.66 6 -2.32 6 -3 6 C-3 7.65 -3 9.3 -3 11 C-4.65 11 -6.3 11 -8 11 C-6.75 6.625 -6.75 6.625 -5 2 C-1 0 -1 0 0 0 Z " fill="#5051D7" transform="translate(166,169)"/>
<path d="M0 0 C0.33 0.66 0.66 1.32 1 2 C3.51065 2.30766 6.03628 2.49763 8.5625 2.625 C9.94566 2.69977 11.32883 2.77453 12.75391 2.85156 C14.36072 2.92504 14.36072 2.92504 16 3 C16 3.66 16 4.32 16 5 C10.39 5 4.78 5 -1 5 C-0.67 3.35 -0.34 1.7 0 0 Z " fill="#529371" transform="translate(227,161)"/>
<path d="M0 0 C-1.24137 0.68707 -2.48273 1.37414 -3.76172 2.08203 C-5.38723 2.98309 -7.01273 3.88414 -8.6875 4.8125 C-10.30012 5.70582 -11.91273 6.59914 -13.57422 7.51953 C-16.75116 9.30008 -19.89604 11.09716 -23 13 C-23 12.01 -23 11.02 -23 10 C-20 8 -20 8 -17 8 C-17 7.34 -17 6.68 -17 6 C-16.01 6 -15.02 6 -14 6 C-14 5.34 -14 4.68 -14 4 C-12.68 4 -11.36 4 -10 4 C-10 3.34 -10 2.68 -10 2 C-3.375 -1.125 -3.375 -1.125 0 0 Z " fill="#200101" transform="translate(74,11)"/>
<path d="M0 0 C4.5346 1.13365 5.90025 2.64193 9 6 C8.67 6.99 8.34 7.98 8 9 C8 8.34 8 7.68 8 7 C6.35 7.66 4.7 8.32 3 9 C2.67 7.68 2.34 6.36 2 5 C1.34 5 0.68 5 0 5 C0 4.34 0 3.68 0 3 C-0.66 2.67 -1.32 2.34 -2 2 C-1.34 1.34 -0.68 0.68 0 0 Z " fill="#46A147" transform="translate(110,138)"/>
<path d="M0 0 C0.99 0.33 1.98 0.66 3 1 C2.67 2.32 2.34 3.64 2 5 C1.01 5.33 0.02 5.66 -1 6 C-1.33 7.32 -1.66 8.64 -2 10 C2.20008 9.31441 2.20008 9.31441 5 6 C5 7.65 5 9.3 5 11 C2.36 11 -0.28 11 -3 11 C-3.1875 7.1875 -3.1875 7.1875 -3 3 C-2.01 2.01 -1.02 1.02 0 0 Z " fill="#CFD648" transform="translate(180,113)"/>
<path d="M0 0 C0.33 0 0.66 0 1 0 C2.07112 12.10538 2.07112 12.10538 -0.45312 16.57031 C-2.3125 18.625 -2.3125 18.625 -6 22 C-6.99 23.32 -7.98 24.64 -9 26 C-8.51541 20.83104 -5.96007 17.15819 -3 13 C-2.01 13 -1.02 13 0 13 C0 8.71 0 4.42 0 0 Z " fill="#E4FBDF" transform="translate(63,121)"/>
<path d="M0 0 C0.66 0 1.32 0 2 0 C4.26216 7.98595 6.41765 15.70145 7 24 C6.34 24.33 5.68 24.66 5 25 C4.87625 23.82438 4.7525 22.64875 4.625 21.4375 C4.05963 17.42337 3.13694 13.87899 2 10 C1.28226 6.67496 0.64077 3.34114 0 0 Z " fill="#BCBF58" transform="translate(242,86)"/>
<path d="M0 0 C0.33 0.99 0.66 1.98 1 3 C-0.8125 5.6875 -0.8125 5.6875 -3 8 C-3.66 8 -4.32 8 -5 8 C-5 8.66 -5 9.32 -5 10 C-6.60938 11.65625 -6.60938 11.65625 -8.75 13.5 C-9.44609 14.10844 -10.14219 14.71687 -10.85938 15.34375 C-13 17 -13 17 -17 19 C-12.89535 14.05338 -8.56083 9.49795 -3.95312 5.01562 C-1.8413 2.95766 -1.8413 2.95766 0 0 Z " fill="#100419" transform="translate(222,203)"/>
<path d="M0 0 C4 6 4 6 4 9 C-1.28 9 -6.56 9 -12 9 C-12 8.67 -12 8.34 -12 8 C-5.565 7.505 -5.565 7.505 1 7 C1 6.34 1 5.68 1 5 C0.34 5 -0.32 5 -1 5 C-0.67 3.35 -0.34 1.7 0 0 Z " fill="#CC7F36" transform="translate(237,75)"/>
<path d="M0 0 C5.10424 3.63353 9.16797 6.97046 13 12 C12.01 12 11.02 12 10 12 C9.38125 11.31938 8.7625 10.63875 8.125 9.9375 C7.42375 9.29812 6.7225 8.65875 6 8 C3.29294 8.14025 3.29294 8.14025 1 9 C1.20625 8.2575 1.4125 7.515 1.625 6.75 C2.30758 3.67522 2.30758 3.67522 0 0 Z " fill="#539A53" transform="translate(107,131)"/>
<path d="M0 0 C6.15906 4.32215 12.54975 9.0995 16 16 C13.5625 15.1875 13.5625 15.1875 11 14 C10.67 13.01 10.34 12.02 10 11 C9.01 10.67 8.02 10.34 7 10 C7 9.01 7 8.02 7 7 C4.525 6.01 4.525 6.01 2 5 C2 4.34 2 3.68 2 3 C1.34 3 0.68 3 0 3 C0 2.01 0 1.02 0 0 Z " fill="#FCEED9" transform="translate(194,42)"/>
<path d="M0 0 C1.65 0 3.3 0 5 0 C4.67 1.32 4.34 2.64 4 4 C3.34 3.67 2.68 3.34 2 3 C2.51562 4.42312 3.03125 5.84625 3.5625 7.3125 C5 12 5 12 4 15 C-0.57143 5.57143 -0.57143 5.57143 0 0 Z " fill="#4F4DBA" transform="translate(9,167)"/>
<path d="M0 0 C1.32 0.33 2.64 0.66 4 1 C4 1.66 4 2.32 4 3 C4.66 3.33 5.32 3.66 6 4 C9 8 9 8 9 10 C9.99 10.33 10.98 10.66 12 11 C12 12.65 12 14.3 12 16 C9.10526 13.10526 6.76211 10.14903 4.3125 6.875 C3.50426 5.79992 2.69602 4.72484 1.86328 3.61719 C0 1 0 1 0 0 Z " fill="#C17C4C" transform="translate(207,54)"/>
<path d="M0 0 C1.32 0 2.64 0 4 0 C4 0.66 4 1.32 4 2 C5.32 2.66 6.64 3.32 8 4 C9.71989 5.95442 11.39549 7.9498 13 10 C12.34 10.66 11.68 11.32 11 12 C10.29875 11.11312 9.5975 10.22625 8.875 9.3125 C6.12774 6.14718 3.24156 3.63848 0 1 C0 0.67 0 0.34 0 0 Z " fill="#CA8052" transform="translate(195,42)"/>
<path d="M0 0 C1.32 0.33 2.64 0.66 4 1 C3.01 6.61 2.02 12.22 1 18 C0.67 18 0.34 18 0 18 C0 12.06 0 6.12 0 0 Z " fill="#131203" transform="translate(0,94)"/>
<path d="M0 0 C0.66 0.66 1.32 1.32 2 2 C0.49438 1.9175 -1.01125 1.835 -2.5625 1.75 C-7.69458 1.73544 -10.76062 2.99711 -15 6 C-15.66 6.66 -16.32 7.32 -17 8 C-16.67 6.35 -16.34 4.7 -16 3 C-14.68 2.67 -13.36 2.34 -12 2 C-12 1.34 -12 0.68 -12 0 C-7.72283 -0.7548 -4.19189 -1.31745 0 0 Z " fill="#FBFBD0" transform="translate(94,83)"/>
<path d="M0 0 C0 0.99 0 1.98 0 3 C-2.88366 4.44183 -5.60541 4.38993 -8.8125 4.625 C-10.03582 4.72039 -11.25914 4.81578 -12.51953 4.91406 C-15.5833 4.98971 -18.04787 4.75349 -21 4 C-21 3.67 -21 3.34 -21 3 C-19.73543 2.86723 -18.47086 2.73445 -17.16797 2.59766 C-15.52441 2.42105 -13.88086 2.24445 -12.1875 2.0625 C-10.55168 1.88848 -8.91586 1.71445 -7.23047 1.53516 C-3.15135 1.1586 -3.15135 1.1586 0 0 Z " fill="#C27F50" transform="translate(141,70)"/>
<path d="M0 0 C2.21371 0.00528 3.99494 1.78651 4.00022 3.00022 C3.99494 5.21393 2.21371 6.99516 0 7.00044 C-1.66028 6.99643 -2.99621 5.6605 -3.00017 3.00022 C-2.99621 1.33994 -1.66028 0.00401 0 0.00006 Z " fill="#D67839" transform="translate(72,69.99977924)"/>
<path d="M0 0 C1.32 0.33 2.64 0.66 4 1 C3.01 1 2.02 1 1 1 C1 4.3 1 7.6 1 11 C-1.64 11 -4.28 11 -7 11 C-7 10.34 -7 9.68 -7 9 C-5.02 8.67 -3.04 8.34 -1 8 C-0.67 5.36 -0.34 2.72 0 0 Z " fill="#569968" transform="translate(124,155)"/>
<path d="M0 0 C7.59953 0.37375 13.24023 2.57589 20 6 C18 7 18 7 13.86719 5.78516 C12.21977 5.21668 10.57234 4.6482 8.875 4.0625 C7.22242 3.4966 5.56984 2.9307 3.86719 2.34766 C2.59102 1.90293 1.31484 1.4582 0 1 C0 0.67 0 0.34 0 0 Z " fill="#663D64" transform="translate(76,240)"/>
<path d="M0 0 C2.21371 0.00528 3.99494 1.78651 4.00022 4.00022 C3.99494 6.21393 2.21371 7.99516 0 8.00044 C-2.21371 7.99516 -3.99494 6.21393 -4.00022 4.00022 C-3.99494 1.78651 -2.21371 0.00528 0 0 Z " fill="#5050D5" transform="translate(71,187.99977924)"/>
<path d="M0 0 C0.98098 0.31711 1.96195 0.63422 2.97266 0.96094 C7.20494 2.05288 11.07703 2.40878 15.4375 2.625 C16.85934 2.69977 18.28117 2.77453 19.74609 2.85156 C20.81988 2.90055 21.89367 2.94953 23 3 C23 3.33 23 3.66 23 4 C5.91892 5.94595 5.91892 5.94595 0 2 C0 1.34 0 0.68 0 0 Z " fill="#FADFC8" transform="translate(107,80)"/>
<path d="M0 0 C3.3 0 6.6 0 10 0 C9.34 1.32 8.68 2.64 8 4 C8.99 4.33 9.98 4.66 11 5 C10.34 5.66 9.68 6.32 9 7 C7.35 7 5.7 7 4 7 C4.33 5.68 4.66 4.36 5 3 C2.525 2.01 2.525 2.01 0 1 C0 0.67 0 0.34 0 0 Z " fill="#5655D3" transform="translate(92,190)"/>
<path d="M0 0 C-1.24977 3.65317 -1.67099 4.78066 -5 7 C-4.34 5.02 -3.68 3.04 -3 1 C-8.70478 1.2831 -8.70478 1.2831 -13.5 4.0625 C-13.995 4.70188 -14.49 5.34125 -15 6 C-15.66 5.67 -16.32 5.34 -17 5 C-12.47619 -1.46258 -7.1617 -0.514 0 0 Z " fill="#4A54A0" transform="translate(176,166)"/>
<path d="M0 0 C1.29937 0.02062 2.59875 0.04125 3.9375 0.0625 C0.85081 3.14919 0.01822 3.51105 -4.0625 4.0625 C-3.7325 5.0525 -3.4025 6.0425 -3.0625 7.0625 C-4.0525 7.3925 -5.0425 7.7225 -6.0625 8.0625 C-5.04624 0.07763 -5.04624 0.07763 0 0 Z " fill="#589B57" transform="translate(88.0625,149.9375)"/>
<path d="M0 0 C2.2661 4.5322 1.92736 6.17773 1 11 C-0.65 11 -2.3 11 -4 11 C-3.40138 8.64829 -2.73076 6.31406 -2 4 C-1.34 3.67 -0.68 3.34 0 3 C0 2.01 0 1.02 0 0 Z " fill="#CFD543" transform="translate(171,92)"/>
<path d="M0 0 C1.7075 1.28062 3.37374 2.61768 5 4 C5 4.66 5 5.32 5 6 C-1.93 6 -8.86 6 -16 6 C-16.33 5.34 -16.66 4.68 -17 4 C-10.73 4.33 -4.46 4.66 2 5 C1.34 3.35 0.68 1.7 0 0 Z " fill="#5B49AE" transform="translate(47,202)"/>
<path d="M0 0 C0.99 0 1.98 0 3 0 C3.33 1.32 3.66 2.64 4 4 C1.1875 7.25 1.1875 7.25 -2 10 C-2.66 10 -3.32 10 -4 10 C-4 8.35 -4 6.7 -4 5 C-3.01 5.33 -2.02 5.66 -1 6 C-0.67 4.02 -0.34 2.04 0 0 Z " fill="#4F4DBE" transform="translate(167,170)"/>
<path d="M0 0 C5.21 2.7092 8.99852 5.70573 13 10 C12.67 10.66 12.34 11.32 12 12 C10.90688 11.01 9.81375 10.02 8.6875 9 C5.40443 5.68446 5.40443 5.68446 2 6 C1.34 4.02 0.68 2.04 0 0 Z " fill="#C07C4D" transform="translate(175,67)"/>
<path d="M0 0 C-4.19572 3.05654 -7.17892 3.33143 -12.3125 3.1875 C-13.56676 3.16043 -14.82102 3.13336 -16.11328 3.10547 C-17.54221 3.05326 -17.54221 3.05326 -19 3 C-19 2.67 -19 2.34 -19 2 C-16.58566 1.46848 -14.16842 0.95015 -11.75 0.4375 C-10.40422 0.14746 -9.05844 -0.14258 -7.67188 -0.44141 C-4 -1 -4 -1 0 0 Z " fill="#110314" transform="translate(159,247)"/>
<path d="M0 0 C1 2 1 2 0 6 C-0.66 6 -1.32 6 -2 6 C-2 6.66 -2 7.32 -2 8 C-1.34 8.33 -0.68 8.66 0 9 C-2.66667 10.33333 -5.33333 11.66667 -8 13 C-6.43002 9.86003 -4.82979 7.13968 -2.875 4.25 C-2.06676 3.05117 -2.06676 3.05117 -1.24219 1.82812 C-0.6273 0.9232 -0.6273 0.9232 0 0 Z " fill="#5351B4" transform="translate(218,181)"/>
<path d="M0 0 C1.155 0.9075 2.31 1.815 3.5 2.75 C7.476 5.7462 11.4907 7.9064 16 10 C11.35883 11.54706 8.40369 9.83487 4 8 C1.85229 5.31536 1.0822 3.24661 0 0 Z " fill="#4E4CAD" transform="translate(65,180)"/>
<path d="M0 0 C2.21371 0.00528 3.99494 1.78651 4.00022 4.00022 C3.99494 6.21393 2.21371 7.99516 0 8.00044 C-2.21371 7.99516 -3.99494 6.21393 -4.00022 4.00022 C-3.99494 1.78651 -2.21371 0.00528 0 0 Z " fill="#5151C9" transform="translate(120,166.99977924)"/>
<path d="M0 0 C0.66 0.33 1.32 0.66 2 1 C0.6875 3.5625 0.6875 3.5625 -2 6 C-5.74669 6.15095 -9.31348 5.64196 -13 5 C-12.67 4.34 -12.34 3.68 -12 3 C-9.45288 2.74206 -6.90357 2.49085 -4.34766 2.34375 C-1.81319 2.21133 -1.81319 2.21133 0 0 Z " fill="#568F70" transform="translate(178,161)"/>
<path d="M0 0 C2.375 0.25 2.375 0.25 5 1 C7 5 7 5 6 9 C5.01 9.66 4.02 10.32 3 11 C2.01 10.67 1.02 10.34 0 10 C0.99 9.01 1.98 8.02 3 7 C3 5.68 3 4.36 3 3 C2.01 2.01 1.02 1.02 0 0 Z " fill="#F9FBD7" transform="translate(96,85)"/>
<path d="M0 0 C1.27514 3.82543 0.5274 5.33423 -1 9 C-1.99 9.99 -2.98 10.98 -4 12 C-4.66 12 -5.32 12 -6 12 C-4.68139 7.38487 -2.78645 3.90102 0 0 Z " fill="#C57548" transform="translate(21,55)"/>
<path d="M0 0 C0 0.66 0 1.32 0 2 C-4.95 2 -9.9 2 -15 2 C-9.46657 -1.68895 -6.56784 -0.75783 0 0 Z " fill="#FEF9ED" transform="translate(96,61)"/>
<path d="M0 0 C1.16915 4.67661 0.45376 6.69677 -0.9375 11.25 C-1.31777 12.51328 -1.69805 13.77656 -2.08984 15.07812 C-2.3902 16.04234 -2.69055 17.00656 -3 18 C-3.33 18 -3.66 18 -4 18 C-4.46103 10.73878 -3.29526 6.48755 0 0 Z " fill="#E5FBE5" transform="translate(230,146)"/>
<path d="M0 0 C1.34673 4.04019 1.06134 7.76771 1 12 C0.01 12.495 0.01 12.495 -1 13 C-2.85547 5.48047 -2.85547 5.48047 -3 3 C-2.01 2.01 -1.02 1.02 0 0 Z " fill="#4B9E4C" transform="translate(116,145)"/>
<path d="M0 0 C0.33 0 0.66 0 1 0 C2.125 7.625 2.125 7.625 1 11 C2.98 10.34 4.96 9.68 7 9 C6.01 9.99 5.02 10.98 4 12 C1.3125 11.6875 1.3125 11.6875 -1 11 C-1.125 2.25 -1.125 2.25 0 0 Z " fill="#D1D549" transform="translate(78,92)"/>
<path d="M0 0 C1.32 0.66 2.64 1.32 4 2 C3.67 3.65 3.34 5.3 3 7 C0.69 7 -1.62 7 -4 7 C-4.33 6.34 -4.66 5.68 -5 5 C-3.35 4.67 -1.7 4.34 0 4 C0 2.68 0 1.36 0 0 Z " fill="#CC7F34" transform="translate(66,77)"/>
<path d="M0 0 C1.32 0.66 2.64 1.32 4 2 C4 2.66 4 3.32 4 4 C3.01 4 2.02 4 1 4 C1 4.66 1 5.32 1 6 C-0.65 5.67 -2.3 5.34 -4 5 C-4 4.01 -4 3.02 -4 2 C-2.68 1.34 -1.36 0.68 0 0 Z " fill="#D9783D" transform="translate(178,72)"/>
<path d="M0 0 C2.02641 -0.02127 2.02641 -0.02127 4.09375 -0.04297 C7.5 0.1875 7.5 0.1875 9.5 2.1875 C8.58477 2.1759 7.66953 2.1643 6.72656 2.15234 C5.53805 2.14332 4.34953 2.1343 3.125 2.125 C1.34996 2.1076 1.34996 2.1076 -0.46094 2.08984 C-3.41922 1.97283 -3.41922 1.97283 -5.5 3.1875 C-7.83299 3.22772 -10.16707 3.2307 -12.5 3.1875 C-7.94084 0.14806 -5.51812 0.02633 0 0 Z " fill="#FBE9D1" transform="translate(160.5,73.8125)"/>
<path d="M0 0 C0 0.66 0 1.32 0 2 C-1.82812 3.54297 -1.82812 3.54297 -4.25 5.1875 C-5.43336 6.01314 -5.43336 6.01314 -6.64062 6.85547 C-9 8 -9 8 -13 7 C-11.2119 5.82787 -9.41941 4.66244 -7.625 3.5 C-6.62727 2.85031 -5.62953 2.20062 -4.60156 1.53125 C-2 0 -2 0 0 0 Z " fill="#FDE5E1" transform="translate(76,29)"/>
<path d="M0 0 C0.66 0 1.32 0 2 0 C2 0.99 2 1.98 2 3 C7.94 3 13.88 3 20 3 C20 3.33 20 3.66 20 4 C13.07 4 6.14 4 -1 4 C-1 1 -1 1 0 0 Z " fill="#604EB1" transform="translate(199,204)"/>
<path d="M0 0 C4.60374 1.53458 5.7237 4.89002 8 9 C7.67 9.66 7.34 10.32 7 11 C2.45459 8.72729 1.85854 7.55343 0 3 C0 2.01 0 1.02 0 0 Z " fill="#5352B2" transform="translate(28,178)"/>
<path d="M0 0 C0.33 0.99 0.66 1.98 1 3 C0.34 3 -0.32 3 -1 3 C-1 3.99 -1 4.98 -1 6 C-3.31 6 -5.62 6 -8 6 C-8 5.01 -8 4.02 -8 3 C-5.36 2.01 -2.72 1.02 0 0 Z " fill="#449E46" transform="translate(104,157)"/>
<path d="M0 0 C2.45827 -0.02692 4.91663 -0.04636 7.375 -0.0625 C8.74398 -0.0741 10.11297 -0.0857 11.52344 -0.09766 C15 0 15 0 17 1 C17 1.99 17 2.98 17 4 C11.39 3.01 5.78 2.02 0 1 C0 0.67 0 0.34 0 0 Z " fill="#DCF6DD" transform="translate(86,125)"/>
<path d="M0 0 C0.33 0 0.66 0 1 0 C1.05406 1.93719 1.09282 3.87482 1.125 5.8125 C1.1482 6.89145 1.17141 7.97039 1.19531 9.08203 C1 12 1 12 -1 15 C-1.66 15 -2.32 15 -3 15 C-3 15.99 -3 16.98 -3 18 C-3.66 18 -4.32 18 -5 18 C-4.34 15.69 -3.68 13.38 -3 11 C-2.34 11 -1.68 11 -1 11 C-0.67 7.37 -0.34 3.74 0 0 Z " fill="#FBFBDA" transform="translate(195,97)"/>
<path d="M0 0 C2.9345 4.40175 3.1601 6.62751 3.1875 11.9375 C3.20168 13.18402 3.21586 14.43055 3.23047 15.71484 C3 19 3 19 1 22 C1.33 17.05 1.66 12.1 2 7 C1.34 7 0.68 7 0 7 C0 4.69 0 2.38 0 0 Z " fill="#C9D05F" transform="translate(191,85)"/>
<path d="M0 0 C4 1 4 1 8 4 C8 4.66 8 5.32 8 6 C9.32 6.33 10.64 6.66 12 7 C12 8.65 12 10.3 12 12 C11.31938 11.29875 10.63875 10.5975 9.9375 9.875 C7.7359 7.72024 5.53852 5.72829 3.1875 3.75 C2.13563 2.8425 1.08375 1.935 0 1 C0 0.67 0 0.34 0 0 Z " fill="#FDECD7" transform="translate(178,68)"/>
<path d="M0 0 C3.63 0 7.26 0 11 0 C11 0.66 11 1.32 11 2 C12.32 2.66 13.64 3.32 15 4 C11.85687 5.57157 9.63454 4.11706 6.375 3.0625 C4.59223 2.49209 4.59223 2.49209 2.77344 1.91016 C1.8582 1.6098 0.94297 1.30945 0 1 C0 0.67 0 0.34 0 0 Z " fill="#2B0504" transform="translate(154,3)"/>
<path d="M0 0 C0.33 0.66 0.66 1.32 1 2 C2.98 1.34 4.96 0.68 7 0 C6.0625 2.5 6.0625 2.5 4 5 C-0.6875 5.3125 -0.6875 5.3125 -5 5 C-3.35 3.35 -1.7 1.7 0 0 Z " fill="#554DC2" transform="translate(216,202)"/>
<path d="M0 0 C0.33 0.99 0.66 1.98 1 3 C2.32 3.66 3.64 4.32 5 5 C4.01 5.99 3.02 6.98 2 8 C0.68 7.34 -0.64 6.68 -2 6 C-1.34 4.02 -0.68 2.04 0 0 Z " fill="#46A247" transform="translate(67,131)"/>
<path d="M0 0 C0 0.66 0 1.32 0 2 C0.99 2.33 1.98 2.66 3 3 C3 3.66 3 4.32 3 5 C-1.55854 3.52518 -5.70908 2.14546 -10 0 C-2.25 -1.125 -2.25 -1.125 0 0 Z " fill="#B94746" transform="translate(166,21)"/>
<path d="M0 0 C7.625 -0.25 7.625 -0.25 11 2 C11.33 3.32 11.66 4.64 12 6 C7.7657 4.68938 3.92593 3.05644 0 1 C0 0.67 0 0.34 0 0 Z " fill="#6E3B6A" transform="translate(64,234)"/>
<path d="M0 0 C0.33 1.32 0.66 2.64 1 4 C0.34 4 -0.32 4 -1 4 C-1.66 6.31 -2.32 8.62 -3 11 C-4.32 10.67 -5.64 10.34 -7 10 C-4.69 6.7 -2.38 3.4 0 0 Z " fill="#07062B" transform="translate(230,192)"/>
<path d="M0 0 C2.21371 0.00528 3.99494 1.78651 4.00022 3.00022 C3.99494 5.21393 2.21371 6.99516 0 7.00044 C-1.66028 6.99643 -2.99621 5.6605 -3.00017 3.00022 C-2.99621 1.33994 -1.66028 0.00401 0 0.00006 Z " fill="#D1D646" transform="translate(154,88.99977924)"/>
<path d="M0 0 C10.26248 -0.31098 10.26248 -0.31098 15 2 C15.66 3.32 16.32 4.64 17 6 C12 4 12 4 9.625 2.9375 C6.44342 1.80122 3.34711 1.39378 0 1 C0 0.67 0 0.34 0 0 Z " fill="#C47646" transform="translate(158,72)"/>
<path d="M0 0 C2.00721 0.28674 4.00859 0.61867 6 1 C6.33 2.32 6.66 3.64 7 5 C4.69 4.67 2.38 4.34 0 4 C-0.33 3.01 -0.66 2.02 -1 1 C-0.67 0.67 -0.34 0.34 0 0 Z " fill="#DA773A" transform="translate(103,71)"/>
<path d="M0 0 C0 2 0 2 -1.9375 4 C-2.61813 4.66 -3.29875 5.32 -4 6 C-4.33 6.66 -4.66 7.32 -5 8 C-5.99 8.33 -6.98 8.66 -8 9 C-8.33 8.01 -8.66 7.02 -9 6 C-3.2 0 -3.2 0 0 0 Z " fill="#BE3F41" transform="translate(68,14)"/>
<path d="M0 0 C-0.33 0.66 -0.66 1.32 -1 2 C-4.3 2 -7.6 2 -11 2 C-11 1.34 -11 0.68 -11 0 C-7.50477 -1.74762 -3.76645 -0.48426 0 0 Z " fill="#5D9E5E" transform="translate(152,134)"/>
<path d="M0 0 C2.35953 2.35953 2.49141 3.77896 3 7 C3.66 7 4.32 7 5 7 C5.66 8.32 6.32 9.64 7 11 C6.67 11.99 6.34 12.98 6 14 C1.00549 10.33736 0.91453 5.79199 0 0 Z " fill="#FCFCD9" transform="translate(68,102)"/>
<path d="M0 0 C2 2 2 2 2.3125 5.875 C2 10 2 10 -1 14 C-2.32 13.67 -3.64 13.34 -5 13 C-4.34 12.34 -3.68 11.68 -3 11 C-2.01 11 -1.02 11 0 11 C0 7.37 0 3.74 0 0 Z " fill="#CED268" transform="translate(172,92)"/>
<path d="M0 0 C0.99 0.99 1.98 1.98 3 3 C3 3.66 3 4.32 3 5 C-0.63 5 -4.26 5 -8 5 C-8 4.34 -8 3.68 -8 3 C-5.36 3 -2.72 3 0 3 C0 2.01 0 1.02 0 0 Z " fill="#C1833B" transform="translate(188,79)"/>
<path d="M0 0 C0.33 0.99 0.66 1.98 1 3 C-0.94605 5.37851 -2.95082 7.70974 -5 10 C-5.66 11.32 -6.32 12.64 -7 14 C-7.66 14 -8.32 14 -9 14 C-7.65071 10.16337 -5.92249 7.34827 -3.375 4.1875 C-2.42754 3.00221 -2.42754 3.00221 -1.46094 1.79297 C-0.97883 1.20129 -0.49672 0.60961 0 0 Z " fill="#FCEBD4" transform="translate(41,56)"/>
<path d="M0 0 C0.66 0 1.32 0 2 0 C4 2 6 4 8 6 C6.68 6.33 5.36 6.66 4 7 C2.68 6.01 1.36 5.02 0 4 C0 2.68 0 1.36 0 0 Z " fill="#CC3A36" transform="translate(194,23)"/>
<path d="M0 0 C0.33 0.99 0.66 1.98 1 3 C1.99 3 2.98 3 4 3 C4.33 2.34 4.66 1.68 5 1 C4.34 4.3 3.68 7.6 3 11 C-0.13323 7.86677 0.36628 4.2733 0 0 Z " fill="#D4F8D3" transform="translate(78,151)"/>
<path d="M0 0 C2.97 0 5.94 0 9 0 C9 0.99 9 1.98 9 3 C6.36 2.67 3.72 2.34 1 2 C1 3.98 1 5.96 1 8 C0.67 8 0.34 8 0 8 C0 5.36 0 2.72 0 0 Z " fill="#579635" transform="translate(65,125)"/>
<path d="M0 0 C2.1905 0.09018 4.37847 0.24666 6.5625 0.4375 C7.76004 0.53934 8.95758 0.64117 10.19141 0.74609 C11.11824 0.82988 12.04508 0.91367 13 1 C9.09643 3.60238 6.6177 3.28861 2 3 C1.01 2.34 0.02 1.68 -1 1 C-0.67 0.67 -0.34 0.34 0 0 Z " fill="#C57E50" transform="translate(112,80)"/>
<path d="M0 0 C1.5675 0.06188 3.135 0.12375 4.75 0.1875 C1.75 3.1875 1.75 3.1875 -0.94922 3.48047 C-1.93535 3.44566 -2.92148 3.41086 -3.9375 3.375 C-4.93137 3.34793 -5.92523 3.32086 -6.94922 3.29297 C-7.70848 3.25816 -8.46773 3.22336 -9.25 3.1875 C-5.16748 0.12561 -4.68502 -0.18494 0 0 Z " fill="#C77741" transform="translate(91.25,63.8125)"/>
<path d="M0 0 C2.31 0.33 4.62 0.66 7 1 C4.35645 3.83237 2.56311 5.21844 -1 7 C-0.67 4.69 -0.34 2.38 0 0 Z " fill="#BB4748" transform="translate(60,32)"/>
<path d="M0 0 C3.90061 3.67772 6.96859 7.5828 10 12 C5.3517 9.67585 3.15387 7.0857 0 3 C0 2.01 0 1.02 0 0 Z " fill="#050628" transform="translate(22,197)"/>
<path d="M0 0 C0.33 0.66 0.66 1.32 1 2 C2.32 2.33 3.64 2.66 5 3 C6 6 6 6 6 11 C5.34 9.68 4.68 8.36 4 7 C1.77552 4.56025 -0.23871 2.84086 -3 1 C-2.01 0.67 -1.02 0.34 0 0 Z " fill="#E0F5DE" transform="translate(152,132)"/>
<path d="M0 0 C1.32 0 2.64 0 4 0 C4.99 3.3 5.98 6.6 7 10 C6.01 10.495 6.01 10.495 5 11 C3.35 7.37 1.7 3.74 0 0 Z " fill="#C57E4C" transform="translate(219,71)"/>
<path d="M0 0 C2.31 0 4.62 0 7 0 C3.03288 2.97534 -0.35973 4.37591 -5 6 C-5 5.01 -5 4.02 -5 3 C-3.35 3 -1.7 3 0 3 C0 2.01 0 1.02 0 0 Z " fill="#693C67" transform="translate(175,236)"/>
<path d="M0 0 C0.66 0 1.32 0 2 0 C1.34 1.98 0.68 3.96 0 6 C-4.455 5.01 -4.455 5.01 -9 4 C-9 3.01 -9 2.02 -9 1 C-8.34 1 -7.68 1 -7 1 C-7 1.66 -7 2.32 -7 3 C-4.69 3 -2.38 3 0 3 C0 2.01 0 1.02 0 0 Z " fill="#57A063" transform="translate(103,160)"/>
<path d="M0 0 C2.95144 2.95144 2.60893 5.95893 3 10 C1.35 9.67 -0.3 9.34 -2 9 C-1.34 7.68 -0.68 6.36 0 5 C0 3.35 0 1.7 0 0 Z " fill="#4B984E" transform="translate(19,154)"/>
<path d="M0 0 C3.32495 2.98099 5.42412 5.79765 7 10 C6.34 11.32 5.68 12.64 5 14 C4.3509 12.418 3.70585 10.83434 3.0625 9.25 C2.70285 8.36828 2.3432 7.48656 1.97266 6.57812 C1 4 1 4 0 0 Z " fill="#DCF8DC" transform="translate(108,144)"/>
<path d="M0 0 C0.66 0 1.32 0 2 0 C2 3.96 2 7.92 2 12 C1.34 12 0.68 12 0 12 C-1.16716 8.49853 -1.13357 5.6733 -1 2 C-0.67 1.34 -0.34 0.68 0 0 Z " fill="#FDFED6" transform="translate(74,92)"/>
<path d="M0 0 C1.32 0.33 2.64 0.66 4 1 C2.36127 3.35304 0.69391 5.68637 -1 8 C-1.33 8 -1.66 8 -2 8 C-1.125 1.125 -1.125 1.125 0 0 Z " fill="#C67D4A" transform="translate(36,57)"/>
<path d="M0 0 C0.66 0.33 1.32 0.66 2 1 C1.2575 1.5775 0.515 2.155 -0.25 2.75 C-2.66088 4.72254 -4.84043 6.76044 -7 9 C-7.99 8.67 -8.98 8.34 -10 8 C-6.7 5.36 -3.4 2.72 0 0 Z " fill="#673A65" transform="translate(195,208)"/>
<path d="M0 0 C0.66 0.33 1.32 0.66 2 1 C0.02 3.97 -1.96 6.94 -4 10 C-5 7 -5 7 -4 3 C-4 2.34 -4 1.68 -4 1 C-2.02 1.495 -2.02 1.495 0 2 C0 1.34 0 0.68 0 0 Z " fill="#514EBC" transform="translate(228,192)"/>
<path d="M0 0 C1.65 1.65 3.3 3.3 5 5 C1 7 1 7 -1 7 C-0.67 4.69 -0.34 2.38 0 0 Z " fill="#5051CF" transform="translate(63,179)"/>
<path d="M0 0 C2.42945 3.64418 2.1618 5.71241 2 10 C1.01 10.33 0.02 10.66 -1 11 C-0.67 7.37 -0.34 3.74 0 0 Z " fill="#539E5A" transform="translate(233,133)"/>
<path d="M0 0 C0.33 0 0.66 0 1 0 C1 3.96 1 7.92 1 12 C-0.65 12.33 -2.3 12.66 -4 13 C-3.52562 12.34 -3.05125 11.68 -2.5625 11 C-0.65005 7.3281 -0.34714 4.09627 0 0 Z " fill="#FBFCD5" transform="translate(174,94)"/>
<path d="M0 0 C0.66 0.66 1.32 1.32 2 2 C-0.97 3.98 -3.94 5.96 -7 8 C-7 7.01 -7 6.02 -7 5 C-4.72569 3.25365 -2.39241 1.5807 0 0 Z " fill="#F3E0F3" transform="translate(188,211)"/>
<path d="M0 0 C0.33 0 0.66 0 1 0 C1 2.97 1 5.94 1 9 C0.01 9 -0.98 9 -2 9 C-2.25 3.375 -2.25 3.375 0 0 Z " fill="#CFD64A" transform="translate(237,115)"/>
<path d="M0 0 C2.23064 2.97418 4.27616 5.7247 6 9 C5.67 9.66 5.34 10.32 5 11 C4.01 10.01 3.02 9.02 2 8 C2 7.34 2 6.68 2 6 C1.34 6 0.68 6 0 6 C0 4.02 0 2.04 0 0 Z " fill="#F8F9C1" transform="translate(58,110)"/>
<path d="M0 0 C1.10359 4.41437 0.72502 5.91442 -1 10 C-1.99 10.495 -1.99 10.495 -3 11 C-2.5064 6.72213 -1.95216 3.90433 0 0 Z " fill="#FAEBD2" transform="translate(27,77)"/>
<path d="M0 0 C0 0.99 0 1.98 0 3 C-6.625 6 -6.625 6 -10 6 C-2.92308 0 -2.92308 0 0 0 Z " fill="#FDECD7" transform="translate(82,75)"/>
<path d="M0 0 C1.66028 0.00396 2.99621 1.33988 3.00017 3.00017 C2.99621 4.66045 1.66028 5.99637 0 6.00033 C-1.66028 5.99637 -2.99621 4.66045 -3.00017 3.00017 C-2.99621 1.33988 -1.66028 0.00396 0 0 Z " fill="#D87837" transform="translate(174,69.99983442999999)"/>
<path d="M0 0 C-1.98 0.99 -1.98 0.99 -4 2 C-4.86625 2.53625 -5.7325 3.0725 -6.625 3.625 C-9 5 -9 5 -11 5 C-11 4.01 -11 3.02 -11 2 C-6.78371 -0.10815 -4.60209 -0.177 0 0 Z " fill="#FCEFDC" transform="translate(156,63)"/>
<path d="M0 0 C4.5547 1.13867 6.60239 2.83404 10 6 C10 6.66 10 7.32 10 8 C6.0856 6.0428 3.25931 3.88893 0 1 C0 0.67 0 0.34 0 0 Z " fill="#290403" transform="translate(198,23)"/>
<path d="M0 0 C-3.48143 2.32096 -5.88904 2.49514 -10 3 C-11.32 3.33 -12.64 3.66 -14 4 C-14 3.34 -14 2.68 -14 2 C-9.20645 0.67764 -4.98147 -0.24907 0 0 Z " fill="#AF4142" transform="translate(112,1)"/>
<path d="M0 0 C0.66 0 1.32 0 2 0 C2 1.98 2 3.96 2 6 C0.35 5.67 -1.3 5.34 -3 5 C-3 4.01 -3 3.02 -3 2 C-2.34 2 -1.68 2 -1 2 C-0.67 1.34 -0.34 0.68 0 0 Z " fill="#504FDC" transform="translate(14,168)"/>
<path d="M0 0 C1.66028 0.00396 2.99621 1.33988 3.00017 3.00017 C2.99621 4.66045 1.66028 5.99637 0 6.00033 C-1.66028 5.99637 -2.99621 4.66045 -3.00017 3.00017 C-2.99621 1.33988 -1.66028 0.00396 0 0 Z " fill="#E2F9EB" transform="translate(179,159.99983443)"/>
<path d="M0 0 C0 0.66 0 1.32 0 2 C-1.32 2.99 -2.64 3.98 -4 5 C-4.81315 8.60466 -4.81315 8.60466 -5 12 C-5.33 12 -5.66 12 -6 12 C-6 8.7 -6 5.4 -6 2 C-2 0 -2 0 0 0 Z " fill="#E0FBDE" transform="translate(131,154)"/>
<path d="M0 0 C-4.18586 3.18923 -6.70558 4.50423 -12 4 C-4 -2 -4 -2 0 0 Z " fill="#F7D6D1" transform="translate(92,23)"/>
<path d="M0 0 C3.3 0.33 6.6 0.66 10 1 C10.33 2.32 10.66 3.64 11 5 C7.27567 3.78743 3.62197 2.4914 0 1 C0 0.67 0 0.34 0 0 Z " fill="#290204" transform="translate(170,8)"/>
<path d="M0 0 C-2.59463 2.59463 -4.41825 2.49856 -8 3 C-9.32 3.33 -10.64 3.66 -12 4 C-12.33 3.34 -12.66 2.68 -13 2 C-8.61231 -0.19384 -4.85082 -0.16443 0 0 Z " fill="#BB3535" transform="translate(122,0)"/>
<path d="M0 0 C2.66667 2.66667 5.33333 5.33333 8 8 C7.67 8.66 7.34 9.32 7 10 C3.5 7.25 3.5 7.25 0 4 C0 2.68 0 1.36 0 0 Z " fill="#5653AB" transform="translate(36,189)"/>
<path d="M0 0 C1.98 0.495 1.98 0.495 4 1 C2 5 2 5 -1 7 C-1.04254 5.00045 -1.04081 2.99958 -1 1 C-0.67 0.67 -0.34 0.34 0 0 Z " fill="#C87A45" transform="translate(70,77)"/>
<path d="M0 0 C0.99 0.33 1.98 0.66 3 1 C1.35 3.97 -0.3 6.94 -2 10 C-2.33 10 -2.66 10 -3 10 C-3 8.35 -3 6.7 -3 5 C-2.34 5 -1.68 5 -1 5 C-0.67 3.35 -0.34 1.7 0 0 Z " fill="#FBEAD0" transform="translate(61,75)"/>
<path d="M0 0 C1.98 0.99 1.98 0.99 4 2 C4.75 6.625 4.75 6.625 5 11 C2.66499 7.49749 1.42411 3.94866 0 0 Z " fill="#210703" transform="translate(238,72)"/>
<path d="M0 0 C0.99 0 1.98 0 3 0 C2.67 1.32 2.34 2.64 2 4 C1.01 4 0.02 4 -1 4 C-1.66 4.66 -2.32 5.32 -3 6 C-3 5.01 -3 4.02 -3 3 C-2.01 2.01 -1.02 1.02 0 0 Z " fill="#CC3735" transform="translate(43,32)"/>
<path d="M0 0 C3.3 0 6.6 0 10 0 C10 0.66 10 1.32 10 2 C5.94568 3.15838 3.78188 2.83691 0 1 C0 0.67 0 0.34 0 0 Z " fill="#733C82" transform="translate(206,209)"/>
<path d="M0 0 C2.67835 0.61808 5.34618 1.28389 8 2 C7.67 2.66 7.34 3.32 7 4 C5.88625 3.95875 4.7725 3.9175 3.625 3.875 C-0.04366 3.58878 -0.04366 3.58878 -2 6 C-1.125 1.125 -1.125 1.125 0 0 Z " fill="#E0F7E0" transform="translate(99,147)"/>
<path d="M0 0 C0.99 0.33 1.98 0.66 3 1 C3 2.65 3 4.3 3 6 C1.68 6 0.36 6 -1 6 C-0.67 4.02 -0.34 2.04 0 0 Z " fill="#CAD83B" transform="translate(179,117)"/>
<path d="M0 0 C0.99 0.495 0.99 0.495 2 1 C2.40966 3.99053 2.74582 6.99226 3 10 C2.67 9.01 2.34 8.02 2 7 C1.34 7 0.68 7 0 7 C0 4.69 0 2.38 0 0 Z " fill="#FCFCD7" transform="translate(55,104)"/>
<path d="M0 0 C-2.97 1.98 -5.94 3.96 -9 6 C-9.33 5.34 -9.66 4.68 -10 4 C-4 -2 -4 -2 0 0 Z " fill="#CCD161" transform="translate(92,99)"/>
<path d="M0 0 C1 4 1 4 -0.9375 7.25 C-1.61812 8.1575 -2.29875 9.065 -3 10 C-4 6 -4 6 -2.0625 2.75 C-1.38188 1.8425 -0.70125 0.935 0 0 Z " fill="#1C0603" transform="translate(21,51)"/>
<path d="M0 0 C0.99 0.33 1.98 0.66 3 1 C0.69 3.31 -1.62 5.62 -4 8 C-4.33 7.01 -4.66 6.02 -5 5 C-3.35 3.35 -1.7 1.7 0 0 Z " fill="#C07748" transform="translate(49,44)"/>
<path d="M0 0 C0.99 0.33 1.98 0.66 3 1 C1.515 2.485 1.515 2.485 0 4 C-0.33 5.32 -0.66 6.64 -1 8 C-1.33 7.34 -1.66 6.68 -2 6 C-2.66 5.67 -3.32 5.34 -4 5 C-2.68 3.35 -1.36 1.7 0 0 Z " fill="#D2773D" transform="translate(32,43)"/>
<path d="M0 0 C4 2 4 2 7 6 C4.64829 5.40138 2.31406 4.73076 0 4 C-0.33 3.34 -0.66 2.68 -1 2 C-0.67 1.34 -0.34 0.68 0 0 Z " fill="#B24342" transform="translate(211,36)"/>
<path d="M0 0 C2.97 0.495 2.97 0.495 6 1 C7 5 7 5 7 8 C4.64574 5.68778 2.31259 3.35389 0 1 C0 0.67 0 0.34 0 0 Z " fill="#1E0002" transform="translate(208,31)"/>
<path d="M0 0 C0.99 0.33 1.98 0.66 3 1 C0.03 2.98 -2.94 4.96 -6 7 C-5.67 6.01 -5.34 5.02 -5 4 C-4.34 4 -3.68 4 -3 4 C-3 3.34 -3 2.68 -3 2 C-2.01 1.34 -1.02 0.68 0 0 Z " fill="#693B63" transform="translate(199,223)"/>
<path d="M0 0 C1.32 0 2.64 0 4 0 C4 2.31 4 4.62 4 7 C3.01 7.495 3.01 7.495 2 8 C1.34 5.36 0.68 2.72 0 0 Z " fill="#5550CB" transform="translate(56,178)"/>
<path d="M0 0 C0.33 1.32 0.66 2.64 1 4 C-0.65 5.32 -2.3 6.64 -4 8 C-4.66 7.67 -5.32 7.34 -6 7 C-4.02 4.69 -2.04 2.38 0 0 Z " fill="#E5E9FC" transform="translate(175,168)"/>
<path d="M0 0 C2.64 0 5.28 0 8 0 C8.33 1.32 8.66 2.64 9 4 C7.35 3.67 5.7 3.34 4 3 C4 2.34 4 1.68 4 1 C2.68 0.67 1.36 0.34 0 0 Z " fill="#5251CF" transform="translate(93,168)"/>
<path d="M0 0 C0 1.32 0 2.64 0 4 C-1.98 4 -3.96 4 -6 4 C-6 3.34 -6 2.68 -6 2 C-2 0 -2 0 0 0 Z " fill="#CCD842" transform="translate(73,119)"/>
<path d="M0 0 C2.71843 3.62458 3.4179 4.80885 4 9 C2.68 8.34 1.36 7.68 0 7 C0 4.69 0 2.38 0 0 Z " fill="#FCF2D2" transform="translate(223,80)"/>
<path d="M0 0 C1.32 0.33 2.64 0.66 4 1 C4 2.65 4 4.3 4 6 C3.01 6.33 2.02 6.66 1 7 C0.67 4.69 0.34 2.38 0 0 Z " fill="#FAF5E8" transform="translate(103,78)"/>
<path d="M0 0 C2.00721 0.28674 4.00859 0.61867 6 1 C6.33 1.99 6.66 2.98 7 4 C3.62537 3.45276 1.91765 2.9451 -1 1 C-0.67 0.67 -0.34 0.34 0 0 Z " fill="#F3E4F3" transform="translate(83,224)"/>
<path d="M0 0 C0.66 0.66 1.32 1.32 2 2 C-0.97 4.475 -0.97 4.475 -4 7 C-3.6875 4.625 -3.6875 4.625 -3 2 C-2.01 1.34 -1.02 0.68 0 0 Z " fill="#6B3B6A" transform="translate(208,215)"/>
<path d="M0 0 C3.90433 1.95216 6.0384 3.87387 9 7 C5.87776 5.43888 2.89969 3.93313 0 2 C0 1.34 0 0.68 0 0 Z " fill="#674169" transform="translate(53,208)"/>
<path d="M0 0 C2.71596 3.15402 3.96846 4.87385 5 9 C4.01 8.67 3.02 8.34 2 8 C2 6.68 2 5.36 2 4 C1.34 4 0.68 4 0 4 C0 2.68 0 1.36 0 0 Z " fill="#07072C" transform="translate(13,182)"/>
<path d="M0 0 C2.71843 3.62458 3.4179 4.80885 4 9 C3.01 9.495 3.01 9.495 2 10 C0.26266 6.19957 0 4.40285 0 0 Z " fill="#E7F9EF" transform="translate(22,157)"/>
<path d="M0 0 C0.66 0.33 1.32 0.66 2 1 C-0.25 3.0625 -0.25 3.0625 -3 5 C-4.32 4.67 -5.64 4.34 -7 4 C-4.70687 2.59865 -2.37012 1.26679 0 0 Z " fill="#E0F9DD" transform="translate(77,137)"/>
<path d="M0 0 C4.75 0.75 4.75 0.75 7 3 C6.67 3.99 6.34 4.98 6 6 C3.97945 4.3583 1.97957 2.69088 0 1 C0 0.67 0 0.34 0 0 Z " fill="#E1F8E0" transform="translate(109,132)"/>
<path d="M0 0 C1.98 0 3.96 0 6 0 C5.01 0.495 5.01 0.495 4 1 C4 1.66 4 2.32 4 3 C2.02 3.99 2.02 3.99 0 5 C0 3.35 0 1.7 0 0 Z " fill="#4CA149" transform="translate(66,127)"/>
<path d="M0 0 C2.29634 3.44451 2.54016 5.93812 3 10 C2.67 9.34 2.34 8.68 2 8 C1.34 8 0.68 8 0 8 C0 5.36 0 2.72 0 0 Z " fill="#F5F6BF" transform="translate(227,89)"/>
<path d="M0 0 C-0.33 0.99 -0.66 1.98 -1 3 C-1.66 3 -2.32 3 -3 3 C-2.67 5.31 -2.34 7.62 -2 10 C-2.66 10 -3.32 10 -4 10 C-4 7.03 -4 4.06 -4 1 C-2 0 -2 0 0 0 Z " fill="#F3F4C3" transform="translate(153,84)"/>
<path d="M0 0 C0.33 0 0.66 0 1 0 C1.33 2.31 1.66 4.62 2 7 C0.68 7 -0.64 7 -2 7 C-1.125 2.25 -1.125 2.25 0 0 Z " fill="#C57547" transform="translate(11,73)"/>
<path d="M0 0 C4 2 4 2 7 6 C7 6.66 7 7.32 7 8 C6.34 8 5.68 8 5 8 C3.27466 5.37091 1.60547 2.70395 0 0 Z " fill="#1D0501" transform="translate(224,49)"/>
<path d="M0 0 C0.33 0.66 0.66 1.32 1 2 C0.34 3.32 -0.32 4.64 -1 6 C-2.32 6.33 -3.64 6.66 -5 7 C-3.47794 4.37099 -2.15634 2.15634 0 0 Z " fill="#F9E7D2" transform="translate(47,49)"/>
<path d="M0 0 C2.97 1.98 5.94 3.96 9 6 C8.01 6.495 8.01 6.495 7 7 C5.68 6.34 4.36 5.68 3 5 C3 4.34 3 3.68 3 3 C2.01 2.67 1.02 2.34 0 2 C0 1.34 0 0.68 0 0 Z " fill="#FAD7D6" transform="translate(185,35)"/>
<path d="M0 0 C1.66028 0.00396 2.99621 1.33988 3.00017 3.00017 C2.99621 4.66045 1.66028 5.99637 0 6.00033 C-1.66028 5.99637 -2.99621 4.66045 -3.00017 3.00017 C-2.99621 1.33988 -1.66028 0.00396 0 0 Z " fill="#210203" transform="translate(35,33.99983443)"/>
<path d="M0 0 C0.33 0.66 0.66 1.32 1 2 C1.99 2.33 2.98 2.66 4 3 C4.33 3.99 4.66 4.98 5 6 C1.35447 4.71914 -0.16671 3.83329 -3 1 C-2.01 0.67 -1.02 0.34 0 0 Z " fill="#260404" transform="translate(193,17)"/>
</svg>
